<svg width="267" height="325" viewBox="0 0 267 325" fill="none" xmlns="http://www.w3.org/2000/svg">
<g clip-path="url(#clip0_9_813)">
<path d="M87.7442 324.955C87.5313 325.016 87.5803 325.014 87.7442 324.955V324.955Z" fill="#FF991F"/>
<path d="M185.754 276.887C182.558 276.343 179.341 276.044 176.051 276.092C172.62 276.143 169.246 276.882 165.951 277.473C161.921 278.196 157.896 278.931 153.872 279.669C145.633 281.179 137.399 282.702 129.142 284.166C120.89 285.631 112.611 287.029 104.29 288.304C96.5426 289.49 88.6455 290.324 80.7756 291.064C80.5597 291.083 80.3435 291.103 80.1276 291.122C77.6269 291.127 72.4488 291.311 70.288 292.166C67.1914 293.404 67.2369 294.672 66.284 297.034C64.2777 302.011 69.1749 308.303 76.4451 309.685C84.8675 311.285 93.5114 312.375 102.209 313.172C100.648 313.595 99.1054 314.041 97.5939 314.525C96.4788 314.882 95.3628 315.239 94.2468 315.595C93.6976 315.769 93.1484 315.945 92.5987 316.12C92.4914 316.154 92.3515 316.194 92.2255 316.23C92.4133 316.179 92.6947 316.103 93.1122 315.99C92.5959 316.139 92.08 316.287 91.5636 316.436C89.9631 317.288 89.8167 317.359 91.1238 316.651C90.3761 316.979 89.6277 317.305 88.8796 317.631C88.5341 317.782 88.1889 317.932 87.8438 318.083C87.6279 318.177 87.3893 318.243 87.2405 318.28C87.36 318.256 87.5588 318.22 87.8735 318.169C86.3505 318.42 84.974 319.371 84.5845 320.442C84.4967 320.541 84.4097 320.64 84.3219 320.739C83.5783 321.574 84.0698 322.643 85.2456 323.142C85.3399 323.182 85.4346 323.221 85.5289 323.261C86.6107 324.199 88.7235 324.508 90.329 324.243C88.8922 324.48 89.5159 324.328 90.1521 324.368C90.5583 324.393 90.9644 324.419 91.3705 324.444C92.1109 324.49 92.852 324.536 93.5923 324.581C94.3607 324.674 94.6607 324.67 95.3986 324.648C95.9946 324.63 96.5897 324.613 97.1857 324.595C98.5176 324.556 99.8498 324.514 101.182 324.473C104.876 324.359 108.535 323.896 112.189 323.518C115.837 323.142 119.485 322.761 123.131 322.375C131.703 321.47 140.246 320.497 148.777 319.428C158.273 318.24 167.974 317.285 177.29 315.555C183.317 314.436 187.601 310.568 187.601 306.317C187.601 303.397 185.611 300.758 182.522 298.992C184.408 299.191 190.679 298.195 192.93 297.034C195.291 296.081 193.75 294.248 195.147 292.637C196.569 290.965 197.284 289.161 197.293 287.226C197.293 282.546 192.516 278.037 185.754 276.887Z" fill="#FF991F"/>
<path d="M92.7296 321.951C92.221 322.155 92.4312 322.076 92.7296 321.951V321.951Z" fill="#FF991F"/>
<path d="M132.673 135.635L58.2947 151.199L31.1142 187.581L13.8695 230.342L7.43341 232.796L4.9165 267.521L12.34 291.127L22.8379 297.057L36.1477 294.385L52.4047 278.083L74.1214 246L132.673 246.051V135.635Z" fill="#FF2B15"/>
<path d="M4.89514 249.217L6.52591 233.121L12.9622 230.666L30.2069 187.906L44.2542 169.103C44.4827 169.086 44.7315 169.052 44.9941 169.002L31.1142 187.581L13.8694 230.342L7.43335 232.796L6.48542 245.873C5.86019 246.818 5.3314 247.911 4.89514 249.217Z" fill="white"/>
<path d="M6.48547 245.873L7.43341 232.796L13.8695 230.342L31.1142 187.581L44.9942 169.002C46.7098 168.678 49.0161 167.702 50.1008 166.621C51.8371 164.891 53.5763 162.41 55.4281 160.014C57.0612 164.435 58.7207 168.891 60.3969 173.348C60.3298 173.359 60.2628 173.365 60.1965 173.365C58.9399 173.365 57.8117 171.44 56.7921 169.516C55.7725 167.591 54.8614 165.666 54.039 165.666C53.7572 165.666 53.4861 165.892 53.2247 166.42C52.5856 167.711 56.2811 177.852 52.6681 183.311C50.6956 186.293 45.6317 196.107 43.5225 198.984C35.3156 210.832 30.2307 225.554 30.2307 225.554C29.6659 226.016 29.5776 226.4 29.6977 226.4C29.7909 226.4 30.0099 226.168 30.2286 225.56C30.2303 225.558 30.2321 225.557 30.2338 225.555C30.2343 225.555 30.2346 225.554 30.2349 225.554C30.3918 225.554 34.8706 225.587 35.099 227.863C35.4026 230.893 33.8239 230.999 35.6907 233.313C35.5937 233.589 35.4923 233.865 35.3874 234.139C34.8231 235.375 21.192 236.502 15.9005 239.145C11.6275 241.279 8.53693 242.774 6.48547 245.873ZM30.204 225.581C30.2033 225.581 30.2103 225.574 30.2307 225.554C30.2519 225.535 30.2602 225.529 30.261 225.529C30.2618 225.529 30.2487 225.541 30.2349 225.554C30.2321 225.554 30.2307 225.554 30.2307 225.554C30.23 225.556 30.2294 225.558 30.2286 225.56C30.2162 225.571 30.2048 225.581 30.204 225.581ZM69.1478 168.06L62.9707 153.099C64.0656 152.621 65.1966 152.21 66.3503 151.852L70.9683 167.232C70.3511 167.502 69.7442 167.778 69.1478 168.06ZM80.4989 163.692C78.9438 159.064 77.3754 154.451 75.8069 149.882C76.1586 149.833 76.5099 149.786 76.8591 149.739C81.8279 149.083 86.8267 148.653 91.8264 148.24C91.4365 150.406 91.0641 152.579 90.7108 154.735V154.736C90.7072 154.758 90.7035 154.782 90.6998 154.804C90.6982 154.814 90.6966 154.822 90.695 154.832L90.6946 154.835C90.3559 156.905 90.0339 158.961 89.7286 160.988C86.8905 161.759 83.7215 162.655 80.4989 163.692Z" fill="#FF6F60"/>
<path d="M132.526 135.635L207.878 151.199L235.058 187.581L252.303 230.342L258.739 232.796L261.256 267.521L253.832 291.127L243.334 297.057L230.024 294.385L213.768 278.083L192.051 246L125.61 246.051L132.526 135.635Z" fill="#FF2B15"/>
<path d="M260.369 248.892C260.194 248.368 260.004 247.877 259.799 247.417L258.739 232.796L260.369 248.892Z" fill="white"/>
<path d="M259.799 247.417C257.816 242.974 254.416 241.343 249.364 238.82C244.073 236.177 230.442 235.05 229.878 233.815C229.773 233.54 229.672 233.265 229.575 232.988C231.441 230.674 229.862 230.569 230.166 227.538C230.394 225.263 234.872 225.23 235.03 225.229C235.03 225.229 235.031 225.23 235.031 225.23C235.033 225.232 235.035 225.233 235.036 225.235C235.255 225.843 235.474 226.075 235.567 226.075C235.687 226.075 235.599 225.691 235.034 225.229C235.034 225.229 229.95 210.508 221.742 198.659C219.633 195.782 214.57 185.968 212.596 182.986C208.984 177.527 212.68 167.386 212.04 166.095C211.778 165.567 211.507 165.342 211.226 165.342C210.404 165.342 209.492 167.266 208.472 169.191C207.453 171.115 206.325 173.04 205.068 173.04C204.743 173.04 204.409 172.91 204.066 172.619C203.623 172.242 203.153 171.874 202.658 171.513C204.464 166.189 206.175 161.167 207.777 156.489C210.803 159.655 213.441 163.999 216.072 166.621C217.157 167.702 219.463 168.678 221.178 169.002L235.058 187.581L252.303 230.342L258.739 232.796L259.799 247.417ZM235.061 225.257C235.06 225.257 235.049 225.246 235.036 225.235C235.036 225.233 235.035 225.231 235.034 225.229C235.034 225.229 235.034 225.229 235.034 225.229C235.033 225.229 235.032 225.229 235.03 225.229C235.016 225.216 235.003 225.204 235.004 225.204C235.005 225.204 235.013 225.211 235.034 225.229C235.055 225.249 235.062 225.257 235.061 225.257ZM188.963 164.796C183.611 162.863 178.066 161.335 173.622 160.149C173.432 158.898 173.236 157.64 173.033 156.373C173.031 156.363 173.029 156.351 173.028 156.341C173.028 156.34 173.028 156.34 173.027 156.339C173.026 156.328 173.024 156.316 173.022 156.305L173.021 156.302C173.018 156.279 173.014 156.256 173.01 156.233C173.01 156.232 173.01 156.23 173.01 156.229C172.782 154.812 172.547 153.386 172.303 151.958C172.575 150.689 172.815 149.414 173.003 148.129C178.45 148.577 183.9 149.025 189.313 149.739C190.998 149.962 192.715 150.216 194.426 150.539C192.73 154.985 190.904 159.751 188.963 164.796Z" fill="#FF6F60"/>
<path d="M67.9166 293.605C72.391 292.278 77.0357 291.553 81.7374 291.158L114.286 224.231L54.6653 219.016L67.2559 282.509L67.9166 293.605Z" fill="#FF2B15"/>
<path d="M65.581 294.362C67.454 293.706 69.3611 293.166 71.2942 292.723C71.1413 291.178 70.9746 289.749 70.7913 288.607C69.2932 279.271 62.0746 236.269 62.0022 235.836L56.2374 236.803C56.3102 237.236 63.5243 280.218 65.02 289.533C65.2204 290.783 65.4078 292.492 65.581 294.362Z" fill="#201600"/>
<path d="M191.918 290.398C193.178 290.75 194.436 291.135 195.684 291.553L196.222 282.509L208.812 219.016L149.192 224.231L177.052 287.215C182.078 288.004 187.053 289.039 191.918 290.398Z" fill="#FF2B15"/>
<path d="M198.541 289.014C200.203 278.733 207.17 237.229 207.241 236.803L201.476 235.835C201.403 236.269 194.184 279.271 192.686 288.607C192.598 289.158 192.513 289.817 192.433 290.547C193.563 290.869 194.69 291.221 195.809 291.599C196.564 290.588 197.49 289.713 198.541 289.014Z" fill="#201600"/>
<path d="M196.926 289.477C193.629 284.32 180.864 260.594 176.995 197.492L178.094 197.4C177.985 196.1 175.677 169.077 170.886 144.121C170.564 144.151 170.238 144.167 169.909 144.166C165.757 144.149 161.532 143.744 157.534 142.592C157.463 142.572 157.395 142.548 157.325 142.527C160.532 158.133 162.745 175.611 163.979 186.816L144.357 189.592L131.702 190.425L117.414 189.54L99.4981 186.816C100.899 174.085 103.566 153.255 107.522 136.258L102.283 135.038C100.451 138.134 97.1113 140.268 93.3341 140.37C88.0401 166.29 85.4992 196.035 85.3846 197.4L86.4831 197.492C82.0265 270.169 65.7693 290.614 65.7693 290.614L65.5579 294.37C74.1916 291.341 83.5543 290.791 92.7946 290.714C95.2242 290.162 97.6569 289.661 100.082 289.207C115.695 286.288 131.657 284.837 147.542 284.999C162.357 285.15 177.601 286.4 191.918 290.398C193.132 290.737 194.344 291.107 195.546 291.508C195.929 290.779 196.393 290.098 196.926 289.477Z" fill="#FF2B15"/>
<path d="M197.383 290.166C195.072 286.829 181.078 264.091 176.995 197.492L178.094 197.4C177.983 196.076 175.588 168.036 170.609 142.694C167.877 143.356 164.992 142.996 162.551 141.566C160.354 140.28 158.667 138.219 157.833 135.82L155.956 136.258C159.91 153.242 162.577 174.08 163.979 186.816L148.973 188.086L131.739 188.617L116.762 188L99.4981 186.816C100.899 174.085 103.566 153.255 107.522 136.258L103.198 135.251C101.269 137.078 98.681 138.213 95.8653 138.213C95.1697 138.213 94.4879 138.142 93.8265 138.01C88.197 164.45 85.5029 195.993 85.3846 197.4L86.4831 197.492C82.0265 270.169 65.7693 290.614 65.7693 290.614L65.5579 294.37C74.1916 291.341 83.5543 290.791 92.7946 290.714C95.2242 290.162 97.6569 289.661 100.082 289.207C115.695 286.288 131.657 284.837 147.542 284.999C162.357 285.15 177.601 286.4 191.918 290.398C193.262 290.773 194.605 291.185 195.935 291.637C196.371 291.103 196.856 290.61 197.383 290.166Z" fill="#FF991F"/>
<path d="M84.7048 241.755C94.6785 251.24 112.806 263.589 124.786 270.093C138.758 277.68 165.106 289.237 165.106 289.237C166.03 289.551 166.45 288.248 165.733 287.751C138.129 268.617 112.595 246.286 92.4283 219.282C92.0571 219.653 91.6864 220.024 91.3156 220.394C120.865 239.739 150.349 259.547 182.64 274.113C183.588 274.541 156.491 259.053 143.547 251.397C126.069 241.059 109.114 230.104 92.1364 218.99C91.4815 218.561 90.5297 219.441 91.0237 220.103C111.368 247.344 137.063 269.851 164.912 289.155C165.122 288.66 165.33 288.164 165.539 287.669C135.995 277.613 83.9433 241.031 84.7048 241.755Z" fill="#201600"/>
<path d="M146.864 235.589C136.377 228.478 115.095 212.566 115.862 213.284C133.155 229.445 153.24 242.18 173.508 254.237C174.411 254.775 155.812 241.656 146.864 235.589Z" fill="#201600"/>
<path d="M91.6885 261.631C95.7832 265.171 99.9856 268.59 104.297 271.865C108.804 275.288 119.872 280.799 118.997 280.23C109.824 274.275 90.8937 260.944 91.6885 261.631Z" fill="#201600"/>
<path d="M106.448 139.128C96.1376 142.003 86.0212 143.367 75.5486 144.845C70.4494 145.565 63.6385 147.461 58.9279 149.579C53.4945 152.021 46.6198 162.278 43.1118 167.9C41.5848 170.348 48.0423 168.671 50.1006 166.621C53.8994 162.836 57.7099 155.462 62.6844 153.226C67.0897 151.245 72.1024 150.368 76.8589 149.739C86.6798 148.443 96.6186 148.026 106.448 146.886C107.669 146.744 108.704 146.617 108.704 145.28C108.704 144.158 107.672 142.883 106.448 143.025V139.128Z" fill="#201600"/>
<path d="M88.5236 234.153L87.9016 232.402C73.251 199.044 55.5464 150.569 43.2749 115.777L42.8732 114.639L42.6509 114.63C40.9832 111.116 37.8574 108.468 35.3335 106.331C34.205 105.375 32.4998 103.93 32.3328 103.387C31.1568 99.5639 23.9114 76.0064 21.9516 69.6332L26.9575 67.6871C29.4367 72.8643 39.4573 93.8192 41.6471 98.8785C42.0175 99.7342 41.9711 101.986 41.9264 104.165C41.8784 106.527 41.8244 109.199 42.1553 111.877L42.185 112.116L42.2102 112.177L86.6417 219.792L90.1136 218.572L56.8514 107.838L56.7787 107.709C55.283 105.088 53.3503 102.782 51.6456 100.746C50.2439 99.0736 48.7974 97.347 48.5502 96.449C47.118 91.2401 42.1305 70.0352 40.4657 62.9327L45.5873 61.3147L58.6357 94.1293C58.8455 94.657 58.4215 96.8495 58.141 98.3004C57.5657 101.272 56.851 104.967 57.4612 108.505L57.5023 108.7L57.5413 108.808C70.5336 144.816 88.0126 195.224 97.4972 230.883L97.5281 230.985C97.9034 232.082 97.3289 233.268 96.2528 233.646L91.1865 235.429C90.9608 235.509 90.7275 235.549 90.4929 235.549C89.6087 235.549 88.8171 234.988 88.5236 234.153ZM17.5604 67.5078L18.0489 69.0957C18.0489 69.0957 27.556 100.009 28.9184 104.437C29.3927 105.98 30.9949 107.337 33.0235 109.055C35.3874 111.058 38.3254 113.547 39.5897 116.531C39.6672 116.714 39.8066 117.044 40.0428 117.354C52.2945 152.075 69.9608 200.428 84.6041 233.777L85.1538 235.34C85.9498 237.601 88.0955 239.121 90.4929 239.121C91.1324 239.121 91.765 239.013 92.3723 238.799L97.4391 237.016C100.33 235.999 101.896 232.804 100.93 229.895C91.4304 194.188 73.9515 143.768 60.9571 107.749C60.5042 104.89 61.138 101.616 61.6478 98.9817C62.1528 96.3706 62.5512 94.3094 61.9552 92.8097L47.6798 56.9079L36.2338 60.5236L36.61 62.1343C37.3102 65.1308 43.4566 91.3982 45.106 97.3958C45.5593 99.0439 47.0354 100.806 48.9047 103.037C50.4728 104.909 52.2481 107.028 53.5759 109.306L76.7338 186.434L45.6727 111.203C45.404 108.849 45.454 106.4 45.4987 104.237C45.5576 101.326 45.6044 99.0281 44.9255 97.4597C42.389 91.5987 29.9897 65.7479 29.4633 64.6503L28.7474 63.1587L17.5604 67.5078Z" fill="#201600"/>
<path d="M93.9158 215.339L99.2135 230.391C99.9241 232.408 98.8642 234.621 96.8457 235.331L91.779 237.114C89.7609 237.825 87.5485 236.764 86.8387 234.746L81.541 219.694L93.9158 215.339Z" fill="white"/>
<path d="M89.2312 221.384L87.0021 234.79C62.7486 180.035 29.4634 81.3692 29.4634 81.3692L31.1194 80.6354L89.2312 221.384Z" fill="white"/>
<path d="M43.2862 98.1691C44.4713 100.907 42.7463 108.699 44.5904 114.964C45.4274 117.81 41.545 112.484 41.545 112.484C41.545 112.484 42.1971 118.108 41.234 115.834C38.7889 110.064 31.3987 106.426 30.6254 103.912C29.2631 99.4835 19.756 68.5706 19.756 68.5706L27.8527 65.4228C27.8527 65.4228 40.7152 92.2289 43.2862 98.1691Z" fill="white"/>
<path d="M89.1056 221.428L99.2391 230.483C83.8518 172.608 47.0816 75.1685 47.0816 75.1685L45.3302 75.6332L89.1056 221.428Z" fill="white"/>
<path d="M46.8279 96.9226C47.619 99.7992 53.8444 104.793 56.3309 110.832C57.4598 113.575 57.1521 106.99 57.1521 106.99C57.1521 106.99 60.1658 111.783 59.4921 109.408C57.7838 103.378 61.2671 95.9144 60.2955 93.4695C58.5835 89.1643 46.6332 59.1112 46.6332 59.1112L38.3492 61.7281C38.3492 61.7281 45.1119 90.6819 46.8279 96.9226Z" fill="white"/>
<path d="M26.8784 69.3198C26.8784 69.3198 37.2184 94.0456 39.7895 99.9855C40.7725 102.257 40.6536 106.188 41.3299 111.657L87.9714 219.494L88.8865 217.777L55.2268 108.594C52.357 103.565 47.5191 99.4354 46.828 96.9226C45.112 90.6815 38.3495 62.7026 38.3495 62.7026L45.0331 62.5709C45.0331 62.5709 55.0113 89.4887 56.7233 93.7943C57.6307 96.0782 55.9508 102.419 56.9481 108.202C69.068 141.792 89.5207 193.947 99.2229 230.423C99.9112 232.432 98.8538 234.624 96.8458 235.331L91.7791 237.114C89.761 237.825 87.5486 236.764 86.8388 234.746L86.2664 233.121C71.3775 199.221 53.2933 149.55 41.5901 116.372C41.5092 116.368 41.3941 116.212 41.234 115.834C38.7889 110.063 31.3985 106.426 30.6254 103.912C29.2631 99.4834 19.756 69.545 19.756 69.545L26.8784 69.3198Z" fill="#E0D8C7"/>
<path d="M39.8884 62.6044C41.1731 68.0873 46.587 91.1468 48.0806 96.5781C48.3555 97.5778 49.7711 99.2677 51.2696 101.056C52.962 103.077 54.8809 105.367 56.3554 107.951L56.4286 108.079L89.5131 218.266L86.9157 219.179L42.6602 111.991L42.6387 111.817C42.3118 109.172 42.3659 106.517 42.4138 104.175C42.4614 101.842 42.5061 99.6373 42.0943 98.6856C39.8566 93.5153 29.6348 72.1486 27.2017 67.0698L21.3529 69.3435C23.0907 74.9952 30.6626 99.6145 31.8671 103.53C32.0763 104.21 33.6392 105.534 35.0184 106.702C37.576 108.868 40.7462 111.554 42.3325 115.103L42.5232 115.112L42.8155 115.94C55.0907 150.741 72.7997 199.229 87.456 232.598L88.0642 234.315C88.4264 235.345 89.4025 236.036 90.4929 236.036C90.7827 236.036 91.0706 235.987 91.3478 235.889L96.4146 234.106C97.742 233.639 98.4506 232.176 97.9944 230.845L97.968 230.757C88.4781 195.08 70.9947 144.659 57.9995 108.643L57.9605 108.536L57.9414 108.423C57.3466 104.973 58.0515 101.326 58.6187 98.3957C58.9618 96.6212 59.3508 94.6101 59.0882 93.9498L45.8727 60.714L39.8884 62.6044ZM85.6131 235.178L85.0578 233.599C70.4165 200.257 52.7559 151.92 40.4754 117.115C40.2499 116.841 40.1177 116.529 40.0382 116.341C38.7282 113.249 35.7401 110.718 33.3394 108.685C31.3711 107.018 29.8166 105.701 29.384 104.294C28.0215 99.8653 18.5144 68.9525 18.5144 68.9525L18.1593 67.7979L28.5036 63.7765L29.024 64.8611C29.5497 65.9563 41.9268 91.7578 44.4787 97.6534C45.1153 99.1246 45.0694 101.376 45.0112 104.228C44.9661 106.43 44.9153 108.92 45.1966 111.326L80.0032 195.63L54.0259 109.112C52.6746 106.779 50.872 104.627 49.2783 102.725C47.4468 100.539 46.0008 98.8124 45.5755 97.2672C43.8725 91.0732 37.3608 63.2073 37.0844 62.0239L36.8106 60.8519L47.3944 57.5089L61.5027 92.99C62.0462 94.3572 61.6592 96.3573 61.1693 98.8893C60.6489 101.578 60.0029 104.917 60.4831 107.872C73.4868 143.915 90.9616 194.321 100.468 230.049C101.352 232.712 99.9287 235.623 97.2773 236.557L92.2105 238.34C91.6556 238.535 91.0775 238.634 90.4929 238.634C88.3016 238.634 86.3408 237.245 85.6131 235.178Z" fill="#201600"/>
<path d="M62.3937 158.238L87.4225 218.773L88.8865 217.777L69.768 155.762L75.3527 154.084C84.2645 180.19 93.315 208.213 99.2228 230.423C99.9111 232.432 98.8537 234.624 96.8458 235.331L91.779 237.114C89.761 237.825 87.5486 236.764 86.8387 234.746L86.2663 233.121C77.0325 212.098 66.5705 185.008 57.1631 159.549L62.3937 158.238Z" fill="#201600"/>
<path d="M96.2681 227.922C97.582 231.872 95.5135 232.583 95.5135 232.583L74.27 157.713C74.27 157.713 94.9545 223.972 96.2681 227.922Z" fill="#E0D8C7"/>
<path d="M80.5529 242.604L74.8243 249.435L44.2388 290.68L37.8954 293.769L24.8304 297.151L12.1775 292.751L5.80273 278.562V263.002L10.9862 247.981L23.208 242.765L39.1131 243.985L65.7921 233.48L70.2056 223.791L64.7245 198.314L79.7565 183.565L86.5791 185.001L93.17 188.099L94.4429 190.208L93.5627 193.23L90.5034 193.719L88.0004 191.725L81.9193 193.239L81.307 196.443L83.132 195.968L90.1981 195.87L95.8397 198.104L95.8682 201.69L97.6846 204.39L97.4647 209.926L99.6808 213.705L98.1018 217.165L93.1927 214.577L89.7558 216.876L88.167 232.442L84.426 234.885L80.5529 242.604Z" fill="#F2B89C"/>
<path d="M39.113 243.985L38.9539 243.973L56.2947 237.145C56.2984 237.167 56.3024 237.19 56.3065 237.215L39.113 243.985ZM57.8485 236.533L58.1177 236.427L58.1295 236.486L57.8485 236.533ZM69.4566 220.31L69.2626 220.293L64.5341 198.314L68.4707 194.451C68.4878 194.496 68.5061 194.542 68.5231 194.586L64.7244 198.314L69.4566 220.31Z" fill="#FF3E1E"/>
<path d="M58.1295 236.486L58.1177 236.427L65.6017 233.48L70.0152 223.791L69.2627 220.293L69.4566 220.31L70.2054 223.791L65.792 233.48L58.1803 236.477L58.1295 236.486Z" fill="#FF3E1E"/>
<path d="M56.3065 237.215C56.3024 237.19 56.2983 237.167 56.2947 237.145L57.8485 236.533L58.1294 236.486L58.1802 236.477L56.3065 237.215Z" fill="#2E1F00"/>
<path d="M68.5231 194.586C68.5061 194.542 68.4878 194.496 68.4707 194.451L68.8484 194.081C68.8659 194.125 68.8838 194.171 68.9012 194.216L68.5231 194.586Z" fill="#2E1F00"/>
<path d="M68.9012 194.216C68.8838 194.172 68.8659 194.125 68.8484 194.081L69.8599 193.089C69.8774 193.134 69.8948 193.179 69.9123 193.224L68.9012 194.216ZM74.8538 188.375L74.7994 188.243L75.9292 187.134C75.9458 187.186 75.9641 187.23 75.9836 187.267L74.8538 188.375Z" fill="#2E1F00"/>
<path d="M69.9123 193.224C69.8948 193.179 69.8773 193.134 69.8599 193.089L74.7994 188.243L74.8538 188.375L69.9123 193.224Z" fill="#2E1F00"/>
<path d="M14.2967 264.434C10.7933 264.434 16.6846 254.502 17.5087 253.808C21.561 250.841 29.379 246.75 33.307 243.582L33.3363 243.556L38.9229 243.985L38.954 243.973L39.1132 243.985L56.3067 237.215L58.1804 236.477L65.7922 233.48L70.2056 223.791L69.4567 220.31L64.7246 198.314L68.5233 194.586L68.9014 194.216L69.9125 193.224L74.854 188.375L75.9838 187.267C76.048 187.387 76.1257 187.429 76.2208 187.429C76.4306 187.429 76.7233 187.223 77.1307 187.198C77.2181 187.192 77.3038 187.19 77.3876 187.19C79.9317 187.19 80.7778 189.656 79.7655 191.817C79.389 192.705 76.6026 196.72 76.3029 197.618C75.6996 198.226 77.4303 197.642 76.9949 198.386C75.6106 200.749 73.3677 200.294 74.0938 202.934C74.8414 205.651 79.0841 210.044 79.0841 213.126C78.2234 214.608 79.0979 215.389 79.1703 217.188C79.2955 220.323 79.4288 223.467 79.1634 226.594C78.9707 227.584 78.7731 230.824 78.4536 231.78C78.4251 231.834 78.3869 231.859 78.3409 231.859C78.1084 231.859 77.671 231.233 77.2282 230.607C76.7855 229.98 76.3379 229.354 76.0854 229.354C76.0383 229.354 75.9976 229.376 75.9651 229.424C72.4278 233.57 75.0296 234.862 71.0333 238.513C70.569 238.937 64.3937 243.543 63.9355 243.973C63.3338 244.248 62.7305 244.518 62.1247 244.782C54.7456 247.825 47.2249 250.464 39.897 253.648C31.8424 257.148 22.83 260.069 15.128 264.295C14.8063 264.389 14.5306 264.434 14.2967 264.434Z" fill="#F8D7C7"/>
<path d="M66.1428 235.057C68.7533 234.246 71.3844 230.132 72.2711 228.687C72.915 227.639 72.0503 225.845 71.0075 225.234C69.9294 224.603 67.3336 223.029 67.5804 224.231C67.9207 225.884 67.8495 227.824 67.6816 228.053C68.0365 227.571 67.4812 228.253 67.3836 228.355C67.1913 228.555 66.9824 228.739 66.7701 228.917C67.2088 228.549 66.7791 228.905 66.6901 228.968C66.5514 229.066 63.9158 231.085 63.7707 231.174C62.7254 231.816 64.8204 231.252 65.4521 232.33C66.0628 233.372 65.0143 234.016 66.0628 233.372L66.1428 235.057Z" fill="#201600"/>
<path d="M72.5019 226.988C71.1648 217.818 70.0005 208.578 67.0974 199.739C66.1936 196.989 61.8367 198.166 62.7473 200.938C65.6505 209.778 66.8152 219.017 68.1519 228.187C68.33 229.406 69.8537 230.058 70.9266 229.763C72.2206 229.407 72.6796 228.204 72.5019 226.988Z" fill="#201600"/>
<path d="M66.6466 201.164C66.6933 200.9 66.7474 200.64 66.8124 200.379C66.8454 200.255 66.882 200.131 66.9222 200.008C67.108 199.413 66.2669 200.713 66.5323 200.156C66.6413 199.926 66.1933 199.985 66.3392 199.777C66.1864 199.978 67.4275 200.859 67.3751 200.603C67.0698 199.118 68.7895 197.375 68.9492 197.242C69.8936 196.453 68.6789 196.401 67.8686 195.591C66.9413 194.663 65.3904 194.16 64.4476 194.947C63.1227 196.053 62.3201 198.175 62.6234 200.27C62.6234 200.27 63.5788 203.03 63.8719 202.738C64.6818 201.935 66.4327 202.375 66.6466 201.164Z" fill="#201600"/>
<path d="M67.1869 198.458C71.891 195.43 75.7141 191.325 78.3554 186.388C79.7275 183.825 75.8332 181.546 74.4603 184.112C72.1796 188.373 68.9809 191.942 64.9098 194.563C62.4734 196.131 64.733 200.037 67.1869 198.458Z" fill="#201600"/>
<path d="M77.5444 187.816C79.2478 186.498 83.6584 185.691 86.8429 186.749C89.6114 187.67 90.7884 183.312 88.0426 182.4C83.6893 180.952 79.6536 181.033 75.5576 183.108C72.9614 184.422 74.7324 188.508 77.3204 187.198L77.5444 187.816Z" fill="#201600"/>
<path d="M86.3045 186.522C87.0351 186.901 89.1902 187.543 89.9086 187.877C91.2453 188.498 92.6548 189.44 93.3125 190.202C94.1167 191.133 92.9162 194.53 93.9915 194.09C96.2742 193.155 96.6178 189.361 95.8152 188.432C94.3907 186.783 90.5322 183.639 88.5808 182.627C87.4896 182.061 86.1391 182.337 85.4951 183.437C84.8979 184.456 85.2138 185.956 86.3045 186.522Z" fill="#201600"/>
<path d="M47.6509 162.602C38.6925 172.536 30.801 184.213 25.4535 196.501C24.3052 199.14 28.1905 201.44 29.3487 198.778C34.5437 186.84 42.1345 175.446 50.841 165.792C52.7831 163.638 49.6035 160.437 47.6509 162.602Z" fill="#201600"/>
<path d="M28.4509 194.902C27.156 194.546 26.1444 195.341 25.6766 196.477C21.0175 207.792 16.5101 219.143 12.4617 230.669C14.2059 229.852 15.9982 229.274 17.8601 228.906C21.6318 218.394 25.7671 208.021 30.0264 197.676C30.4955 196.537 29.5276 195.198 28.4509 194.902Z" fill="#201600"/>
<path d="M7.90159 268.99C7.72486 261.538 9.64212 254.143 11.8082 247.047C10.1813 248.459 8.58495 249.902 7.24718 251.612C6.84807 252.123 6.24891 252.371 5.61909 252.414C4.25843 257.845 3.3318 263.396 3.39072 268.99C3.48092 277.523 7.10249 285.148 10.1376 292.936C11.1816 295.615 15.5449 294.451 14.4873 291.737C11.5994 284.326 8.09425 277.091 7.90159 268.99Z" fill="#201600"/>
<path d="M10.4738 293.541C13.2009 297.036 19.5497 299.262 24.741 299.842C25.9656 299.979 26.5038 298.867 26.5038 297.741C26.5038 296.408 26.0909 295.452 24.8692 295.315C20.9311 294.875 15.8871 293.527 13.8525 290.131C12.3616 287.643 9.02244 290.055 11.1795 292.016L10.4738 293.541Z" fill="#201600"/>
<path d="M23.7978 299.771C36.0196 300.724 45.9759 291.108 54.3978 283.517C59.776 278.67 66.41 267.591 69.5395 262.8C71.3987 259.955 73.5822 256.185 75.2133 253.196C77.0732 249.789 78.5599 247.64 81.1557 244.722C83.0815 242.556 79.9027 239.354 77.9656 241.532C73.2053 246.884 70.4039 253.686 66.4567 259.616C63.4036 264.203 60.5204 268.897 57.2896 273.364C51.2044 281.776 35.0816 296.14 23.7978 295.26C20.8954 295.033 20.9172 299.546 23.7978 299.771Z" fill="#201600"/>
<path d="M17.699 253.808C27.2458 247.145 53.8585 240.167 66.4227 234.942C67.557 234.47 68.3554 233.466 67.9981 232.168C67.7029 231.094 66.3609 230.12 65.2238 230.592C51.864 236.148 27.9143 242.371 17.699 253.808Z" fill="#201600"/>
<path d="M81.3813 244.423C83.1855 242.608 83.4697 237.552 85.6955 236.382C87.6112 235.374 82.0029 233.246 81.1024 235.231C80.023 237.61 79.2884 240.091 77.3134 242.288C75.8519 243.915 79.6141 243.968 80.2223 241.877L81.3813 244.423Z" fill="#201600"/>
<path d="M83.0505 237.439C85.082 236.687 87.0574 235.799 89.0284 234.903C89.8683 234.522 90.0651 233.323 89.6353 232.589C89.1345 231.734 88.1604 231.601 87.3209 231.982C85.615 232.758 83.9092 233.526 82.1513 234.176C80.1234 234.927 80.9999 238.198 83.0505 237.439Z" fill="#201600"/>
<path d="M89.7435 234.092C90.9253 228.901 91.3664 223.228 91.2176 217.904C91.1294 214.754 87.7461 214.748 87.8344 217.904C87.975 222.936 87.9348 230.714 85.4183 232.837C83.7531 234.241 89.1528 235.851 89.637 233.724L89.7435 234.092Z" fill="#201600"/>
<path d="M91.2453 218.487C91.4433 217.241 92.0181 216.786 93.9269 215.649C95.7986 214.533 94.0976 211.283 92.219 212.403C90.5631 213.39 88.8764 213.655 87.0494 214.286C85.0004 214.993 87.6023 218.165 87.8608 219.016L91.2453 218.487Z" fill="#201600"/>
<path d="M92.2185 216.619C93.7333 215.38 95.6176 217.722 97.1149 218.388C97.9577 218.763 98.0833 218.267 98.587 217.407C99.0143 216.678 98.8232 215.467 97.98 215.092C96.4827 214.426 95.3932 213.331 93.9927 212.473C92.1262 211.332 90.024 214.682 91.8815 215.818L92.2185 216.619Z" fill="#201600"/>
<path d="M87.3319 193.767C84.5621 194.363 81.6269 195.893 78.9038 196.67C77.9314 196.948 76.9618 196.587 75.9954 196.887C74.6107 197.315 75.2018 199.493 76.5951 199.061C80.2678 197.923 85.026 196.016 88.5544 196.142C90.0073 196.194 88.5613 193.654 87.1432 193.959L87.3319 193.767Z" fill="#201600"/>
<path d="M87.2555 195.908C89.6362 196.263 91.8652 196.98 93.9675 198.16C95.2375 198.872 96.3742 196.923 95.1058 196.212C92.8422 194.942 90.4228 194.116 87.8555 193.734C86.433 193.522 85.8212 195.695 87.2555 195.908Z" fill="#201600"/>
<path d="M93.5231 197.918C94.6501 198.742 95.7693 200.406 94.5785 201.669C93.5804 202.729 96.0079 203.283 96.9271 202.161C98.3207 200.459 97.0641 197.636 95.2928 196.34C94.1163 195.48 91.8209 196.065 92.982 196.914L93.5231 197.918Z" fill="#201600"/>
<path d="M94.8883 203.946C96.6885 204.61 96.8271 206.733 96.6742 208.558C96.5531 210.009 98.8094 209.997 98.9298 208.558C99.1322 206.138 98.4769 203.806 96.7978 202.018C95.801 200.956 94.209 202.554 95.2034 203.614L94.8883 203.946Z" fill="#201600"/>
<path d="M95.5441 204.24C96.8544 204.848 98.0008 202.903 96.682 202.292C94.3846 201.227 92.0043 200.091 89.5443 199.489C89.3293 199.437 89.1354 199.448 88.9622 199.498L88.9715 199.49C86.3892 199.938 83.7357 201.695 81.2935 202.598C80.3658 202.941 79.4478 202.669 78.5408 203.081C77.218 203.681 78.3656 205.624 79.6796 205.028C82.7311 203.643 86.0895 202.689 89.3895 202.102C91.5006 202.64 93.5638 203.322 95.5441 204.24Z" fill="#201600"/>
<path d="M97.5389 208.034C95.5652 207.381 93.5731 206.466 91.5713 205.908C91.4782 205.882 91.3896 205.868 91.3042 205.864L91.3046 205.863C88.7698 205.455 86.272 207.564 84.2063 208.196C83.49 208.414 82.7794 208.002 82.0756 208.259C80.721 208.753 81.3057 210.933 82.6753 210.434C85.4056 209.438 88.2706 208.23 91.1989 208.472C93.1243 209.011 95.0403 209.581 96.9393 210.208C98.3244 210.667 98.9135 208.489 97.5389 208.034Z" fill="#201600"/>
<path d="M96.4905 209.915C97.5064 211.286 98.1207 212.819 98.2512 214.526C98.361 215.967 100.618 215.977 100.506 214.526C100.347 212.433 99.694 210.472 98.4382 208.777C97.5824 207.623 95.6233 208.746 96.4905 209.915Z" fill="#201600"/>
<path d="M98.1463 218.315C99.3033 217.608 100.027 216.418 100.466 215.164C100.67 214.583 100.241 213.931 99.679 213.777C99.0553 213.605 97.9873 212.73 98.0768 213.338C98.2512 214.526 97.6381 215.982 97.008 216.367C95.7692 217.125 96.9011 219.076 98.1463 218.315Z" fill="#201600"/>
<path d="M81.6601 196.855C82.2289 195.711 82.7639 194.548 83.4624 193.476C84.2584 192.253 82.3049 191.124 81.5142 192.338C80.8166 193.41 79.9567 195.221 79.3884 196.365C78.7428 197.663 81.0129 198.157 81.6601 196.855Z" fill="#201600"/>
<path d="M83.1323 194.008C83.5373 193.767 85.885 192.736 87.7803 193.471C89.1378 193.998 89.2305 191.033 87.786 190.944C86.0985 190.84 84.1015 191.309 82.34 191.823C82.1888 191.867 81.259 193.359 82.7136 193.359L83.1323 194.008Z" fill="#201600"/>
<path d="M87.2115 193.092C89.1332 194.427 91.3204 194.809 93.5979 194.332C95.0212 194.034 93.9943 189.745 93.6885 191.163C93.4064 192.469 89.7707 192.132 88.3498 191.145C87.1517 190.313 86.026 192.269 87.2115 193.092Z" fill="#201600"/>
<path d="M89.604 195.103H84.2096V192.18H89.604V195.103Z" fill="#201600"/>
<path d="M39.0932 242.343C40.876 241.973 42.6452 241.521 44.43 241.216C44.1706 240.958 43.8149 240.761 43.3494 240.665C32.3528 238.42 19.7994 240.089 10.0603 245.799C5.94591 248.212 2.37594 251.656 0.72881 256.206C-1.05252 261.124 0.653217 266.453 3.45614 270.608C5.0731 273.005 8.98307 270.75 7.35117 268.331C5.03594 264.899 3.74009 261.101 5.17616 257.135C6.47568 253.546 10.038 250.959 13.2581 249.168C20.2408 245.285 28.991 243.672 37.1354 244.316C37.2728 243.402 37.8834 242.595 39.0932 242.343Z" fill="#201600"/>
<path d="M4.331 260.326C6.00591 254.76 6.84079 249.041 7.67022 243.302C7.97781 241.172 8.29797 239.038 8.84302 236.954C9.18553 235.643 9.58541 234.485 10.5708 233.718C11.543 232.962 11.3588 231.317 10.5708 230.529C9.6213 229.579 8.35086 229.775 7.38105 230.529C4.40121 232.846 3.98147 237.716 3.46186 241.143C2.54333 247.199 1.96861 252.306 0.198398 258.191C-0.641847 260.985 3.49537 263.104 4.331 260.326Z" fill="#201600"/>
<path d="M54.4647 237.797C56.0319 237.301 57.5629 236.753 59.12 236.32C51.7538 230.514 41.8854 226.786 32.5989 224.984C22.8548 223.094 15.08 224.348 7.38104 230.529C6.42058 231.3 6.58304 232.92 7.38104 233.718C8.32068 234.658 9.61288 234.488 10.5708 233.718C13.7072 230.667 22.0233 226.16 30.4116 227.904C37.7463 229.429 47.2945 233.461 53.9211 238.028C54.0866 237.939 54.2667 237.86 54.4647 237.797Z" fill="#201600"/>
<path d="M34.4687 234.38C42.6688 235.017 47.0525 236.751 47.0525 236.751C36.6609 230.744 25.4568 229.692 16.8099 234.884C16.1879 235.258 25.7544 233.703 34.4687 234.38Z" fill="#201600"/>
<path d="M159.724 139.128C170.035 142.003 180.151 143.367 190.624 144.845C195.723 145.565 202.533 147.461 207.245 149.579C212.678 152.021 219.553 162.278 223.06 167.9C224.587 170.348 218.13 168.671 216.072 166.621C212.274 162.836 208.462 155.462 203.487 153.226C199.082 151.245 194.07 150.368 189.313 149.739C179.493 148.443 169.553 148.026 159.724 146.886C158.503 146.744 157.469 146.617 157.469 145.28C157.469 144.158 158.5 142.883 159.724 143.025V139.128Z" fill="#201600"/>
<path d="M164.99 226.423L165.593 224.885C178.49 192.006 189.841 162.678 197.555 142.305L198.059 140.975L199.201 141.035C202.905 131.28 205.91 123.663 207.799 118.943C208.648 115.187 206.552 111.444 204.524 107.822C202.254 103.767 200.111 99.9374 201.592 95.8436L214.829 59.273C215.454 57.5456 216.905 56.5146 218.711 56.5146C219.519 56.5146 220.144 56.7175 220.317 56.7797L248.195 66.8699C250.16 67.5809 251.747 69.7254 250.816 72.298L237.579 108.869C236.098 112.961 232.011 114.53 227.683 116.191C223.811 117.677 219.807 119.214 218.064 122.663C216.502 127.475 213.943 135.232 210.532 145.136L211.447 145.821L210.983 147.165C203.877 167.738 193.838 197.51 182.713 230.997L182.166 232.64C180.295 238.258 176.101 238.865 174.385 238.865C173.857 238.865 173.491 238.809 173.358 238.785L168.199 236.946L167.905 236.822L167.828 236.784C165.874 235.687 162.764 232.111 164.99 226.423Z" fill="#201600"/>
<path d="M166.804 227.134C168.147 223.701 186.397 177.277 199.378 142.995L200.52 143.055C204.48 132.594 207.672 124.503 209.663 119.532C211.804 110.73 200.988 103.237 203.424 96.5068C205.501 90.7678 214.488 65.9391 216.661 59.9362C217.431 57.808 219.654 58.6121 219.654 58.6121L234.165 63.8645L247.532 68.7019C247.532 68.7019 249.754 69.5064 248.984 71.6346C246.812 77.6383 238.214 103.551 235.498 109.016C231.352 117.355 220.219 113.758 216.254 121.927C214.601 127.021 211.876 135.278 208.227 145.844L209.142 146.529C197.173 181.177 181.483 228.528 180.318 232.025C178.413 237.741 173.709 236.869 173.709 236.869L173.628 236.839L171.899 236.213L170.592 235.741L168.862 235.114L168.781 235.085C168.781 235.085 164.608 232.745 166.804 227.134Z" fill="white"/>
<path d="M167.129 227.134C168.471 223.701 186.722 177.277 199.702 142.995L200.844 143.055C204.805 132.594 207.997 124.503 209.987 119.532C212.129 110.73 201.313 103.237 203.749 96.5068C205.826 90.7678 214.813 65.9391 216.985 59.9362C217.756 57.808 219.979 58.6121 219.979 58.6121L234.49 63.8645L247.856 68.7019C247.856 68.7019 250.079 69.5064 249.309 71.6346C247.136 77.6383 236.752 100.014 233.642 105.265C229.883 111.613 220.544 113.758 216.579 121.927C214.926 127.021 212.201 135.278 208.552 145.844L209.466 146.529C197.498 181.177 181.808 228.528 180.643 232.025C178.738 237.741 174.034 236.869 174.034 236.869L173.953 236.839L172.223 236.213L170.917 235.741L169.187 235.114L169.106 235.085C169.106 235.085 164.933 232.745 167.129 227.134Z" fill="white"/>
<path d="M166.804 227.134C168.147 223.701 186.397 177.277 199.378 142.995L200.52 143.055C204.48 132.594 207.672 124.503 209.663 119.532C211.804 110.73 200.988 103.237 203.424 96.5068C205.501 90.7678 214.488 65.9391 216.661 59.9362C217.431 57.808 219.654 58.6121 219.654 58.6121L234.165 63.8645L247.532 68.7019C247.532 68.7019 248.78 68.8568 248.01 70.9854C245.837 76.9887 235.867 100.467 233.149 105.933C229.005 114.271 220.219 112.784 216.254 120.953C214.601 126.047 211.876 135.278 208.227 145.844L209.142 146.529C197.173 181.177 181.483 228.528 180.318 232.025C178.413 237.741 173.709 236.869 173.709 236.869L173.628 236.839L171.899 236.213L170.592 235.741L168.862 235.114L168.781 235.085C168.781 235.085 164.608 232.745 166.804 227.134Z" fill="#E0D8C7"/>
<path d="M167.129 227.134C168.471 223.701 186.722 177.277 199.702 142.995L200.844 143.055C204.805 132.594 207.997 124.503 209.987 119.532C212.129 110.73 201.313 103.237 203.749 96.5068C205.826 90.7678 214.813 65.9391 216.985 59.9362C217.756 57.808 219.979 58.6121 219.979 58.6121L234.49 63.8645L247.856 70.0007C247.856 70.0007 220.273 61.5473 219.504 63.6759C217.331 69.6792 209.737 91.365 207.66 97.104C205.22 103.843 216.731 110.677 212.766 118.845C211.113 123.94 202.263 145.207 202.263 145.207L209.466 146.529C197.498 181.177 181.808 228.528 180.643 232.025C178.738 237.741 174.034 236.869 174.034 236.869L173.953 236.839L172.223 236.213L170.917 235.741L169.187 235.114L169.106 235.085C169.106 235.085 164.933 232.745 167.129 227.134Z" fill="white"/>
<path d="M206.881 146.257L207.152 145.473C210.805 134.898 213.529 126.641 215.172 121.576L215.231 121.43C217.477 116.804 222.313 114.948 226.579 113.31C230.388 111.848 233.677 110.586 234.679 107.819L247.915 71.2484C248.241 70.3479 247.565 69.9336 247.145 69.7706L219.278 59.6849C219.276 59.6837 219.022 59.5995 218.711 59.5995C218.2 59.5995 217.915 59.8093 217.729 60.3227L204.493 96.8938C203.491 99.6606 205.218 102.744 207.216 106.315C209.448 110.302 211.979 114.822 210.767 119.801L210.718 119.954C208.736 124.903 205.542 132.998 201.582 143.457L201.288 144.232L200.147 144.173C192.428 164.542 181.197 193.555 168.465 226.011L167.862 227.547C166.187 231.83 168.739 233.717 169.273 234.054L173.984 235.759C174.064 235.768 174.203 235.78 174.385 235.78C175.686 235.78 178.048 235.245 179.24 231.666L179.785 230.024C190.778 196.933 200.708 167.479 207.797 146.942L206.881 146.257ZM173.502 237.986L168.473 236.182L168.225 236.076C166.484 235.099 163.724 231.886 165.746 226.719L166.348 225.181C179.24 192.32 190.592 162.99 198.315 142.593L198.608 141.817L199.75 141.876C203.56 131.829 206.638 124.028 208.577 119.187C209.531 115.104 207.346 111.201 205.233 107.425C203.056 103.537 201.001 99.8639 202.355 96.1201L215.592 59.5491C216.103 58.1368 217.24 57.3266 218.711 57.3266C219.406 57.3266 219.941 57.5071 220.041 57.5433L247.918 67.6331C249.241 68.112 250.901 69.6759 250.052 72.0216L236.816 108.593C235.462 112.336 231.542 113.84 227.393 115.433C223.356 116.983 219.181 118.585 217.31 122.355C215.703 127.308 213.076 135.268 209.571 145.431L210.487 146.116L210.216 146.9C203.114 167.459 193.073 197.234 181.942 230.741L181.396 232.384C179.692 237.5 175.926 238.053 174.385 238.053C173.887 238.053 173.562 237.997 173.502 237.986Z" fill="#201600"/>
<path d="M216.715 104.796C216.36 105.778 216.868 106.862 217.849 107.217C218.83 107.572 219.914 107.064 220.27 106.083L232.733 71.6493C233.087 70.6683 232.579 69.5849 231.598 69.2296C230.617 68.8743 229.533 69.3821 229.178 70.3634L216.715 104.796Z" fill="#201600"/>
<path d="M226.188 104.196C225.833 105.177 226.341 106.261 227.323 106.616C228.303 106.971 229.387 106.463 229.742 105.482L239.995 77.1562C240.35 76.1749 239.842 75.0911 238.861 74.7361C237.88 74.3812 236.796 74.8886 236.441 75.87L226.188 104.196Z" fill="#201600"/>
<path d="M209.82 98.2719C209.466 99.2533 209.973 100.337 210.954 100.692C211.936 101.047 213.019 100.54 213.375 99.5582L223.627 71.2321C223.982 70.2507 223.475 69.1677 222.492 68.8124C221.512 68.4571 220.428 68.9644 220.073 69.9458L209.82 98.2719Z" fill="#201600"/>
<path d="M166.804 227.134C168.147 223.701 186.397 177.277 199.378 142.995L200.52 143.055C200.52 143.055 209.142 146.529 208.227 145.844L209.142 146.529C197.173 181.177 181.483 228.528 180.318 232.025C178.413 237.741 173.709 236.869 173.709 236.869L173.628 236.839L171.899 236.213L170.592 235.741L168.862 235.114L168.781 235.085C168.781 235.085 164.608 232.745 166.804 227.134Z" fill="#201600"/>
<path d="M170.085 227.227C168.588 231.112 170.622 231.918 170.622 231.918L200.799 145.939C200.799 145.939 171.582 223.343 170.085 227.227Z" fill="#E0D8C7"/>
<path d="M218.521 162.602C227.48 172.536 235.372 184.213 240.719 196.501C241.867 199.14 237.982 201.44 236.823 198.778C231.629 186.84 224.038 175.446 215.331 165.792C213.389 163.638 216.569 160.437 218.521 162.602Z" fill="#201600"/>
<path d="M185.619 242.603L191.348 249.435L220.959 290.679L228.277 293.769L241.341 297.151L253.995 292.751L260.369 278.562V263.002L255.187 247.981L242.964 242.764L227.059 243.985L200.381 233.48L195.966 223.791L201.448 198.313L186.416 183.565L179.594 185.001L173.002 188.099L171.729 190.208L172.609 193.23L175.668 193.719L178.172 191.725L184.253 193.239L184.865 196.443L183.04 195.968L175.975 195.87L170.332 198.104L170.304 201.69L168.487 204.39L168.708 209.926L166.492 213.704L168.071 217.165L172.98 214.577L176.416 216.875L178.006 232.441L181.746 234.885L185.619 242.603Z" fill="#F2B89C"/>
<path d="M227.059 243.985L227.036 243.976L232.504 243.556L232.516 243.566L227.059 243.985Z" fill="#FF3E1E"/>
<path d="M251.544 264.434C251.311 264.434 251.035 264.389 250.713 264.295C243.011 260.069 233.998 257.148 225.944 253.648C218.616 250.464 211.095 247.825 203.716 244.782C203.11 244.518 202.507 244.248 201.905 243.973C201.448 243.543 195.272 238.937 194.808 238.513C190.811 234.862 193.413 233.57 189.876 229.424C189.843 229.376 189.802 229.354 189.755 229.354C189.503 229.354 189.055 229.98 188.612 230.607C188.17 231.233 187.732 231.859 187.5 231.859C187.453 231.859 187.416 231.834 187.387 231.78C187.068 230.824 186.87 227.584 186.678 226.594C186.412 223.467 186.545 220.323 186.671 217.188C186.743 215.389 187.617 214.608 186.757 213.126C186.757 210.044 191 205.651 191.747 202.934C192.474 200.294 190.23 200.749 188.847 198.386C188.41 197.642 190.141 198.226 189.538 197.618C189.238 196.72 186.452 192.705 186.075 191.817C185.064 189.656 185.909 187.19 188.453 187.19C188.537 187.19 188.623 187.192 188.711 187.198C189.117 187.223 189.41 187.429 189.62 187.429C189.744 187.429 189.839 187.357 189.912 187.134L201.306 198.314L195.825 223.791L200.239 233.48L226.918 243.985L227.036 243.976L227.059 243.985L232.516 243.566L232.534 243.582C236.462 246.75 244.28 250.841 248.332 253.808C249.156 254.502 255.047 264.434 251.544 264.434Z" fill="#F8D7C7"/>
<path d="M200.029 235.057C197.419 234.246 194.788 230.132 193.901 228.687C193.257 227.639 194.122 225.845 195.165 225.234C196.243 224.603 198.839 223.029 198.591 224.231C198.252 225.884 198.323 227.824 198.491 228.053C198.136 227.571 198.691 228.253 198.789 228.355C198.981 228.555 199.19 228.739 199.401 228.917C198.963 228.549 199.394 228.905 199.483 228.968C199.621 229.066 202.257 231.085 202.401 231.174C203.447 231.816 201.352 231.252 200.721 232.33C200.11 233.372 201.158 234.016 200.11 233.372L200.029 235.057Z" fill="#201600"/>
<path d="M193.67 226.988C195.007 217.818 196.172 208.578 199.075 199.739C199.979 196.989 204.335 198.166 203.425 200.938C200.522 209.778 199.358 219.017 198.02 228.187C197.842 229.406 196.318 230.058 195.246 229.763C193.951 229.407 193.493 228.204 193.67 226.988Z" fill="#201600"/>
<path d="M199.525 201.164C199.479 200.9 199.424 200.64 199.36 200.379C199.327 200.255 199.29 200.131 199.25 200.008C199.064 199.413 199.906 200.713 199.64 200.156C199.531 199.926 199.979 199.985 199.833 199.777C199.985 199.978 198.745 200.859 198.797 200.603C199.102 199.118 197.383 197.375 197.223 197.242C196.279 196.453 197.493 196.401 198.304 195.591C199.232 194.663 200.782 194.16 201.725 194.947C203.049 196.053 203.852 198.175 203.55 200.27C203.55 200.27 202.593 203.03 202.3 202.738C201.491 201.935 199.74 202.375 199.525 201.164Z" fill="#201600"/>
<path d="M198.985 198.458C194.282 195.43 190.458 191.325 187.816 186.388C186.444 183.825 190.339 181.546 191.712 184.112C193.993 188.373 197.192 191.942 201.262 194.563C203.699 196.131 201.44 200.037 198.985 198.458Z" fill="#201600"/>
<path d="M188.628 187.816C186.924 186.498 182.513 185.691 179.329 186.749C176.561 187.67 175.383 183.312 178.13 182.4C182.483 180.952 186.519 181.033 190.615 183.108C193.21 184.422 191.44 188.508 188.851 187.198L188.628 187.816Z" fill="#201600"/>
<path d="M179.868 186.522C179.137 186.901 176.982 187.543 176.263 187.877C174.927 188.498 173.518 189.44 172.86 190.202C172.056 191.133 173.256 194.53 172.181 194.09C169.898 193.155 169.554 189.361 170.357 188.432C171.782 186.783 175.641 183.639 177.591 182.627C178.683 182.061 180.033 182.337 180.678 183.437C181.275 184.456 180.958 185.956 179.868 186.522Z" fill="#201600"/>
<path d="M237.721 194.901C239.016 194.545 240.028 195.341 240.496 196.477C245.155 207.791 249.663 219.142 253.711 230.669C251.967 229.852 250.174 229.274 248.312 228.906C244.541 218.394 240.405 208.02 236.146 197.676C235.677 196.537 236.645 195.197 237.721 194.901Z" fill="#201600"/>
<path d="M258.271 268.99C258.448 261.538 256.53 254.143 254.364 247.046C255.99 248.459 257.588 249.902 258.925 251.611C259.325 252.122 259.924 252.371 260.554 252.414C261.914 257.845 262.841 263.396 262.782 268.99C262.692 277.522 259.07 285.148 256.035 292.936C254.991 295.615 250.627 294.451 251.685 291.737C254.573 284.326 258.078 277.091 258.271 268.99Z" fill="#201600"/>
<path d="M255.698 293.541C252.971 297.036 246.622 299.262 241.432 299.842C240.207 299.979 239.669 298.867 239.669 297.741C239.669 296.408 240.082 295.452 241.302 295.315C245.241 294.875 250.285 293.527 252.319 290.131C253.811 287.643 257.15 290.055 254.993 292.016L255.698 293.541Z" fill="#201600"/>
<path d="M242.375 299.771C230.153 300.724 220.196 291.108 211.775 283.517C206.397 278.67 199.763 267.591 196.633 262.8C194.774 259.955 192.59 256.185 190.959 253.196C189.099 249.789 187.612 247.64 185.017 244.722C183.09 242.556 186.27 239.354 188.206 241.532C192.967 246.884 195.768 253.686 199.716 259.616C202.769 264.203 205.652 268.897 208.883 273.364C214.968 281.776 231.091 296.14 242.375 295.26C245.276 295.033 245.255 299.546 242.375 299.771Z" fill="#201600"/>
<path d="M248.473 253.808C238.927 247.145 212.315 240.167 199.749 234.942C198.615 234.47 197.817 233.466 198.175 232.168C198.469 231.094 199.811 230.12 200.949 230.592C214.308 236.148 238.258 242.371 248.473 253.808Z" fill="#201600"/>
<path d="M184.791 244.423C182.987 242.608 182.702 237.552 180.477 236.382C178.561 235.374 184.17 233.246 185.07 235.231C186.149 237.61 186.883 240.091 188.859 242.288C190.32 243.915 186.558 243.968 185.95 241.877L184.791 244.423Z" fill="#201600"/>
<path d="M183.122 237.439C181.09 236.687 179.115 235.799 177.144 234.903C176.304 234.522 176.107 233.323 176.536 232.589C177.038 231.734 178.012 231.601 178.851 231.982C180.558 232.758 182.263 233.526 184.021 234.176C186.049 234.927 185.172 238.198 183.122 237.439Z" fill="#201600"/>
<path d="M176.429 234.092C175.246 228.901 174.805 223.228 174.955 217.904C175.042 214.754 178.426 214.748 178.338 217.904C178.198 222.936 178.237 230.714 180.754 232.837C182.419 234.241 177.019 235.851 176.536 233.724L176.429 234.092Z" fill="#201600"/>
<path d="M174.927 218.487C174.729 217.241 174.154 216.786 172.246 215.649C170.374 214.533 172.075 211.283 173.954 212.403C175.609 213.39 177.295 213.655 179.123 214.286C181.172 214.993 178.57 218.165 178.311 219.016L174.927 218.487Z" fill="#201600"/>
<path d="M173.954 216.619C172.438 215.38 170.555 217.722 169.057 218.388C168.215 218.763 168.089 218.267 167.586 217.407C167.158 216.678 167.35 215.467 168.192 215.092C169.689 214.426 170.779 213.331 172.18 212.473C174.046 211.332 176.148 214.682 174.291 215.818L173.954 216.619Z" fill="#201600"/>
<path d="M178.841 193.767C181.61 194.363 184.546 195.893 187.269 196.67C188.241 196.948 189.21 196.587 190.177 196.887C191.561 197.315 190.97 199.493 189.578 199.061C185.904 197.923 181.147 196.016 177.618 196.142C176.165 196.194 177.611 193.654 179.03 193.959L178.841 193.767Z" fill="#201600"/>
<path d="M178.916 195.908C176.536 196.263 174.307 196.98 172.204 198.16C170.935 198.872 169.798 196.923 171.066 196.212C173.33 194.942 175.75 194.116 178.317 193.734C179.739 193.522 180.351 195.695 178.916 195.908Z" fill="#201600"/>
<path d="M172.649 197.918C171.522 198.742 170.403 200.406 171.593 201.669C172.592 202.729 170.164 203.283 169.245 202.161C167.851 200.459 169.108 197.636 170.88 196.34C172.056 195.48 174.351 196.065 173.191 196.914L172.649 197.918Z" fill="#201600"/>
<path d="M171.284 203.946C169.484 204.61 169.345 206.733 169.498 208.558C169.619 210.009 167.362 209.997 167.242 208.558C167.04 206.138 167.696 203.806 169.374 202.018C170.372 200.956 171.964 202.554 170.969 203.614L171.284 203.946Z" fill="#201600"/>
<path d="M170.628 204.24C169.318 204.848 168.171 202.903 169.489 202.292C171.788 201.227 174.168 200.091 176.628 199.489C176.843 199.437 177.037 199.448 177.21 199.498L177.201 199.49C179.783 199.938 182.436 201.695 184.879 202.598C185.807 202.941 186.724 202.669 187.631 203.081C188.953 203.681 187.806 205.624 186.493 205.028C183.442 203.643 180.083 202.689 176.783 202.102C174.672 202.64 172.608 203.322 170.628 204.24Z" fill="#201600"/>
<path d="M168.633 208.034C170.607 207.381 172.598 206.466 174.601 205.908C174.694 205.882 174.783 205.868 174.868 205.864V205.863C177.402 205.455 179.9 207.564 181.965 208.196C182.682 208.414 183.393 208.002 184.097 208.259C185.451 208.753 184.867 210.933 183.497 210.434C180.767 209.438 177.902 208.23 174.973 208.472C173.048 209.011 171.131 209.581 169.233 210.208C167.847 210.667 167.259 208.489 168.633 208.034Z" fill="#201600"/>
<path d="M169.682 209.915C168.666 211.286 168.052 212.819 167.921 214.526C167.811 215.967 165.555 215.977 165.666 214.526C165.826 212.433 166.478 210.472 167.734 208.777C168.59 207.623 170.549 208.746 169.682 209.915Z" fill="#201600"/>
<path d="M168.026 218.315C166.869 217.608 166.145 216.418 165.706 215.164C165.503 214.583 165.931 213.931 166.494 213.777C167.117 213.605 168.185 212.73 168.096 213.338C167.921 214.526 168.534 215.982 169.165 216.367C170.403 217.125 169.27 219.076 168.026 218.315Z" fill="#201600"/>
<path d="M184.512 196.855C183.943 195.711 183.409 194.548 182.71 193.476C181.914 192.253 183.868 191.124 184.657 192.338C185.356 193.41 186.216 195.221 186.784 196.365C187.429 197.663 185.159 198.157 184.512 196.855Z" fill="#201600"/>
<path d="M183.04 194.008C182.635 193.767 180.288 192.736 178.392 193.471C177.034 193.998 176.941 191.033 178.387 190.944C180.074 190.84 182.071 191.309 183.832 191.823C183.984 191.867 184.913 193.359 183.459 193.359L183.04 194.008Z" fill="#201600"/>
<path d="M178.961 193.092C177.039 194.427 174.852 194.809 172.574 194.332C171.151 194.034 172.178 189.745 172.484 191.163C172.766 192.469 176.401 192.132 177.822 191.145C179.02 190.313 180.146 192.269 178.961 193.092Z" fill="#201600"/>
<path d="M176.568 195.103H181.963L182.613 192.505L176.568 192.18V195.103Z" fill="#201600"/>
<path d="M227.079 242.343C225.297 241.973 223.527 241.521 221.742 241.216C222.002 240.958 222.358 240.761 222.823 240.665C233.82 238.42 246.373 240.089 256.113 245.799C260.227 248.212 263.796 251.656 265.444 256.206C267.225 261.124 265.519 266.453 262.717 270.608C261.099 273.005 257.189 270.75 258.822 268.331C261.136 264.899 262.432 261.101 260.997 257.135C259.697 253.546 256.135 250.959 252.914 249.168C245.931 245.285 237.181 243.672 229.037 244.316C228.9 243.402 228.289 242.595 227.079 242.343Z" fill="#201600"/>
<path d="M261.841 260.326C260.167 254.76 259.332 249.041 258.502 243.302C258.195 241.172 257.874 239.038 257.33 236.954C256.987 235.643 256.587 234.485 255.602 233.718C254.629 232.962 254.814 231.317 255.602 230.529C256.552 229.579 257.822 229.775 258.792 230.529C261.772 232.846 262.191 237.716 262.711 241.143C263.629 247.199 264.203 252.306 265.974 258.191C266.815 260.985 262.677 263.104 261.841 260.326Z" fill="#201600"/>
<path d="M211.707 237.797C210.14 237.301 208.61 236.753 207.053 236.32C214.418 230.513 224.287 226.786 233.573 224.984C243.318 223.094 251.093 224.348 258.791 230.529C259.752 231.299 259.59 232.92 258.791 233.718C257.852 234.658 256.56 234.487 255.602 233.718C252.466 230.666 244.149 226.16 235.761 227.904C228.426 229.428 218.878 233.461 212.251 238.028C212.086 237.938 211.906 237.86 211.707 237.797Z" fill="#201600"/>
<path d="M231.704 234.38C223.504 235.017 219.119 236.751 219.119 236.751C229.512 230.744 240.716 229.692 249.363 234.884C249.985 235.258 240.418 233.703 231.704 234.38Z" fill="#201600"/>
<path d="M87.8802 174.348C89.2946 164.918 92.1803 153.525 93.8182 144.13C94.0662 142.708 91.5684 141.775 91.3188 143.206C89.6808 152.601 87.8802 174.348 87.8802 174.348Z" fill="#201600"/>
<path d="M79.5296 252.581C75.8097 264.404 68.7944 280.994 64.5997 288.222C63.8679 289.483 65.3156 294.32 66.0803 293.086C72.7106 282.391 76.4199 268.759 79.5296 252.581Z" fill="#201600"/>
<path d="M66.6686 302.792C66.5124 298.348 69.1123 286.679 70.486 284.646L63.4561 287.8C63.4886 289.492 65.2827 302.131 66.6686 302.792Z" fill="#201600"/>
<path d="M199.442 287.8L193.109 285.419C194.143 287.608 194.682 294.262 193.948 296.344C196.225 296.252 199.417 289.088 199.442 287.8Z" fill="#201600"/>
<path d="M175.36 174.348C173.945 164.918 171.06 153.525 169.421 144.13C169.174 142.708 171.671 141.775 171.921 143.206C173.559 152.601 175.36 174.348 175.36 174.348Z" fill="#201600"/>
<path d="M196.846 290.965C197.397 289.742 199.1 289.014 198.64 288.222C194.446 280.994 187.43 264.404 183.711 252.581C186.697 268.118 190.244 281.298 196.392 291.793C196.982 291.998 196.264 290.742 196.846 290.965Z" fill="#201600"/>
<path d="M103.003 187.057C116.122 190.561 137.128 192.469 160.587 187.103C135.007 188.995 116.762 188 103.003 187.057Z" fill="#201600"/>
<path d="M63.4747 235.055C66.3376 231.785 68.8126 228.151 70.6469 224.206C71.8649 221.586 67.9772 219.294 66.7518 221.929C65.0805 225.525 62.8966 228.882 60.2849 231.865C58.3774 234.043 61.5546 237.247 63.4747 235.055Z" fill="#201600"/>
<path d="M69.3619 183.835C66.0367 175.987 62.9503 168.526 57.1156 161.551C56.122 160.363 58.5921 166.436 63.6235 176.256C64.3402 177.655 69.3619 183.835 69.3619 183.835Z" fill="#201600"/>
<path d="M62.3522 178.755C62.3522 178.755 58.4217 173.014 54.5583 169.987C54.5583 169.987 56.5898 173.688 59.1877 176.611C60.1565 177.7 63.3153 179.838 62.3522 178.755Z" fill="#201600"/>
<path d="M20.9862 292.026C24.8541 293.287 27.7147 292.415 31.3281 291.377C32.7236 290.976 27.5512 290.245 26.1506 290.648C22.9433 291.569 20.9862 292.026 20.9862 292.026Z" fill="#201600"/>
<path d="M197.237 183.835C200.562 175.987 203.649 168.526 209.483 161.551C210.477 160.363 208.007 166.436 202.975 176.256C202.258 177.655 197.237 183.835 197.237 183.835Z" fill="#201600"/>
<path d="M204.246 178.755C204.246 178.755 208.178 173.014 212.04 169.987C212.04 169.987 210.009 173.688 207.411 176.611C206.443 177.7 203.283 179.838 204.246 178.755Z" fill="#201600"/>
<path d="M245.612 292.026C241.745 293.287 238.885 292.415 235.271 291.377C233.875 290.976 239.047 290.245 240.448 290.648C243.655 291.569 245.612 292.026 245.612 292.026Z" fill="#201600"/>
<path d="M75.5702 213.119C73.9692 211.425 73.6103 208.232 74.7071 206.358C74.9364 205.965 74.6356 205.544 74.2201 205.51C72.1268 205.335 71.5999 202.934 71.5999 202.934C71.5365 204.426 72.0658 205.914 73.3875 206.443C72.4508 208.388 72.3528 210.458 73.646 212.349C74.4994 213.596 76.117 214.876 77.6842 214.972C77.6842 214.972 76.2463 213.835 75.5702 213.119Z" fill="#201600"/>
<path d="M70.973 199.591C70.9433 199.529 70.9364 199.521 70.9531 199.566C70.9384 199.529 70.9262 199.491 70.9153 199.453C70.8746 199.322 70.8905 199.39 70.8872 199.253C70.8705 198.527 69.7428 198.526 69.7595 199.253C69.7741 199.907 70.103 200.51 70.688 200.823C71.3291 201.165 71.0543 199.726 70.973 199.591Z" fill="#201600"/>
<path d="M190.481 213.119C192.081 211.425 192.44 208.232 191.344 206.358C191.114 205.965 191.415 205.544 191.83 205.51C193.924 205.335 194.451 202.934 194.451 202.934C194.514 204.426 193.985 205.914 192.662 206.443C193.6 208.388 193.698 210.458 192.404 212.349C191.552 213.596 189.933 214.876 188.366 214.972C188.366 214.972 189.805 213.835 190.481 213.119Z" fill="#201600"/>
<path d="M195.078 199.591C195.107 199.529 195.114 199.521 195.098 199.566C195.112 199.529 195.124 199.491 195.135 199.453C195.176 199.322 195.161 199.39 195.164 199.253C195.18 198.527 196.308 198.526 196.291 199.253C196.276 199.907 195.947 200.51 195.362 200.823C194.722 201.165 194.996 199.726 195.078 199.591Z" fill="#201600"/>
<path d="M72.9918 236.502C73.3448 236.593 73.3456 236.594 72.9918 236.502V236.502Z" fill="#201600"/>
<path d="M73.4855 223.966C73.2989 223.699 72.9123 223.865 72.97 224.183C73.6672 228.01 74.3713 231.847 75.3349 235.618C75.0015 235.326 74.6661 235.038 74.3368 234.744C74.0916 234.526 72.1203 232.249 71.9431 232.27C69.4623 232.564 71.2544 236.273 72.9919 236.502C70.8808 236.224 70.3543 233.034 71.7069 232.564C71.7069 232.564 73.3578 234.003 73.6221 234.256C74.4848 235.084 74.7726 235.829 75.6406 236.648C75.8442 236.841 76.1862 236.651 76.1118 236.374C75.1373 232.736 73.9347 228.363 73.2558 224.659C74.8763 226.968 76.9976 229.949 78.3567 232.41C76.787 229.568 75.3454 226.634 73.4855 223.966Z" fill="#201600"/>
<path d="M78.3566 232.409C78.5328 232.729 78.5332 232.729 78.3566 232.409V232.409Z" fill="#201600"/>
<path d="M190.07 227.173C190.997 225.914 191.742 224.536 192.668 223.277C192.884 222.983 191.167 224.783 190.68 225.548C190.328 226.1 189.857 227.463 190.07 227.173Z" fill="#201600"/>
<path d="M187.679 233.976C187.441 234.204 187.744 234.567 188.02 234.419C190.284 233.21 192.852 232.894 195.165 231.821C195.495 231.668 190 232.723 187.736 233.932C187.85 234.08 187.964 234.227 188.078 234.375C190.928 231.66 192.722 224.352 192.668 224.576C192.584 224.929 190.468 231.319 187.679 233.976Z" fill="#201600"/>
<path d="M159.217 135.678C159.795 134.363 160.645 132.98 161.49 131.561C159.634 128.744 159.265 125.145 160.406 121.831C160.561 120.463 160.774 119.104 161.18 117.787C161.51 116.712 161.811 115.662 161.972 114.546C161.845 115.496 161.717 116.445 161.589 117.395C161.965 114.461 162.476 111.732 163.202 108.885C163.608 107.295 163.983 105.703 164.268 104.089C164.453 102.278 164.571 100.445 164.596 98.6399C164.63 96.2316 165.456 93.9883 166.827 92.1825C166.635 91.6105 166.403 91.0276 166.191 90.4608C165.77 86.9894 164.86 86.7114 165.989 81.176C166.098 80.6219 166.24 79.9361 166.312 79.2454C165.082 79.3803 163.846 79.5104 162.612 79.6552C159.114 80.1747 159.487 76.5866 159.976 72.9986C160.489 69.2308 161.13 65.4626 157.548 66.4517C150.941 68.2754 124.559 71.4094 118.185 73.9621C113.036 76.2517 101.896 85.1657 97.3645 88.518C94.3703 90.9552 93.6719 102.068 98.8935 107.005C99.6765 107.369 100.469 107.716 101.224 108.138C102.419 108.807 103.262 109.708 104.109 110.617C104.497 111.634 104.849 112.453 104.849 112.453C105.267 112.547 105.764 113.194 106.279 114.125C106.171 117.443 105.037 122.293 104.215 126.329C107.418 128.878 107.331 133.116 107.475 137.265C108.695 138.087 110.977 141.135 112.184 141.974C115.503 144.283 115.328 144.073 117.705 146.926C117.631 146.829 117.384 147.15 117.137 147.47C116.89 147.791 116.643 148.112 116.568 148.015C116.886 148.416 119.843 148.392 120.16 148.794C120.074 148.688 120.337 148.835 120.599 148.982C120.859 149.128 121.117 149.274 121.033 149.173C122.503 151.123 123.828 150.458 125.21 152.446C125.526 152.52 125.844 152.585 126.163 152.647C129.496 152.823 132.218 154.55 135.535 154.122C138.469 153.596 141.959 150.786 144.736 149.721C147.228 148.499 149.609 147.084 151.916 145.529C154.805 143.581 157.426 141.187 160.538 139.586C160.632 139.537 160.732 139.486 160.829 139.437C161.641 137.785 158.875 136.457 159.217 135.678Z" fill="#F2B89C"/>
<path d="M144.34 115.626L156.937 115.469L156.87 110.032L144.273 110.189L140.898 114.036L144.34 115.626Z" fill="#E0D8C7"/>
<path d="M165.666 15.9459L165.675 15.967C165.6 15.4264 165.524 14.8861 165.451 14.3446L165.45 14.3438C165.522 14.8779 165.594 15.4117 165.666 15.9459Z" fill="#E0D8C7"/>
<path d="M161.306 67.5612C161.263 67.3815 161.213 67.2058 161.159 67.0318C159.729 64.0524 158.098 60.9245 158.325 57.5681C158.569 53.9679 159.541 51.277 161.913 48.5069C162.627 47.6743 163.516 47.0137 164.42 46.3742C164.63 46.177 164.833 45.9742 165.032 45.7664C165.153 45.5681 165.269 45.366 165.381 45.1619C166.003 43.2414 166.368 41.2258 166.664 39.2192C167.313 33.8212 167.331 28.4277 166.693 23.0306C166.399 20.9934 166.096 18.9583 165.806 16.92L165.795 16.9106L165.809 17.009L165.79 16.9066L165.681 16.8118C163.783 15.5479 161.742 14.5511 159.641 13.6478C160.495 14.0084 161.348 14.3681 162.201 14.7283C155.452 11.8814 148.788 8.84415 142.056 5.96385C136.872 3.83971 131.564 2.04486 126.034 1.11674C122.765 0.794357 119.493 0.804527 116.216 1.17081C115.955 1.20008 115.689 1.20578 115.422 1.20009C114.571 2.42538 113.46 3.48279 112.099 4.25398C108.949 6.0403 105.549 7.46072 102.119 8.61244C100.002 9.32346 97.8329 9.87594 95.7351 10.6362C91.6965 12.557 87.7771 15.0812 84.145 17.7103C83.8637 17.9583 83.5925 18.2156 83.3291 18.4811C82.5371 19.8734 82.0245 21.3573 81.1687 22.7509C80.069 24.5421 78.6868 26.0755 77.0829 27.2667C76.9219 27.559 76.7431 27.8448 76.5406 28.1212C72.0097 34.314 67.9991 40.9128 64.8757 47.9284C63.3775 51.6896 62.1758 55.5595 61.4896 59.5528C61.3631 60.8326 61.3034 62.1197 61.3599 63.4023C61.4904 63.9715 61.6489 64.5329 61.8335 65.0874C62.2652 65.9244 62.7503 66.7282 63.28 67.5079C64.3305 68.7198 65.4753 69.8373 66.6998 70.8744C68.4545 72.1119 70.3067 73.1908 72.2475 74.1104C73.9339 74.7397 75.6584 75.2402 77.4257 75.5813C77.9416 75.6187 78.4587 75.6406 78.9782 75.6455C83.0107 75.6825 86.5818 77.9729 88.4076 81.3228C88.7288 81.5834 89.0125 81.822 89.2117 81.983C90.0822 82.6867 90.8611 83.6319 91.3103 84.6462C92.2572 86.7842 92.9706 88.1517 92.8918 90.5832L92.8902 90.6267C97.145 87.8306 102.375 87.0447 107.206 88.242C107.984 88.1977 108.769 88.2082 109.556 88.2428C109.8 87.6062 110.069 86.9752 110.38 86.3565C114.879 77.4217 124.62 73.0103 133.631 70.1105C142.673 67.2022 152.507 68.2084 161.732 69.343C161.804 69.3519 161.876 69.3666 161.948 69.3767C161.678 68.8027 161.459 68.1978 161.306 67.5612Z" fill="#E0D8C7"/>
<path d="M166.693 23.0306C166.399 20.9934 166.096 18.9583 165.806 16.92L165.795 16.9106L165.809 17.009L165.79 16.9066L165.681 16.8118C163.783 15.5479 161.742 14.5511 159.641 13.6478C160.495 14.0084 161.348 14.3681 162.201 14.7283C155.452 11.8814 148.788 8.84415 142.056 5.96385C136.872 3.83971 131.564 2.04486 126.034 1.11674C122.765 0.794357 119.493 0.804527 116.216 1.17081C115.955 1.20008 115.689 1.20578 115.422 1.20009C114.571 2.42538 113.46 3.48279 112.099 4.25398C108.949 6.0403 105.549 7.46072 102.119 8.61244C100.002 9.32346 97.8329 9.87594 95.7351 10.6362C91.6965 12.557 87.7771 15.0812 84.145 17.7103C83.8637 17.9583 83.5925 18.2156 83.3291 18.4811C82.5371 19.8734 82.0245 21.3573 81.1687 22.7509C80.069 24.5421 78.6868 26.0755 77.0829 27.2667C76.9219 27.559 76.7431 27.8448 76.5406 28.1212C72.0097 34.314 67.9991 40.9128 64.8757 47.9284C63.3775 51.6896 62.1758 55.5595 61.4896 59.5528C61.3631 60.8326 61.3034 62.1197 61.3599 63.4023C61.4904 63.9715 61.6489 64.5329 61.8335 65.0874C62.2652 65.9244 62.7503 66.7282 63.28 67.5079C64.3305 68.7198 65.4753 69.8373 66.6998 70.8744C68.4545 72.1119 70.3067 73.1908 72.2475 74.1104C73.9339 74.7397 75.6584 75.2402 77.4257 75.5813C77.9416 75.6187 78.4587 75.6406 78.9782 75.6455C83.0107 75.6825 86.5818 77.9729 88.4076 81.3228C88.7288 81.5834 89.0125 81.822 89.2117 81.983C90.0822 82.6867 90.8611 83.6319 91.3103 84.6462C92.2572 86.7842 92.9706 88.1517 92.8918 90.5832L92.8902 90.6267C95.8652 88.6717 99.3172 87.7029 102.776 87.7041C101.719 85.3458 101.36 88.6042 100.452 86.1837C100.311 85.8983 100.713 88.1168 100.556 87.8403C98.4801 86.3898 95.9547 76.098 95.2737 73.623C94.7635 71.7237 94.7635 69.8247 95.2737 67.9254C95.5855 67.179 95.8661 66.5273 96.1478 65.9269C92.9763 67.264 81.1508 65.3931 77.6793 64.2792C70.9023 62.1055 69.7229 56.107 74.1184 50.5213C77.1968 46.6096 86.8225 54.5984 84.5792 50.1509C81.7183 44.4794 78.44 32.5756 84.5792 28.72C88.0372 26.5483 101.236 17.7521 105.003 16.1902C108.24 14.8475 111.63 13.7177 115.115 13.2469C117.952 12.8636 120.87 12.5318 123.748 12.6855C124.612 12.3932 131.032 18.1323 131.931 18.0034C135.138 17.544 130.504 7.77212 133.703 8.42339C135.789 8.84821 139.901 13.9332 141.314 15.5597C142.527 16.957 143.202 18.2127 143.85 19.6836C143.752 19.451 143.654 19.2185 143.556 18.986C145.032 22.2757 144.34 29.8022 144.944 33.4289C145.75 38.2634 148.824 45.129 152.142 48.0422C153.694 49.4045 145.963 46.5104 144.469 47.8101C144.481 48.1186 144.493 48.4272 144.514 48.7354L144.52 48.7654C144.87 50.4115 144.883 52.0698 144.585 53.6353C144.944 54.4114 145.22 55.1895 145.418 55.9672C146.904 59.6736 147.472 63.6064 146.144 67.5311C146.066 67.764 145.984 67.9941 145.9 68.223C151.204 68.1124 156.563 68.7072 161.732 69.343C161.804 69.3519 161.876 69.3666 161.948 69.3767C161.678 68.8027 161.459 68.1978 161.306 67.5612C161.263 67.3815 161.213 67.2058 161.159 67.0318C159.729 64.0524 158.098 60.9245 158.325 57.5681C158.569 53.9679 159.541 51.277 161.913 48.5069C162.627 47.6743 163.516 47.0137 164.42 46.3742C164.63 46.177 164.833 45.9742 165.032 45.7664C165.153 45.5681 165.269 45.366 165.381 45.1619C166.003 43.2414 166.368 41.2258 166.664 39.2192C167.313 33.8212 167.331 28.4277 166.693 23.0306Z" fill="white"/>
<path d="M165.989 81.176C164.86 86.7114 165.77 86.9894 166.191 90.4621C166.474 92.7972 163.438 89.7823 160.788 88.9148C160.788 88.9148 161.091 86.2292 161.383 84.6019C161.516 83.8555 158.122 82.1021 158.207 81.3598C158.276 80.7414 163.918 81.6516 163.95 81.0504C163.958 80.8983 164.172 80.8109 164.254 80.9634L165.989 81.176Z" fill="#201600"/>
<path d="M164.578 84.7112C164.015 83.8083 163.727 82.6655 163.44 81.6467C163.107 80.4617 162.603 79.3482 162.948 78.1139C163.29 76.8903 165.424 75.6938 166.06 76.9391C166.642 78.077 166.23 79.9498 165.989 81.176C165.757 82.3541 164.185 85.6267 163.629 86.7081C163.526 86.9093 164.69 84.8913 164.578 84.7112Z" fill="#201600"/>
<path d="M159.352 70.4137L159.354 70.4238C159.975 73.3692 160.622 77.1723 163.494 78.6281C164.466 79.1204 166.222 78.5667 166.178 77.6646C166.067 75.4112 163.58 73.3318 162.971 71.1133C161.744 71.0235 160.53 70.7966 159.352 70.4137Z" fill="#201600"/>
<path d="M160.472 130.424C162.092 123.71 166.283 103.114 162.286 96.1116C160.973 93.8106 166.252 90.8022 167.025 93.3606C170.003 103.229 163.305 120.46 160.988 129.841C160.932 130.07 161.129 128.741 161.129 128.741L160.472 130.424Z" fill="#201600"/>
<path d="M165.692 88.8542C166.007 90.4108 167.389 93.5989 167.453 95.1803C167.549 97.5329 159.695 97.6549 161.101 95.8531C162.645 93.8786 163.14 90.1234 161.254 89.1526C160.644 88.8379 164.921 88.6977 165.06 89.3746L165.692 88.8542Z" fill="#201600"/>
<path d="M156.902 145.982C156.559 146.421 154.994 146.686 152.983 148.058C151.571 149.021 146.531 151.597 144.928 152.299C142.94 153.172 142.193 153.843 141.799 154.376C140.925 153.875 139.996 153.467 139.036 153.163C139.528 152.754 140.076 152.308 140.291 152.135C140.505 147.07 147.365 139.892 147.655 139.586C148.551 138.636 150.217 139.34 151.9 140.043C153.533 140.725 155.182 141.407 156.158 140.581C158.425 138.664 158.46 136.359 159.801 133.039C161.926 127.786 162.562 120.703 164.075 115.311C164.115 115.171 165.611 115.164 165.576 115.311C164.123 121.287 161.868 129.868 159.315 135.678C158.537 137.45 159.647 142.465 156.902 145.982Z" fill="#201600"/>
<path d="M138.727 136.326C139.577 137.044 145.402 136.242 150.805 135.486C153.418 135.12 155.414 132.283 157.058 129.392C157.497 128.621 157.318 129.187 157.217 129.754C157.124 130.283 157.1 130.81 157.707 130.258C158.426 129.603 159.096 129.587 159.181 130.536C159.572 134.953 156.744 141.047 152.73 141.457C148.329 141.905 146.971 144.978 145.49 141.344C145.278 140.824 146.841 140.475 146.841 140.475C142.185 137.737 138.727 136.326 138.727 136.326Z" fill="#201600"/>
<path d="M162.117 114.14C162.117 114.14 160.183 124.65 160.531 126.016C160.859 127.301 159.047 129.217 159.181 130.536C159.248 131.193 158.653 131.337 158.158 131.692C157.702 132.018 157.334 133.571 156.804 133.43C156.24 133.28 154.043 134.152 154.405 133.654C154.405 133.654 156.382 131.17 157.058 129.392C158.479 125.657 155.592 124.819 153.319 123.652C153.08 123.53 153.885 122.474 154.976 121.226C155.622 120.486 154.282 116.119 154.235 115.927L162.117 114.14Z" fill="#201600"/>
<path d="M146.534 103.829C146.666 103.102 144.004 103.492 144.61 103.139C145.426 102.662 156.566 100.939 157.519 100.92C158.665 100.898 153.623 103.145 152.804 103.75C152.115 104.259 150.353 104.067 149.52 104.223C148.811 104.355 148.108 104.443 147.47 104.034C147.409 103.995 147.385 103.934 147.398 103.863L146.534 103.829Z" fill="#201600"/>
<path d="M153.58 104.751C153.545 104.114 154.151 103.736 154.626 103.432C155.538 102.85 156.226 102.095 156.96 101.31C157.747 100.466 159.176 100.668 159.759 101.635C160.327 102.578 159.858 104.003 158.728 104.262C157.583 104.525 156.454 104.7 155.328 105.04C154.984 105.142 153.621 105.473 153.58 104.751Z" fill="#201600"/>
<path d="M151.471 86.597C154.979 90.8489 158.631 96.1196 160.033 101.513C160.665 103.947 153.501 102.269 155.838 101.648C159.147 100.77 156.317 96.6258 154.898 93.6695C153.804 91.3949 151.845 89.115 151.417 86.6287L151.471 86.597Z" fill="#201600"/>
<path d="M154.006 81.9277C156.091 78.8953 159.736 77.4367 163.326 77.5501C165.954 77.633 166.02 81.7073 163.378 81.6402C160.283 81.5626 157.346 81.6394 154.343 82.3549C154.113 82.409 153.85 82.1553 154.006 81.9277Z" fill="#201600"/>
<path d="M145.799 83.0273C141.331 80.9121 135.494 81.878 131.096 83.509C127.343 84.9006 125.368 86.1836 125.368 86.1836C127.129 81.1352 130.32 79.9925 134.023 79.1261C147.005 76.0918 145.799 83.0273 145.986 82.8338C146.092 82.726 145.916 83.0829 145.799 83.0273Z" fill="#201600"/>
<path d="M146.024 99.0127C144.603 102.471 146.945 102.876 146.945 102.876C148.885 102.307 145.459 106.403 144.092 104.933C143.439 104.231 142.848 107.018 142.418 106.162C142.083 105.495 137.014 108.509 137.003 107.691C136.957 104.479 142.841 100.273 143.387 99.8315C144.115 99.2432 144.899 98.8806 145.797 98.6334C146.015 98.5732 146.186 98.8477 146.024 99.0127Z" fill="#201600"/>
<path d="M145.151 103.905C147.51 102.175 150.993 101.545 153.864 101.512C154.687 101.503 156.062 101.945 156.96 101.31C157.278 101.084 155.947 103.684 155.863 104.071C155.684 104.911 154.783 105.64 153.915 105.594C151.116 105.445 147.981 105.45 145.268 104.719C144.87 104.612 144.849 104.126 145.151 103.905Z" fill="#201600"/>
<path d="M150.14 108.897C144.229 113.994 133.799 122.395 126.538 106.639C126.538 106.639 129.047 107.745 129.94 108.867C132.66 112.286 136.155 113.462 140.491 112.164C144.018 111.108 145.596 110.103 148.913 108.523L150.14 108.897Z" fill="#201600"/>
<path d="M148.86 104.856C141.772 107.998 131.87 114.386 126.538 106.639C130.936 109.028 138.595 107.671 143.634 104.395C145.852 102.954 142.348 104.95 146.746 104.075C146.906 104.043 147.518 104.475 147.404 104.593L148.86 104.856Z" fill="#201600"/>
<path d="M154.019 111.594C153.993 112.676 154.585 112.428 153.716 112.521C152.33 112.669 146.555 112.875 145.365 112.051C144.305 111.317 146.57 109.669 148.136 109.785C149.423 109.881 150.684 110.345 151.961 110.562C152.545 110.66 154.041 110.675 154.019 111.594Z" fill="#201600"/>
<path d="M142.744 113.936C142.744 113.936 147.917 114.846 150.264 114.825C152.503 114.805 156.776 113.092 156.776 113.092C157.25 113.433 160.07 114.842 159.84 115.464C158.046 120.332 143.021 117.617 140.526 114.642C140.279 114.348 143.057 113.885 143.54 113.926L142.744 113.936Z" fill="#201600"/>
<path d="M148.275 121.195C148.275 121.195 153.519 120.462 157.246 120.243C159.006 120.139 156.573 119.523 157.638 119.237C157.638 119.237 158.131 129.569 157.435 127.627C156.167 124.093 149.833 124.877 148.285 121.99C148.285 121.99 147.839 121.516 148.275 121.195Z" fill="#201600"/>
<path d="M151.074 111.314C150.963 111.281 150.851 111.266 150.743 111.222C150.627 111.176 150.101 111.14 150.566 111.175C150.396 111.181 150.429 111.169 150.668 111.139C150.595 111.153 150.523 111.174 150.452 111.198C150.037 111.325 149.675 111.312 149.246 111.257C148.073 111.114 142.103 113.495 142.943 112.803C148.121 108.542 149.616 106.969 153.225 109.519C153.97 110.045 152.548 109.699 152.42 110.527C152.33 111.108 151.606 111.473 151.074 111.314Z" fill="#201600"/>
<path d="M109.847 123.276C109.847 123.276 106.635 112.855 104.849 112.453C104.849 112.453 101.876 105.536 103.702 106.925C105.234 108.089 107.543 110.542 108.329 110.712C109.169 110.895 109.989 110.773 110.764 111.234C111.049 111.404 111.135 111.81 110.986 112.114L109.847 123.276Z" fill="#201600"/>
<path d="M107.913 90.8954C106.046 89.9359 103.597 88.6062 101.416 88.5903C98.9773 88.5732 97.617 90.6917 96.7064 93.0911C95.9693 95.0319 93.1833 93.4699 93.7463 91.4653C94.6505 88.2419 97.1076 85.1083 100.965 85.4385C103.905 85.6893 107.945 86.1983 108.935 88.9725C109.025 89.2229 110.016 90.1246 109.807 90.016L107.913 90.8954Z" fill="#201600"/>
<path d="M104.849 112.453C103.111 111.081 103.246 109.268 101.224 108.138C99.4826 107.165 97.532 106.592 95.9867 105.281C93.3222 103.019 91.6611 98.7058 93.878 90.9902C94.0361 90.4393 97.5978 90.8365 97.3458 91.3755C95.683 94.9315 96.3046 98.2094 96.8884 100.41C97.4791 102.629 99.7233 103.715 101.559 104.733C104.182 106.19 107.572 108.844 106.652 112.256C106.568 112.564 106.222 112.617 105.995 112.438L104.849 112.453Z" fill="#201600"/>
<path d="M99.1383 100.6C98.4846 99.3103 96.6848 97.2935 97.2251 95.8902C97.363 95.5316 97.7232 92.9436 99.3843 91.7459C101.039 90.5532 104.652 92.672 102.674 92.4334C98.7497 91.961 98.9464 98.2192 99.1932 100.711C99.2074 100.843 99.1932 100.711 99.1383 100.6Z" fill="#201600"/>
<path d="M135.497 135.619C135.497 135.619 122.932 132.788 119.221 129.86C116.27 127.53 111.923 115.302 112.673 116.055C112.673 116.055 117.338 122.429 120.431 125.896C121.964 127.611 126.853 131.799 135.497 135.619C135.612 135.675 135.419 135.717 135.497 135.619Z" fill="#201600"/>
<path d="M108.804 139.856C108.804 139.856 104.327 136.462 103.451 133.003C102.674 129.937 107.252 116.366 106.104 111.759C105.546 109.518 109.928 111.712 109.928 111.712C110.715 116.889 108.736 134.382 108.783 138.133C108.786 138.402 108.837 138.386 108.783 138.133L108.804 139.856Z" fill="#201600"/>
<path d="M114.491 85.7431C117.106 84.695 118 80.698 118.185 77.2737C117.493 77.8347 116.758 78.3246 115.985 78.7202C113.72 79.8792 112.26 82.0667 109.767 82.6074C108.07 82.9754 107.24 87.5838 105.736 87.7001C107.235 89.8499 109.834 93.4749 110.608 96.1987C111.384 98.9233 115.079 96.0129 115.079 96.0129C114.75 91.9695 113.831 86.0069 114.491 85.7431Z" fill="#201600"/>
<path d="M162.641 81.674C160.494 83.7445 154.096 84.5685 153.881 87.5696C153.671 90.4958 149.218 85.9446 151.768 83.4542C152.112 83.1184 152.474 81.1744 152.886 80.8211C155.346 78.7132 161.138 75.9187 164.21 77.0635C165.157 77.4164 163.475 80.8699 162.641 81.674Z" fill="#201600"/>
<path d="M158.9 102.327L158.784 116.185L158.575 118.779L158.923 123.547L157.822 132.302L149.922 137.903L144.111 138.49L151.307 141.471L148.724 145.977L152.024 144.679L155.446 143.311L159.59 135.52L163.473 122.018L165.047 100.694L162.251 89.5578C162.251 89.5578 159.314 84.0382 157.483 84.6993C155.653 85.3615 152.867 88.7036 152.867 88.7036L158.9 102.327Z" fill="#201600"/>
<path d="M150.773 108.282C156.307 110.229 164.105 116.697 168.652 108.968L171.676 107.257C170.653 113.14 166.331 117.155 162.005 116.478C158.089 115.864 152.205 112.76 150.145 109.368C150.015 109.151 149.441 108.983 149.702 109.074L150.773 108.282Z" fill="#201600"/>
<path d="M170.612 109.908C167.536 110.277 163.369 109.985 160.414 109.001C157.505 108.032 154.192 105.594 151.655 105.625C150.678 105.638 154.584 102.193 155.495 102.339C157.574 102.674 159.112 103.906 160.843 105.054C163.143 106.577 167.958 109.13 171.676 107.257C171.85 107.169 170.787 109.887 170.612 109.908Z" fill="#201600"/>
<path d="M138.703 86.722L139.477 86.5931L140.626 88.4392L142.895 88.9771C144.472 88.3189 144.385 88.3319 145.513 87.3867C146.64 86.4419 145.986 82.8339 145.986 82.8339L140.999 81.0984L131.002 82.005L125.368 86.1838C125.368 86.1838 125.876 87.3156 126.641 86.9119C128.154 86.1114 130.724 83.5531 132.724 84.1112C134.991 84.7434 138.703 86.722 138.703 86.722Z" fill="#201600"/>
<path d="M157.566 113.497L167.083 113.378L168.989 109.356L153.149 105.061L150.316 104.213C150.316 104.213 144.863 106.081 137.012 108.455C132.499 109.819 128.659 109.186 128.659 109.186L134.998 114.786L141.463 113.5L149.117 110.861L157.566 113.497Z" fill="#201600"/>
<path d="M156.186 68.9397C155.427 69.058 154.675 69.1738 154.359 69.2295C153.981 69.2966 153.627 69.3498 153.261 69.41C153.816 70.8203 153.777 69.1636 153.955 69.7291C154.6 71.7785 153.575 67.5818 155.402 69.0624C155.714 69.3157 158.219 79.9413 158.577 80.1881C159.355 80.7291 161.187 77.0171 161.672 78.5509C162.203 80.2381 161.346 75.7877 160.306 70.6869C158.876 70.3255 157.488 69.7523 156.186 68.9397Z" fill="#201600"/>
<path d="M106.417 104.331C103.547 104.662 101.427 98.4163 101.515 96.0519C101.563 94.7518 104.018 93.8017 105.369 93.7847C105.369 93.7847 105.079 95.9751 104.937 97.2723C104.817 98.3602 106.722 101.023 106.788 102.124L106.417 104.331Z" fill="#201600"/>
<path d="M160.348 83.6453C161.68 83.5754 162.835 85.1592 162.606 85.2178C162.606 85.2178 161.446 84.7336 160.732 84.5084C159.848 84.2311 157.77 84.1705 157.77 84.1705L157.554 84.2657L160.348 83.6453Z" fill="#F2B89C"/>
<path d="M142.412 150.755L139.598 153.354C138.582 152.984 137.523 152.732 136.449 152.613L140.301 144.129L144.53 140.944L138.727 136.326L149.309 140.643L147.263 145.519L147.062 145.998L142.412 150.755Z" fill="#201600"/>
<path d="M130.279 90.6152L129.967 89.9758C130.634 87.263 132.485 85.1986 136.865 84.488L140.999 81.0983L142.474 87.2288C142.519 87.2764 142.559 87.3256 142.609 87.3723C142.682 87.4426 142.637 87.5459 142.557 87.5732L142.624 87.8541L142.888 88.3935C142.888 88.3935 142.821 88.3395 142.724 88.2679L142.895 88.9769C142.895 88.9769 134.878 89.0777 130.279 90.6152Z" fill="#201600"/>
<path d="M165.604 90.1733L165.899 89.5257C165.165 86.8308 165.136 81.7821 160.739 81.1804L154.647 80.9275L153.326 87.093C153.283 87.1418 153.245 87.1914 153.196 87.2398C153.124 87.3117 153.172 87.4134 153.253 87.4394L153.193 87.7215L152.943 88.2679C152.943 88.2679 153.009 88.2118 153.103 88.1378L152.95 88.8513C152.95 88.8513 160.967 88.7509 165.604 90.1733Z" fill="#201600"/>
<path d="M159.53 147.977C158.238 147.757 157.272 146.286 156.656 145.237C155.799 143.784 154.908 142.396 153.962 141C152.707 139.149 153.527 136.481 155.362 135.374C157.118 134.315 156.282 136.014 157.22 138.043C157.22 138.043 162.725 141.173 162.752 143.504C162.774 145.361 161.942 148.388 159.53 147.977Z" fill="#201600"/>
<path d="M105.819 87.7725C109.673 85.3138 112.873 81.9591 116.614 79.3142C120.832 76.3322 125.499 73.9516 130.376 72.2795C140.847 68.691 152.259 69.509 162.551 73.208C163.731 73.632 164.778 76.3477 165.257 75.374C165.798 74.274 165.625 69.4114 164.318 68.8671C153.655 64.4232 141.344 64.5684 130.445 68.0861C121.099 71.1022 109.655 78.2051 105.592 87.551C105.532 87.6912 105.668 87.8685 105.819 87.7725Z" fill="#201600"/>
<path d="M92.8247 81.7593C92.9637 74.751 94.0158 70.5231 97.9296 65.4638C101.814 60.4426 106.945 56.6025 112.414 53.4478C133.302 41.3973 149.42 46.4367 153.545 48.9869C148.182 44.3784 137.477 42.9596 130.691 43.4519C123.911 43.9426 117.439 46.3538 111.548 49.6504C101.109 55.4907 87.5672 67.7745 88.4137 80.8312C88.4315 81.1056 89.5256 81.9434 89.6548 81.6446L92.8247 81.7593Z" fill="#201600"/>
<path d="M155.157 49.537C157.098 53.8581 159.731 63.8556 160.568 67.5111C161.24 70.4487 160.153 69.9674 162.643 71.8167C163.211 72.2391 165.591 72.1001 165.524 71.5098C165.064 67.4501 163.973 64.097 162.542 60.7614C161.066 57.3197 158.82 52.771 155.157 49.537Z" fill="#201600"/>
<path d="M97.041 89.7124C97.041 89.7124 93.2085 83.668 92.4308 78.8522C92.2787 77.9119 89.6252 78.8827 89.2419 79.7527C87.3104 84.1396 92.7308 92.1422 95.0611 93.2785C96.8255 94.1375 96.5454 90.6482 96.6035 90.2616L97.041 89.7124Z" fill="#201600"/>
<path d="M90.3789 77.6477C89.8032 76.8733 91.4713 77.4461 90.3789 77.6477V77.6477Z" fill="#201600"/>
<path d="M89.5154 82.9664L90.7155 80.9585C90.0297 80.082 89.4959 79.6019 90.8106 80.8012L91.914 78.9543C91.0188 78.3213 90.5712 77.9082 90.3789 77.6477C90.1935 77.6814 90.9798 71.3541 89.6658 72.6416C86.3907 75.8508 70.1086 70.0166 66.973 67.6258C66.5522 67.3046 65.3118 71.9574 65.4956 72.4961C66.129 74.3401 63.7109 73.8055 65.5041 74.497C68.2589 75.5601 75.7885 80.4751 89.6548 81.6447C92.523 81.8866 91.7091 82.2456 90.7773 81.0365C90.5606 81.6224 89.6443 83.057 89.5154 82.9664Z" fill="#201600"/>
<path d="M90.7776 81.0366C90.8229 80.9151 90.84 80.8266 90.8111 80.8005L90.7156 80.9583L90.7776 81.0366Z" fill="#201600"/>
<path d="M158.845 54.7666C163.984 51.8656 166.829 48.9377 168.405 43.1966C169.498 39.2187 171.052 28.0947 167.392 25.0786C166.826 24.6131 167.106 22.0894 167.083 22.8467C167.015 25.2327 164.734 22.5735 165.083 24.4034C166.01 29.2627 165.891 35.407 165.567 39.552C165.207 44.1447 159.641 48.5182 156.126 50.5943C155.889 50.7338 158.262 54.256 158.487 54.13L158.845 54.7666Z" fill="#201600"/>
<path d="M168.524 31.1532C168.506 29.7494 169.526 32.8789 169.667 31.454C169.803 30.0795 169.154 24.0689 168.85 22.7298C168.276 20.1934 166.085 15.7272 163.086 16.0586C162.445 16.1297 162.051 16.5273 161.999 17.1721C161.889 18.5352 161.509 18.9929 162.447 19.9568C163.642 21.1866 164.636 22.7672 165.083 24.4035C165.396 25.5463 165.564 27.3102 165.745 28.4831C165.938 29.7218 166.96 30.1462 167.285 31.3361C167.474 32.0285 168.533 31.863 168.524 31.1532Z" fill="#201600"/>
<path d="M75.2462 28.5144C70.7181 35.7044 62.2547 49.1232 59.7024 57.3377C58.6279 60.7953 59.0405 64.7545 60.189 68.2743C61.181 71.3152 64.3411 75.2289 67.8007 74.8471C69.5115 74.6581 70.3339 72.2823 69.609 70.7306C68.398 68.1405 65.6339 67.3665 64.7265 64.3614C63.7621 61.1701 64.6338 57.4466 65.5761 54.3793C67.6137 47.7406 71.9829 41.6833 75.3149 34.7258C75.4942 34.3518 72.9927 34.6079 72.7894 34.9299L75.2462 28.5144Z" fill="#201600"/>
<path d="M70.2148 42.9756C72.154 39.7054 75.4462 34.3778 76.887 32.3963C79.2193 29.1867 81.82 26.154 84.5882 23.316C87.0156 20.8288 89.7179 18.7412 92.7263 17.0086C95.5823 15.3646 101.369 13.6352 106.153 10.0524C107.085 9.35436 103.513 5.04672 102.412 5.66709C95.5417 9.5377 87.016 14.4385 82.9896 18.3103C80.1877 21.0056 77.866 24.2478 75.8198 27.5403C74.0351 30.4141 69.7144 39.4306 66.8852 44.1651C66.7515 44.3895 70.9344 39.3428 71.1621 39.1672L70.2148 42.9756Z" fill="#201600"/>
<path d="M142.906 4.55836C137.877 2.46674 132.019 1.32357 128.545 0.69954C124.566 -0.0171804 120.453 -0.276152 116.449 0.36536C112.121 1.06013 108.085 2.43423 104.297 4.63927C101.81 6.08735 97.5845 7.6895 97.8024 11.0828C97.8601 11.9906 98.6216 10.9527 99.5201 11.1979C102.243 11.941 103.994 11.4341 106.153 10.0523C109.392 7.97814 112.744 6.38818 116.46 5.36208C120.216 4.32623 124.229 4.24777 128.095 4.37542C131.567 4.48885 136.302 6.19264 140.025 7.40127C140.413 7.5277 139.089 4.09776 138.737 3.81562L142.906 4.55836Z" fill="#201600"/>
<path d="M134.624 3.84327C136.148 5.99709 138.834 6.82967 141.174 7.90862C144.109 9.26238 147.067 10.586 150.028 11.8813C152.977 13.1704 155.7 14.7819 158.35 16.5975C160.713 18.2179 163.984 21.2165 165.087 22.8398C165.346 23.2183 168.835 22.6813 168.739 22.2873C166.842 14.5433 158.263 9.98559 154.732 8.45783C151.544 7.07724 148.232 6.16335 144.899 5.21654C141.906 4.3681 138.381 2.49236 135.276 2.67286C134.734 2.70497 134.267 3.33835 134.624 3.84327Z" fill="#201600"/>
<path d="M155.151 46.0095C158.091 40.4595 160.07 38.8208 161.246 31.8495C161.374 31.0881 160.784 22.6948 160.363 23.507C157.477 29.0908 157.187 40.0981 155.151 46.0095C154.906 46.7189 154.808 46.6575 155.151 46.0095Z" fill="#201600"/>
<path d="M141.766 35.7042C140.191 20.1644 134.803 9.76689 134.803 9.76689C133.154 13.2684 134.828 17.7512 135.75 21.3165C137.073 26.4295 141.826 35.9534 141.766 35.7042Z" fill="#201600"/>
<path d="M147.907 36.8661C150.734 32.0702 150.019 26.7995 149.157 22.6024C149.055 22.1036 148.092 32.6475 147.907 36.8661C147.896 37.1267 147.858 37.3889 147.896 37.1267L147.907 36.8661Z" fill="#201600"/>
<path d="M103.5 50.0524C101.438 46.0501 98.9009 42.416 95.875 39.0861C93.3817 36.3404 88.793 32.1348 84.8154 32.7015C83.7669 32.8519 86.3196 45.7212 90.2911 49.2532C90.9326 49.8252 87.9161 43.0352 87.4116 36.8364L87.4921 36.8632C89.9822 37.7068 92.234 39.102 94.3179 40.6838C97.7967 43.3267 100.745 46.7046 103.5 50.0524C103.607 50.1817 103.57 50.1857 103.5 50.0524Z" fill="#201600"/>
<path d="M90.8286 62.0429C87.3782 61.1807 83.8389 59.5777 80.6268 58.0605C77.8468 56.7458 72.3187 52.6056 72.3739 53.4821C72.4073 54.0025 76.041 59.7517 78.9543 61.0063C82.8884 62.7011 90.8286 62.0429 90.8286 62.0429C91.1514 62.1234 91.1306 62.0124 90.8286 62.0429Z" fill="#201600"/>
<path d="M126.393 15.5727C125.708 14.9873 127.534 22.4578 129.061 25.3747C130.728 28.5627 132.416 31.7251 134.13 34.8868C134.352 35.2961 131.472 19.921 126.393 15.5727Z" fill="#201600"/>
<path d="M108.88 74.8705C112.9 69.5156 118.139 65.2905 124.076 62.2374C129.829 59.2778 135.958 58.7798 142.185 57.5834C127.942 51.8025 116.102 64.1388 108.88 74.8705C108.699 75.1392 108.695 75.1168 108.88 74.8705Z" fill="#201600"/>
<path d="M104.734 44.2126C104.235 39.7403 101.714 32.6833 96.286 29.4196C96.286 29.4196 100.001 35.7823 101.157 37.6995C102.437 39.8241 103.498 42.0665 104.734 44.2126C104.917 44.5293 104.778 44.6049 104.734 44.2126Z" fill="#201600"/>
<path d="M86.7765 66.2396C84.2186 66.0245 81.6793 66.0379 79.1335 65.6241C76.6873 65.2245 70.7433 64.7037 71.2738 65.1114C78.5538 70.7086 87.227 66.2778 86.7765 66.2396Z" fill="#201600"/>
<path d="M163.168 97.9594C163.592 97.2716 163.399 92.8582 162.446 91.4447C161.502 90.0409 158.646 90.1198 158.668 91.4199C158.686 92.4797 159.917 95.4279 160.507 96.3125C161.004 97.0553 161.288 97.7748 161.92 98.4241C162.476 98.9953 162.914 98.5895 163.168 97.9594Z" fill="#F2B89C"/>
<path d="M148.839 46.4761C148.541 46.107 147.903 46.5168 148.057 46.9445C150.009 52.3591 151.701 57.9197 153.127 63.5205C150.669 58.8279 147.483 54.4117 143.292 51.2139C147.632 55.5488 151.335 60.9016 154.201 67.9281C154.424 68.4725 155.26 68.27 155.103 67.6667C153.502 61.5333 151.903 55.3975 149.896 49.3837C152.662 53.1234 155.002 57.1017 156.824 61.4179C158.744 65.9695 159.612 70.9922 161.761 75.4185C161.975 75.8584 162.778 75.649 162.706 75.1498C161.213 64.6624 155.382 54.5649 148.839 46.4761Z" fill="#201600"/>
<path d="M130.95 157.56C125.901 155.713 120.302 152.87 114.806 155.096C112.712 155.944 111.561 157.866 109.766 159.149C109.667 159.051 109.567 158.954 109.469 158.854C104.687 153.315 100.268 147.564 94.1378 143.526L95.0204 143.06L100.461 132.032L104.823 131.843L107.72 138.038C107.982 138.585 108.139 138.967 108.227 139.234C108.469 139.286 108.919 139.516 109.709 140.082C111.373 141.276 113.311 144.252 115.068 145.218C115.297 145.629 128.954 154.942 133.825 158.398C132.863 158.13 131.904 157.853 130.95 157.56Z" fill="#FF2B15"/>
<path d="M100.836 149.106C100.329 148.598 99.8135 148.099 99.2875 147.61C99.2887 147.61 99.2899 147.61 99.2911 147.61C99.8164 148.097 100.331 148.596 100.838 149.103C100.837 149.104 100.836 149.105 100.836 149.106Z" fill="#FFBA67"/>
<path d="M99.2876 147.61C97.7228 146.159 96.0641 144.806 94.255 143.603C96.0645 144.806 97.7256 146.158 99.2912 147.61C99.29 147.61 99.2888 147.61 99.2876 147.61ZM94.2192 143.579C94.2135 143.575 94.2074 143.572 94.2013 143.568C94.2074 143.572 94.2131 143.575 94.2192 143.579Z" fill="#686152"/>
<path d="M100.838 149.103C100.332 148.596 99.8164 148.097 99.2912 147.61C97.7256 146.158 96.0644 144.806 94.2549 143.603C94.2541 143.603 94.2537 143.602 94.2529 143.602C94.2455 143.597 94.2386 143.592 94.2317 143.588C94.2272 143.585 94.2232 143.582 94.2191 143.579C94.213 143.575 94.2073 143.572 94.2012 143.568C94.1955 143.564 94.1894 143.56 94.1838 143.556C94.1793 143.553 94.1748 143.55 94.1703 143.547C94.1594 143.54 94.1488 143.533 94.1378 143.526L95.0204 143.059L100.461 132.032L104.823 131.843L107.72 138.038C107.953 138.525 108.1 138.875 108.192 139.136C106.51 140.902 105.024 142.875 103.594 144.818C102.571 146.208 101.667 147.637 100.838 149.103Z" fill="#FF6F60"/>
<path d="M133.825 159.047C133.639 159.153 133.973 158.903 133.825 159.047C133.95 158.975 133.24 160.233 133.368 160.171C133.383 160.109 132.2 159.212 132.221 159.149C132.605 157.984 143.946 154.109 144.899 153.977C143.719 153.414 142.364 150.576 141.249 150.084C140.532 149.768 133.85 153.606 133.156 153.312C127.154 150.763 123.615 148.572 118.523 145.33C117.727 144.823 116.474 145.021 115.746 145.544C111.892 148.315 105.788 152.809 104.388 157.48C103.812 159.4 106.223 161.521 108.049 160.617C110.555 159.376 112.24 156.91 114.204 154.955C115.451 153.714 116.684 152.484 117.894 151.224C123.806 154.242 128.415 155.188 133.825 159.047Z" fill="#201600"/>
<path d="M107.412 129.631C105.084 134.19 94.9916 138.444 97.2394 143.952C98.5773 147.229 101.879 149.898 104.433 152.207C106.084 153.7 109.125 155.502 109.233 157.963C109.31 159.703 107.767 161.261 105.972 160.868C103.103 160.241 100.006 156.21 97.996 154.235C95.1058 151.397 91.836 147.872 91.1376 143.727C90.4127 139.423 93.6525 136.118 96.4771 133.289C98.8721 130.891 102.025 127.502 105.474 126.786C106.983 126.472 108.035 128.412 107.412 129.631Z" fill="#201600"/>
<path d="M116.969 149.97C123.497 152.298 128.551 152.055 122.641 147.502C116.73 142.948 106.907 129.715 106.907 129.715L104.75 133.003C104.75 133.003 110.442 147.642 116.969 149.97Z" fill="#201600"/>
<path d="M111.752 156.33L133.825 159.047L119.873 150.084L112.989 150.615L111.752 156.33Z" fill="#201600"/>
<path d="M134.615 157.194C139.332 155.501 144.563 152.897 149.698 154.936C151.654 155.712 152.729 157.474 154.406 158.648C154.499 158.559 154.591 158.47 154.683 158.379C159.151 153.304 163.28 148.036 169.006 144.337L168.182 143.91L163.099 133.808L159.483 133.636L156.801 139.128C156.557 139.63 156.819 139.125 155.134 141.532C153.448 143.94 148.867 145.659 147.227 146.544C147.227 146.544 145.5 147.707 145.154 148.094C142.968 150.543 135.859 155.228 131.931 157.961C132.829 157.715 133.724 157.462 134.615 157.194Z" fill="#FF2B15"/>
<path d="M163.386 148.832C163.386 148.831 163.385 148.83 163.385 148.829C163.886 148.352 164.397 147.885 164.921 147.429C164.922 147.43 164.924 147.43 164.925 147.43C164.401 147.886 163.888 148.354 163.386 148.832Z" fill="#FFBA67"/>
<path d="M164.925 147.43C164.924 147.43 164.922 147.43 164.921 147.429C166.158 146.354 167.461 145.346 168.86 144.432C167.462 145.346 166.16 146.354 164.925 147.43ZM168.914 144.397C168.926 144.388 168.939 144.38 168.951 144.372C168.939 144.38 168.926 144.388 168.914 144.397ZM168.963 144.364C168.978 144.355 168.992 144.346 169.006 144.337C168.992 144.346 168.978 144.355 168.963 144.364Z" fill="#686152"/>
<path d="M156.778 139.176C156.785 139.161 156.792 139.145 156.801 139.128C156.793 139.145 156.785 139.161 156.778 139.176Z" fill="#686152"/>
<path d="M163.385 148.829C163.173 148.325 157.853 140.122 156.753 139.227C156.761 139.211 156.769 139.194 156.778 139.176C156.785 139.161 156.793 139.145 156.801 139.128L159.483 133.636L163.099 133.808L168.182 143.91L169.006 144.337C168.992 144.346 168.978 144.355 168.963 144.365C168.959 144.367 168.956 144.369 168.951 144.372C168.939 144.38 168.926 144.389 168.914 144.397C168.912 144.398 168.91 144.399 168.909 144.4C168.894 144.41 168.879 144.419 168.864 144.429C168.862 144.43 168.861 144.431 168.86 144.432C167.461 145.346 166.158 146.354 164.921 147.429C164.397 147.885 163.886 148.352 163.385 148.829Z" fill="#FF6F60"/>
<path d="M130.4 160.024C130.261 159.891 130.109 159.771 129.936 159.674C129.818 159.608 129.7 159.547 129.581 159.49C129.567 159.433 129.554 159.376 129.534 159.318C129.175 158.251 122.474 154.032 121.584 153.912C122.686 153.396 123.952 150.796 124.994 150.345C125.664 150.056 132.674 153.529 133.321 153.259C138.93 150.924 141.468 148.96 146.225 145.989C146.969 145.526 148.139 145.706 148.82 146.186C152.42 148.724 158.122 152.84 159.43 157.12C159.968 158.879 157.715 160.823 156.01 159.994C153.669 158.857 152.095 156.598 150.26 154.807C149.096 153.67 147.943 152.544 146.813 151.389C141.29 154.154 135.454 156.489 130.4 160.024Z" fill="#201600"/>
<path d="M156.606 131.608C158.781 135.785 168.209 139.682 166.109 144.727C164.859 147.73 161.775 150.173 159.389 152.289C157.846 153.657 155.005 155.308 154.904 157.563C154.832 159.157 156.274 160.584 157.95 160.224C160.63 159.65 163.525 155.956 165.402 154.147C168.102 151.547 171.156 148.318 171.809 144.521C172.486 140.579 169.459 137.551 166.821 134.959C164.583 132.763 162.287 129.658 159.065 129.002C157.656 128.714 156.023 130.492 156.606 131.608Z" fill="#201600"/>
<path d="M152.551 156.066L129.612 159.544L144.964 150.345L151.395 150.831L152.551 156.066Z" fill="#201600"/>
<path d="M133.708 177.429L132.55 178.079L127.469 150.676L135.657 153.757L133.708 177.429Z" fill="#201600"/>
<path d="M136.757 177.647C137.496 172.575 137.98 167.475 138.452 162.372C138.519 161.649 139.409 166.16 139.093 169.015C138.846 171.253 136.651 178.369 136.757 177.647Z" fill="#201600"/>
<path d="M128.018 148.944L111.781 122.508C114.935 137.748 127.987 149.427 128.018 148.944Z" fill="#000002"/>
<path d="M130.736 102.227C126.487 102.227 121.663 96.3433 124.648 95.0184C127.649 93.687 137.273 92.4235 141.486 90.762C141.486 90.762 142.037 90.5656 142.569 90.5656C143.059 90.5656 143.534 90.7319 143.55 91.3701C144.982 93.5276 134.664 101.337 131.804 102.092C131.456 102.184 131.098 102.227 130.736 102.227Z" fill="#F8D7C7"/>
<path d="M151.958 100.042C151.849 100.042 151.754 100.029 151.677 100.002C149.666 99.2769 147.894 83.1208 148.254 83.1208C148.256 83.1208 148.259 83.1212 148.261 83.1224C148.261 83.1224 155.017 96.0445 154.86 98.5606C154.825 99.113 152.888 100.042 151.958 100.042Z" fill="#F8D7C7"/>
<path d="M150.629 131.718C148.931 131.718 147.381 131.476 146.289 131.234C145.198 130.991 144.565 130.749 144.703 130.749C144.708 130.749 144.715 130.749 144.724 130.75C141.35 128.939 150.347 126.026 152.339 126.026C152.413 126.026 152.478 126.03 152.532 126.039C153.996 126.268 155.122 127.254 155.238 128.527C155.38 130.036 153.978 131.48 152.154 131.65C151.638 131.697 151.127 131.718 150.629 131.718Z" fill="#F8D7C7"/>
</g>
<defs>
<clipPath id="clip0_9_813">
<rect width="266.172" height="325" fill="white"/>
</clipPath>
</defs>
</svg>
