<svg width="38" height="38" viewBox="0 0 38 38" fill="none" xmlns="http://www.w3.org/2000/svg">
<path d="M23.3999 35.4207C19.9689 36.3401 16.3361 36.1616 13.0118 34.9104C9.68738 33.6592 6.83843 31.3981 4.86502 28.4447C2.89161 25.4913 1.89289 21.9939 2.00911 18.4438C2.12533 14.8936 3.35065 11.4691 5.513 8.65106C7.67534 5.83303 10.6661 3.76312 14.0652 2.73201C17.4643 1.70091 21.1009 1.76042 24.4645 2.90219C27.828 4.04395 30.7494 6.21062 32.8184 9.09788C34.8874 11.9851 36 15.448 36 19V21.8333C36 24.4413 33.8858 26.5556 31.2778 26.5556C28.6698 26.5556 26.5556 24.4413 26.5556 21.8333V13.3333M26.5556 19C26.5556 23.1728 23.1728 26.5556 19 26.5556C14.8272 26.5556 11.4444 23.1728 11.4444 19C11.4444 14.8272 14.8272 11.4444 19 11.4444C23.1728 11.4444 26.5556 14.8272 26.5556 19Z" stroke="#33363F" stroke-width="3" stroke-linecap="round"/>
</svg>
