<svg width="136" height="165" viewBox="0 0 136 165" fill="none" xmlns="http://www.w3.org/2000/svg">
<g clip-path="url(#clip0_9_1640)">
<path d="M44.7803 164.978C44.6983 165.007 44.6738 165.008 44.7803 164.978Z" fill="#FF991F"/>
<path d="M94.5404 140.574C92.9175 140.297 91.2845 140.145 89.6139 140.17C87.8721 140.196 86.1592 140.571 84.4861 140.871C82.4403 141.238 80.3969 141.611 78.3538 141.986C74.1711 142.753 69.9907 143.525 65.7989 144.269C61.609 145.013 57.4061 145.722 53.1816 146.37C49.2482 146.972 45.2389 147.395 41.2434 147.771C41.1338 147.781 41.024 147.791 40.9144 147.8C39.6449 147.803 37.016 147.896 35.919 148.331C34.3468 148.959 34.3699 149.603 33.8861 150.802C32.8676 153.329 35.3538 156.523 39.0449 157.225C43.3208 158.037 47.7093 158.59 52.1248 158.995C51.3324 159.21 50.5494 159.436 49.782 159.682C49.2158 159.863 48.6492 160.044 48.0827 160.225C47.8038 160.314 47.525 160.403 47.2459 160.491C47.1914 160.509 47.1204 160.529 47.0565 160.548C47.1518 160.522 47.2947 160.483 47.5066 160.426C47.2445 160.501 46.9826 160.577 46.7204 160.652C45.9079 161.085 45.8335 161.121 46.4971 160.761C46.1176 160.928 45.7376 161.093 45.3578 161.259C45.1824 161.335 45.0071 161.412 44.8319 161.488C44.7223 161.536 44.6011 161.57 44.5256 161.588C44.5863 161.576 44.6872 161.558 44.847 161.532C44.0738 161.659 43.3749 162.142 43.1772 162.686C43.1326 162.736 43.0884 162.786 43.0439 162.837C42.6664 163.261 42.9159 163.803 43.5128 164.057C43.5607 164.077 43.6088 164.097 43.6567 164.117C44.2059 164.593 45.2785 164.75 46.0936 164.615C45.3642 164.736 45.6808 164.659 46.0038 164.679C46.21 164.692 46.4162 164.705 46.6224 164.718C46.9983 164.741 47.3745 164.764 47.7504 164.787C48.1405 164.835 48.2928 164.832 48.6674 164.821C48.97 164.812 49.2722 164.804 49.5747 164.794C50.2509 164.774 50.9273 164.753 51.6034 164.732C53.4788 164.675 55.3366 164.44 57.1917 164.248C59.0439 164.057 60.8957 163.863 62.7471 163.668C67.099 163.208 71.4359 162.714 75.7674 162.171C80.5883 161.568 85.5133 161.083 90.2432 160.205C93.3028 159.637 95.4781 157.673 95.4781 155.515C95.4781 154.033 94.4675 152.693 92.8993 151.796C93.8568 151.897 97.0405 151.392 98.1831 150.802C99.3819 150.318 98.5999 149.388 99.3091 148.57C100.031 147.721 100.394 146.805 100.399 145.822C100.399 143.446 97.973 141.157 94.5404 140.574Z" fill="#FF991F"/>
<path d="M47.3124 163.452C47.1609 163.516 47.0542 163.556 47.3124 163.452Z" fill="#FF991F"/>
<path d="M67.5914 68.8611L29.8301 76.7627L16.0308 95.2334L7.27574 116.943L4.00819 118.189L2.73038 135.818L6.49924 147.803L11.8289 150.813L18.5862 149.457L26.8398 141.181L37.8652 124.892L67.5914 124.918V68.8611Z" fill="#FF2B15"/>
<path d="M2.71957 126.526L3.54749 118.354L6.81514 117.108L15.5702 95.3983L22.7019 85.8523C22.8179 85.8436 22.9442 85.8263 23.0775 85.8011L16.0308 95.2334L7.27574 116.943L4.0082 118.189L3.52694 124.828C3.20952 125.307 2.94105 125.863 2.71957 126.526Z" fill="white"/>
<path d="M3.52693 124.828L4.00819 118.189L7.27574 116.943L16.0308 95.2333L23.0775 85.8011C23.9485 85.6366 25.1194 85.1408 25.6701 84.592C26.5516 83.7138 27.4346 82.4544 28.3747 81.2377C29.2039 83.4827 30.0464 85.7447 30.8974 88.0074C30.8633 88.013 30.8292 88.0159 30.7956 88.0159C30.1576 88.0159 29.5849 87.0388 29.0672 86.0618C28.5496 85.0847 28.087 84.1076 27.6695 84.1076C27.5264 84.1076 27.3888 84.2222 27.2561 84.4903C26.9316 85.1456 28.8078 90.2939 26.9735 93.0658C25.9721 94.5797 23.4012 99.5622 22.3304 101.022C18.1638 107.038 15.5822 114.512 15.5822 114.512C15.2955 114.747 15.2506 114.942 15.3116 114.942C15.3589 114.942 15.4701 114.824 15.5811 114.515C15.582 114.514 15.5829 114.513 15.5838 114.513C15.584 114.512 15.5842 114.512 15.5843 114.512C15.664 114.512 17.9379 114.529 18.0538 115.684C18.2079 117.223 17.4065 117.276 18.3542 118.451C18.305 118.592 18.2535 118.732 18.2002 118.871C17.9137 119.498 10.9933 120.07 8.30684 121.412C6.13749 122.495 4.56844 123.254 3.52693 124.828ZM15.5686 114.526C15.5683 114.526 15.5719 114.522 15.5822 114.512C15.593 114.503 15.5972 114.499 15.5976 114.499C15.598 114.499 15.5914 114.506 15.5843 114.512C15.5829 114.512 15.5822 114.512 15.5822 114.512C15.5818 114.513 15.5815 114.514 15.5811 114.515C15.5748 114.521 15.569 114.526 15.5686 114.526ZM35.3401 85.3229L32.2041 77.7271C32.7599 77.4846 33.3341 77.2758 33.9199 77.0939L36.2643 84.9026C35.951 85.0397 35.6429 85.1796 35.3401 85.3229ZM41.103 83.1054C40.3135 80.7558 39.5172 78.4134 38.7209 76.0939C38.8994 76.069 39.0778 76.045 39.2551 76.0215C41.7777 75.6884 44.3156 75.4698 46.8538 75.2601C46.6559 76.3598 46.4669 77.4632 46.2875 78.5577V78.5583C46.2856 78.5696 46.2838 78.5814 46.2819 78.5928C46.2811 78.5977 46.2803 78.6021 46.2794 78.607L46.2792 78.6086C46.1073 79.6594 45.9438 80.7031 45.7888 81.7326C44.348 82.1238 42.7391 82.5789 41.103 83.1054Z" fill="#FF6F60"/>
<path d="M67.5166 68.861L105.772 76.7626L119.572 95.2332L128.326 116.943L131.594 118.189L132.872 135.818L129.103 147.803L123.773 150.813L117.016 149.457L108.763 141.181L97.7371 124.892L64.0055 124.918L67.5166 68.861Z" fill="#FF2B15"/>
<path d="M132.422 126.361C132.333 126.094 132.236 125.846 132.132 125.612L131.594 118.189L132.422 126.361Z" fill="white"/>
<path d="M132.132 125.612C131.126 123.356 129.4 122.528 126.835 121.247C124.149 119.905 117.228 119.333 116.941 118.706C116.888 118.567 116.837 118.427 116.788 118.286C117.735 117.111 116.933 117.058 117.088 115.519C117.203 114.364 119.477 114.347 119.557 114.347C119.557 114.347 119.558 114.347 119.558 114.348C119.559 114.348 119.56 114.349 119.56 114.35C119.672 114.659 119.783 114.777 119.83 114.777C119.891 114.777 119.846 114.582 119.559 114.347C119.559 114.347 116.978 106.873 112.811 100.857C111.74 99.3972 109.17 94.4147 108.168 92.9008C106.334 90.1289 108.21 84.9806 107.885 84.3253C107.753 84.0572 107.615 83.9426 107.472 83.9426C107.055 83.9426 106.592 84.9197 106.074 85.8968C105.557 86.8738 104.984 87.8509 104.346 87.8509C104.181 87.8509 104.011 87.7853 103.837 87.6373C103.612 87.446 103.374 87.2592 103.122 87.0759C104.039 84.3728 104.908 81.8234 105.721 79.4484C107.257 81.0554 108.597 83.2611 109.932 84.592C110.483 85.1408 111.654 85.6365 112.525 85.801L119.572 95.2332L128.326 116.943L131.594 118.189L132.132 125.612ZM119.573 114.361C119.573 114.361 119.567 114.356 119.56 114.35C119.56 114.349 119.56 114.348 119.559 114.347C119.559 114.347 119.559 114.347 119.559 114.347C119.559 114.347 119.558 114.347 119.557 114.347C119.55 114.341 119.544 114.334 119.544 114.334C119.544 114.334 119.549 114.338 119.559 114.347C119.57 114.357 119.573 114.361 119.573 114.361ZM96.1693 83.6659C93.4523 82.6845 90.637 81.9086 88.381 81.3062C88.2844 80.6713 88.1848 80.0325 88.0818 79.3892C88.0809 79.3844 88.0799 79.378 88.0791 79.3733C88.0791 79.3727 88.0791 79.3729 88.0789 79.372C88.078 79.3665 88.077 79.3603 88.0762 79.3547L88.076 79.3535C88.0741 79.3417 88.0723 79.3301 88.0704 79.3184C88.0702 79.3175 88.07 79.3169 88.07 79.3161C87.9544 78.5966 87.8349 77.8728 87.7113 77.1481C87.8494 76.5038 87.9713 75.8563 88.0667 75.2039C90.832 75.4315 93.599 75.6586 96.3472 76.0214C97.2025 76.1345 98.0744 76.2633 98.9429 76.4274C98.082 78.6845 97.1549 81.1041 96.1693 83.6659Z" fill="#FF6F60"/>
<path d="M34.715 149.061C36.9867 148.388 39.3448 148.019 41.7318 147.819L58.2565 113.84L27.9875 111.193L34.3796 143.428L34.715 149.061Z" fill="#FF2B15"/>
<path d="M33.5293 149.445C34.4802 149.112 35.4484 148.838 36.4298 148.613C36.3522 147.829 36.2676 147.103 36.1745 146.524C35.4139 141.784 31.7491 119.952 31.7123 119.732L28.7856 120.223C28.8226 120.443 32.4851 142.264 33.2444 146.994C33.3462 147.628 33.4414 148.496 33.5293 149.445Z" fill="#201600"/>
<path d="M97.6698 147.433C98.3092 147.611 98.9478 147.807 99.5815 148.019L99.8548 143.428L106.247 111.193L75.9777 113.84L90.1222 145.817C92.6739 146.217 95.1994 146.743 97.6698 147.433Z" fill="#FF2B15"/>
<path d="M101.032 146.73C101.876 141.511 105.413 120.439 105.449 120.223L102.522 119.732C102.485 119.952 98.8203 141.784 98.0597 146.524C98.0149 146.803 97.9718 147.138 97.9311 147.508C98.5047 147.672 99.0768 147.851 99.6453 148.042C100.028 147.529 100.499 147.085 101.032 146.73Z" fill="#201600"/>
<path d="M100.212 146.965C98.5382 144.347 92.0576 132.302 90.0935 100.265L90.651 100.219C90.5959 99.5585 89.424 85.8393 86.992 73.1693C86.8283 73.1842 86.663 73.1926 86.4958 73.192C84.3878 73.1836 82.2427 72.9778 80.213 72.3931C80.1771 72.3828 80.1424 72.3704 80.1069 72.3596C81.7352 80.2831 82.8586 89.1562 83.4853 94.8453L73.5232 96.2545L67.0982 96.6774L59.8443 96.2281L50.7487 94.8453C51.46 88.3816 52.814 77.8062 54.8226 69.177L52.1626 68.5579C51.2327 70.1295 49.537 71.2129 47.6193 71.2647C44.9316 84.4244 43.6416 99.5253 43.5834 100.219L44.1411 100.265C41.8785 137.163 33.6248 147.542 33.6248 147.542L33.5175 149.449C37.9008 147.912 42.6542 147.632 47.3454 147.594C48.5789 147.313 49.814 147.059 51.0453 146.828C58.9719 145.346 67.0757 144.61 75.1401 144.692C82.6615 144.768 90.4011 145.403 97.6698 147.433C98.2859 147.605 98.901 147.793 99.5117 147.996C99.7062 147.626 99.9415 147.28 100.212 146.965Z" fill="#FF2B15"/>
<path d="M100.444 147.315C99.2707 145.621 92.1664 134.077 90.0935 100.265L90.651 100.219C90.5947 99.5461 89.3788 85.3105 86.8512 72.4447C85.464 72.7809 83.9996 72.5982 82.7604 71.8721C81.645 71.2191 80.7882 70.1727 80.3649 68.9549L79.412 69.177C81.4192 77.8 82.7732 88.3794 83.4853 94.8453L75.8669 95.4896L67.1172 95.7594L59.5137 95.4463L50.7487 94.8453C51.46 88.3816 52.814 77.8062 54.8226 69.177L52.6274 68.6658C51.648 69.5935 50.3339 70.1696 48.9044 70.1696C48.5512 70.1696 48.2051 70.1335 47.8693 70.0666C45.0113 83.4899 43.6435 99.504 43.5834 100.219L44.1411 100.265C41.8785 137.163 33.6248 147.542 33.6248 147.542L33.5175 149.449C37.9008 147.912 42.6542 147.632 47.3454 147.594C48.5789 147.313 49.814 147.059 51.0453 146.828C58.9719 145.346 67.0757 144.61 75.1401 144.692C82.6615 144.768 90.4011 145.403 97.6698 147.433C98.352 147.623 99.0337 147.832 99.7088 148.062C99.9301 147.791 100.177 147.54 100.444 147.315Z" fill="#FF991F"/>
<path d="M43.2383 122.737C48.3019 127.552 57.5052 133.822 63.5874 137.124C70.6805 140.976 84.0576 146.843 84.0576 146.843C84.5265 147.003 84.7398 146.341 84.3757 146.089C70.3612 136.374 57.3981 125.037 47.1595 111.328C46.971 111.516 46.7828 111.704 46.5945 111.892C61.5967 121.713 76.5651 131.77 92.9594 139.165C93.4407 139.382 79.6838 131.519 73.1121 127.632C64.2388 122.384 55.6305 116.822 47.0113 111.18C46.6788 110.962 46.1956 111.409 46.4464 111.744C56.7752 125.574 69.8202 137.001 83.959 146.802C84.0652 146.55 84.1713 146.299 84.2774 146.047C69.278 140.942 42.8517 122.37 43.2383 122.737Z" fill="#201600"/>
<path d="M74.7963 119.607C69.4718 115.996 58.667 107.918 59.0567 108.283C67.8363 116.488 78.033 122.953 88.323 129.074C88.7815 129.347 79.3391 122.687 74.7963 119.607Z" fill="#201600"/>
<path d="M46.7838 132.828C48.8627 134.625 50.9962 136.361 53.1851 138.024C55.473 139.761 61.0926 142.559 60.648 142.271C55.9909 139.247 46.3803 132.479 46.7838 132.828Z" fill="#201600"/>
<path d="M54.2773 70.6341C49.0426 72.094 43.9066 72.7864 38.5898 73.5369C36.0009 73.9022 32.5431 74.865 30.1516 75.9403C27.393 77.1801 23.9028 82.3871 22.1218 85.2415C21.3466 86.4842 24.625 85.633 25.67 84.592C27.5986 82.6706 29.5332 78.9267 32.0587 77.7915C34.2952 76.7859 36.8401 76.3405 39.255 76.0214C44.241 75.3633 49.2868 75.1519 54.2773 74.5728C54.8971 74.5009 55.4224 74.4361 55.4224 73.7575C55.4224 73.1879 54.8988 72.5404 54.2773 72.6126V70.6341Z" fill="#201600"/>
<path d="M45.1771 118.878L44.8613 117.989C37.4233 101.053 28.4348 76.4428 22.2047 58.7793L22.0007 58.2014L21.8878 58.1967C21.0412 56.4126 19.4542 55.0686 18.1729 53.9834C17.6 53.4981 16.7342 52.7648 16.6494 52.4889C16.0524 50.5479 12.374 38.588 11.379 35.3523L13.9204 34.3643C15.1791 36.9928 20.2665 47.6314 21.3782 50.1999C21.5663 50.6344 21.5427 51.7778 21.52 52.8837C21.4957 54.0832 21.4682 55.4397 21.6362 56.799L21.6513 56.9206L21.6641 56.9515L44.2216 111.587L45.9843 110.967L29.0973 54.7485L29.0604 54.6832C28.3011 53.3526 27.3198 52.1815 26.4544 51.1481C25.7427 50.299 25.0084 49.4224 24.8829 48.9665C24.1557 46.322 21.6236 35.5565 20.7784 31.9505L23.3787 31.1291L30.0032 47.7888C30.1097 48.0567 29.8945 49.1698 29.752 49.9064C29.46 51.415 29.0971 53.2909 29.4069 55.0874L29.4278 55.1862L29.4476 55.2409C36.0437 73.5221 44.9176 99.114 49.7329 117.217L49.7486 117.269C49.9391 117.826 49.6475 118.428 49.1011 118.62L46.529 119.526C46.4144 119.566 46.2959 119.586 46.1769 119.586C45.7279 119.586 45.3261 119.302 45.1771 118.878ZM9.14961 34.2733L9.39762 35.0795C9.39762 35.0795 14.2243 50.7737 14.916 53.022C15.1568 53.8052 15.9702 54.4942 17.0001 55.3666C18.2002 56.3833 19.6919 57.6469 20.3337 59.1618C20.3731 59.2547 20.4438 59.4225 20.5637 59.5797C26.7838 77.2075 35.7529 101.756 43.1872 118.687L43.4662 119.48C43.8704 120.629 44.9597 121.4 46.1769 121.4C46.5015 121.4 46.8227 121.345 47.131 121.236L49.7034 120.331C51.1711 119.815 51.9661 118.193 51.4757 116.716C46.6528 98.5881 37.7789 72.9902 31.1818 54.7035C30.9518 53.2521 31.2736 51.5896 31.5324 50.2524C31.7888 48.9267 31.9911 47.8803 31.6885 47.1189L24.441 28.8918L18.6299 30.7275L18.821 31.5452C19.1764 33.0665 22.2969 46.4023 23.1343 49.4472C23.3644 50.2839 24.1138 51.1787 25.0629 52.3114C25.8589 53.2616 26.7603 54.3375 27.4344 55.4942L39.1915 94.6511L23.422 56.4568C23.2856 55.262 23.311 54.0186 23.3337 52.9206C23.3636 51.4424 23.3873 50.2759 23.0426 49.4796C21.7549 46.504 15.4599 33.3798 15.1926 32.8226L14.8291 32.0653L9.14961 34.2733Z" fill="#201600"/>
<path d="M47.9147 109.326L50.6043 116.968C50.965 117.992 50.427 119.115 49.4022 119.476L46.8298 120.381C45.8053 120.742 44.6821 120.203 44.3217 119.179L41.6321 111.537L47.9147 109.326Z" fill="white"/>
<path d="M45.5363 112.395L44.4046 119.201C32.0913 91.4022 15.1927 41.3105 15.1927 41.3105L16.0334 40.9379L45.5363 112.395Z" fill="white"/>
<path d="M22.2104 49.8397C22.812 51.2297 21.9363 55.1855 22.8725 58.3662C23.2975 59.8112 21.3264 57.107 21.3264 57.107C21.3264 57.107 21.6574 59.9623 21.1685 58.8079C19.9271 55.8784 16.1752 54.0317 15.7826 52.7552C15.0909 50.5069 10.2643 34.8127 10.2643 34.8127L14.3749 33.2146C14.3749 33.2146 20.9051 46.8238 22.2104 49.8397Z" fill="white"/>
<path d="M45.4726 112.417L50.6173 117.015C42.8053 87.6315 24.1373 38.1625 24.1373 38.1625L23.2481 38.3984L45.4726 112.417Z" fill="white"/>
<path d="M24.0085 49.2069C24.4102 50.6674 27.5707 53.2027 28.8331 56.2685C29.4063 57.6611 29.25 54.3183 29.25 54.3183C29.25 54.3183 30.78 56.7517 30.438 55.5457C29.5708 52.4845 31.3392 48.6951 30.8459 47.4538C29.9767 45.2681 23.9096 30.0104 23.9096 30.0104L19.704 31.339C19.704 31.339 23.1373 46.0386 24.0085 49.2069Z" fill="white"/>
<path d="M13.8803 35.1932C13.8803 35.1932 19.1298 47.7463 20.4351 50.7619C20.9342 51.9152 20.8738 53.9108 21.2172 56.6877L44.8967 111.435L45.3613 110.564L28.2725 55.1325C26.8155 52.579 24.3594 50.4826 24.0085 49.2069C23.1373 46.0383 19.704 31.8337 19.704 31.8337L23.0973 31.7668C23.0973 31.7668 28.1631 45.4328 29.0323 47.6187C29.4929 48.7782 28.6401 51.9972 29.1464 54.9333C35.2996 71.9867 45.6833 98.4654 50.609 116.984C50.9584 118.004 50.4216 119.117 49.4022 119.476L46.8298 120.381C45.8053 120.742 44.682 120.203 44.3217 119.179L44.0311 118.354C36.4721 101.143 27.2909 75.9255 21.3493 59.081C21.3082 59.0792 21.2498 58.9999 21.1685 58.808C19.9271 55.8784 16.1751 54.0318 15.7826 52.7552C15.0909 50.507 10.2643 35.3075 10.2643 35.3075L13.8803 35.1932Z" fill="#E0D8C7"/>
<path d="M20.4854 31.7837C21.1376 34.5674 23.8862 46.2745 24.6445 49.0319C24.784 49.5394 25.5027 50.3974 26.2635 51.3053C27.1227 52.3311 28.0969 53.4937 28.8455 54.8058L28.8827 54.8708L45.6794 110.812L44.3608 111.275L21.8926 56.8569L21.8816 56.7684C21.7157 55.4258 21.7431 54.0778 21.7675 52.8886C21.7917 51.7041 21.8144 50.585 21.6053 50.1018C20.4692 47.4769 15.2797 36.6292 14.0444 34.0508L11.075 35.2051C11.9573 38.0744 15.8015 50.5735 16.413 52.5612C16.5192 52.9063 17.3127 53.5788 18.0129 54.1719C19.3114 55.2716 20.9209 56.6348 21.7262 58.4371L21.823 58.4412L21.9714 58.8616C28.2034 76.5298 37.1942 101.147 44.6351 118.088L44.9438 118.96C45.1277 119.483 45.6233 119.834 46.1769 119.834C46.324 119.834 46.4701 119.808 46.6109 119.759L49.1833 118.854C49.8572 118.617 50.2169 117.874 49.9853 117.198L49.9719 117.154C45.1539 99.0404 36.2778 73.4422 29.6802 55.1571L29.6604 55.1026L29.6507 55.0454C29.3487 53.2941 29.7066 51.4424 29.9946 49.9547C30.1688 49.0538 30.3663 48.0327 30.233 47.6976L23.5235 30.824L20.4854 31.7837ZM43.6994 119.398L43.4175 118.596C35.9843 101.669 27.0181 77.1288 20.7834 59.4585C20.6689 59.3192 20.6018 59.1609 20.5614 59.0651C19.8963 57.4955 18.3793 56.2107 17.1605 55.1783C16.1612 54.3319 15.372 53.6634 15.1524 52.949C14.4606 50.7008 9.63393 35.0066 9.63393 35.0066L9.45366 34.4204L14.7054 32.3788L14.9696 32.9294C15.2365 33.4854 21.5202 46.5847 22.8158 49.5778C23.139 50.3247 23.1157 51.468 23.0862 52.9156C23.0633 54.0339 23.0375 55.2976 23.1803 56.5195L40.8514 99.3197L27.6629 55.395C26.9768 54.2107 26.0616 53.1183 25.2525 52.1524C24.3227 51.0428 23.5886 50.1662 23.3727 49.3817C22.5081 46.2371 19.2021 32.0898 19.0618 31.489L18.9228 30.894L24.2961 29.1968L31.4588 47.2103C31.7347 47.9044 31.5382 48.9198 31.2895 50.2052C31.0253 51.5705 30.6974 53.2657 30.9411 54.7655C37.543 73.0645 46.4148 98.6553 51.2411 116.794C51.69 118.146 50.9674 119.624 49.6212 120.098L47.0489 121.003C46.7672 121.102 46.4737 121.153 46.1769 121.153C45.0644 121.153 44.0689 120.447 43.6994 119.398Z" fill="#201600"/>
<path d="M31.9111 80.3364L44.6181 111.069L45.3613 110.564L35.655 79.0794L38.4903 78.2274C43.0148 91.481 47.6096 105.708 50.609 116.984C50.9584 118.004 50.4216 119.117 49.4022 119.476L46.8298 120.381C45.8053 120.742 44.682 120.203 44.3217 119.179L44.0311 118.354C39.3431 107.68 34.0317 93.9274 29.2556 81.0018L31.9111 80.3364Z" fill="#201600"/>
<path d="M49.1089 115.714C49.776 117.72 48.7258 118.081 48.7258 118.081L37.9406 80.0695C37.9406 80.0695 48.442 113.709 49.1089 115.714Z" fill="#E0D8C7"/>
<path d="M41.1304 123.168L38.222 126.636L22.694 147.576L19.4735 149.144L12.8405 150.861L6.41677 148.627L3.18033 141.424V133.524L5.81192 125.898L12.0169 123.25L20.0918 123.869L33.6365 118.536L35.8771 113.617L33.0945 100.682L40.7261 93.1948L44.1899 93.9236L47.536 95.4965L48.1822 96.5671L47.7354 98.1014L46.1822 98.3499L44.9114 97.3373L41.8241 98.1059L41.5133 99.7325L42.4398 99.4917L46.0272 99.4417L48.8914 100.576L48.9059 102.397L49.8281 103.767L49.7164 106.578L50.8415 108.496L50.0398 110.253L47.5476 108.939L45.8027 110.106L44.9961 118.009L43.0968 119.249L41.1304 123.168Z" fill="#F2B89C"/>
<path d="M20.0917 123.869L20.0109 123.863L28.8147 120.396C28.8166 120.408 28.8186 120.42 28.8207 120.432L20.0917 123.869ZM29.6036 120.086L29.7402 120.032L29.7462 120.062L29.6036 120.086ZM35.4969 111.85L35.3984 111.841L32.9978 100.682L34.9964 98.7215C35.005 98.744 35.0143 98.7676 35.023 98.7901L33.0944 100.682L35.4969 111.85Z" fill="#FF3E1E"/>
<path d="M29.7462 120.062L29.7402 120.032L33.5398 118.536L35.7805 113.617L35.3984 111.841L35.4969 111.85L35.8771 113.617L33.6364 118.536L29.772 120.058L29.7462 120.062Z" fill="#FF3E1E"/>
<path d="M28.8207 120.432C28.8186 120.42 28.8166 120.408 28.8147 120.397L29.6036 120.086L29.7462 120.062L29.772 120.058L28.8207 120.432Z" fill="#2E1F00"/>
<path d="M35.023 98.79C35.0143 98.7675 35.005 98.744 34.9964 98.7215L35.1881 98.5333C35.197 98.5558 35.2061 98.5793 35.2149 98.6018L35.023 98.79Z" fill="#2E1F00"/>
<path d="M35.2149 98.6018C35.2061 98.5793 35.197 98.5558 35.1881 98.5333L35.7016 98.0297C35.7105 98.0524 35.7194 98.0753 35.7283 98.0982L35.2149 98.6018ZM38.237 95.6365L38.2094 95.5693L38.783 95.0064C38.7914 95.033 38.8007 95.0553 38.8106 95.0739L38.237 95.6365Z" fill="#2E1F00"/>
<path d="M35.7283 98.0983C35.7194 98.0754 35.7105 98.0524 35.7016 98.0297L38.2094 95.5693L38.237 95.6366L35.7283 98.0983Z" fill="#2E1F00"/>
<path d="M7.49262 134.251C5.71395 134.251 8.70496 129.209 9.12334 128.857C11.1806 127.35 15.1498 125.273 17.144 123.665L17.1589 123.652L19.9952 123.869L20.011 123.863L20.0917 123.869L28.8208 120.432L29.7721 120.058L33.6365 118.536L35.8771 113.617L35.497 111.85L33.0945 100.682L35.0231 98.7901L35.215 98.6019L35.7283 98.0983L38.2371 95.6366L38.8107 95.074C38.8433 95.1349 38.8827 95.1562 38.931 95.1562C39.0375 95.1562 39.1861 95.0517 39.3929 95.0389C39.4373 95.036 39.4809 95.0348 39.5234 95.0348C40.815 95.0348 41.2445 96.2872 40.7306 97.3842C40.5395 97.8352 39.1248 99.8731 38.9727 100.329C38.6664 100.638 39.5451 100.342 39.324 100.719C38.6212 101.919 37.4825 101.688 37.8511 103.028C38.2307 104.408 40.3847 106.638 40.3847 108.203C39.9477 108.955 40.3917 109.352 40.4284 110.265C40.492 111.856 40.5597 113.453 40.4249 115.04C40.3271 115.543 40.2268 117.188 40.0646 117.673C40.0501 117.701 40.0307 117.713 40.0074 117.713C39.8893 117.713 39.6672 117.395 39.4425 117.077C39.2177 116.759 38.9905 116.441 38.8623 116.441C38.8383 116.441 38.8177 116.452 38.8012 116.477C37.0053 118.582 38.3263 119.238 36.2974 121.091C36.0617 121.307 32.9265 123.645 32.6939 123.863C32.3884 124.003 32.0821 124.14 31.7746 124.274C28.0282 125.819 24.21 127.159 20.4897 128.775C16.4004 130.552 11.8249 132.035 7.91468 134.181C7.75134 134.228 7.61138 134.251 7.49262 134.251Z" fill="#F8D7C7"/>
<path d="M33.8145 119.337C35.1398 118.925 36.4756 116.836 36.9258 116.103C37.2527 115.57 36.8137 114.66 36.2843 114.35C35.7369 114.029 34.4191 113.23 34.5443 113.84C34.7171 114.679 34.681 115.665 34.5957 115.781C34.7759 115.536 34.494 115.882 34.4444 115.934C34.3468 116.036 34.2407 116.129 34.133 116.219C34.3557 116.032 34.1375 116.214 34.0923 116.245C34.022 116.295 32.6839 117.32 32.6102 117.365C32.0795 117.691 33.1431 117.405 33.4638 117.952C33.7739 118.481 33.2416 118.808 33.7739 118.481L33.8145 119.337Z" fill="#201600"/>
<path d="M37.043 115.24C36.3642 110.585 35.773 105.893 34.2991 101.406C33.8403 100.01 31.6283 100.608 32.0907 102.015C33.5646 106.502 34.1559 111.193 34.8345 115.849C34.9249 116.468 35.6985 116.799 36.2432 116.649C36.9002 116.468 37.1332 115.857 37.043 115.24Z" fill="#201600"/>
<path d="M34.0703 102.129C34.094 101.995 34.1214 101.863 34.1545 101.731C34.1712 101.668 34.1898 101.605 34.2102 101.542C34.3045 101.24 33.8775 101.901 34.0123 101.618C34.0676 101.501 33.8401 101.531 33.9142 101.425C33.8366 101.528 34.4667 101.975 34.4401 101.845C34.2851 101.091 35.1582 100.206 35.2393 100.138C35.7188 99.7377 35.102 99.7115 34.6907 99.2999C34.2199 98.8291 33.4325 98.5736 32.9538 98.973C32.2812 99.5348 31.8738 100.612 32.0277 101.676C32.0277 101.676 32.5128 103.077 32.6616 102.929C33.0727 102.521 33.9617 102.744 34.0703 102.129Z" fill="#201600"/>
<path d="M34.3446 100.755C36.7328 99.2181 38.6738 97.1342 40.0147 94.6277C40.7113 93.3264 38.7342 92.1695 38.0372 93.4721C36.8793 95.6357 35.2554 97.4475 33.1885 98.7779C31.9516 99.5742 33.0987 101.557 34.3446 100.755Z" fill="#201600"/>
<path d="M39.603 95.353C40.4678 94.6837 42.707 94.2738 44.3237 94.8112C45.7293 95.2787 46.3268 93.0664 44.9328 92.603C42.7227 91.8683 40.6738 91.9093 38.5943 92.9624C37.2762 93.6298 38.1753 95.7041 39.4893 95.0389L39.603 95.353Z" fill="#201600"/>
<path d="M44.0505 94.6959C44.4214 94.8882 45.5155 95.2143 45.8802 95.3838C46.5588 95.6989 47.2744 96.1774 47.6084 96.5641C48.0166 97.0368 47.4071 98.7612 47.9531 98.5379C49.112 98.0632 49.2864 96.1371 48.879 95.6655C48.1557 94.8281 46.1968 93.2321 45.2061 92.7182C44.6521 92.4311 43.9665 92.571 43.6395 93.1293C43.3363 93.647 43.4967 94.4085 44.0505 94.6959Z" fill="#201600"/>
<path d="M24.4263 82.552C19.8782 87.595 15.8717 93.5237 13.1568 99.7619C12.5738 101.102 14.5464 102.269 15.1344 100.918C17.7718 94.857 21.6256 89.0726 26.0459 84.1711C27.0318 83.0776 25.4176 81.4527 24.4263 82.552Z" fill="#201600"/>
<path d="M14.6786 98.95C14.0212 98.7692 13.5076 99.1731 13.2701 99.7498C10.9047 105.494 8.61636 111.257 6.561 117.109C7.44651 116.694 8.35644 116.401 9.30175 116.214C11.2166 110.877 13.3161 105.61 15.4785 100.358C15.7166 99.7803 15.2253 99.1003 14.6786 98.95Z" fill="#201600"/>
<path d="M4.24586 136.564C4.15614 132.781 5.12952 129.027 6.22923 125.424C5.40324 126.141 4.5928 126.873 3.91362 127.741C3.711 128.001 3.40681 128.127 3.08705 128.149C2.39626 130.906 1.92581 133.724 1.95572 136.564C2.00152 140.896 3.84016 144.767 5.38105 148.721C5.91109 150.082 8.12633 149.491 7.58938 148.113C6.1232 144.35 4.34367 140.677 4.24586 136.564Z" fill="#201600"/>
<path d="M5.55175 149.028C6.93632 150.803 10.1595 151.933 12.7951 152.228C13.4168 152.297 13.6901 151.733 13.6901 151.161C13.6901 150.484 13.4804 149.999 12.8602 149.929C10.8609 149.706 8.30008 149.022 7.26711 147.298C6.51021 146.034 4.81493 147.259 5.91004 148.254L5.55175 149.028Z" fill="#201600"/>
<path d="M12.3162 152.192C18.5212 152.675 23.5759 147.793 27.8517 143.939C30.5821 141.479 33.9501 135.854 35.539 133.422C36.4829 131.977 37.5914 130.063 38.4195 128.546C39.3638 126.816 40.1186 125.725 41.4364 124.243C42.4141 123.144 40.8003 121.518 39.8168 122.624C37.4001 125.341 35.9778 128.794 33.9739 131.805C32.4238 134.134 30.96 136.517 29.3198 138.785C26.2304 143.055 18.0449 150.348 12.3162 149.901C10.8427 149.786 10.8538 152.077 12.3162 152.192Z" fill="#201600"/>
<path d="M9.21993 128.857C14.0668 125.474 27.5778 121.931 33.9566 119.278C34.5325 119.039 34.9378 118.529 34.7564 117.87C34.6065 117.325 33.9252 116.83 33.3479 117.07C26.5652 119.891 14.4062 123.05 9.21993 128.857Z" fill="#201600"/>
<path d="M41.551 124.092C42.467 123.17 42.6112 120.604 43.7413 120.009C44.7138 119.498 41.8666 118.417 41.4094 119.425C40.8614 120.633 40.4884 121.892 39.4858 123.008C38.7437 123.834 40.6538 123.861 40.9625 122.799L41.551 124.092Z" fill="#201600"/>
<path d="M42.3984 120.546C43.4298 120.164 44.4327 119.713 45.4333 119.259C45.8598 119.065 45.9597 118.456 45.7415 118.084C45.4872 117.65 44.9927 117.582 44.5665 117.776C43.7004 118.169 42.8344 118.559 41.9419 118.89C40.9124 119.27 41.3574 120.931 42.3984 120.546Z" fill="#201600"/>
<path d="M45.7964 118.847C46.3964 116.211 46.6203 113.331 46.5448 110.628C46.5 109.029 44.7824 109.026 44.8271 110.628C44.8986 113.183 44.8781 117.132 43.6005 118.209C42.7551 118.923 45.4965 119.739 45.7423 118.66L45.7964 118.847Z" fill="#201600"/>
<path d="M46.5588 110.924C46.6594 110.292 46.9512 110.061 47.9202 109.483C48.8705 108.917 48.0069 107.267 47.0532 107.836C46.2125 108.336 45.3561 108.471 44.4286 108.791C43.3883 109.15 44.7093 110.761 44.8406 111.193L46.5588 110.924Z" fill="#201600"/>
<path d="M47.0529 109.976C47.822 109.347 48.7786 110.536 49.5388 110.874C49.9667 111.064 50.0305 110.812 50.2862 110.376C50.5031 110.006 50.4061 109.391 49.978 109.201C49.2179 108.863 48.6647 108.306 47.9537 107.871C47.0061 107.291 45.9388 108.992 46.8818 109.569L47.0529 109.976Z" fill="#201600"/>
<path d="M44.572 98.3742C43.1658 98.6763 41.6756 99.4534 40.2932 99.8478C39.7995 99.989 39.3072 99.8057 38.8166 99.9578C38.1136 100.175 38.4137 101.281 39.121 101.062C40.9856 100.484 43.4013 99.516 45.1927 99.5797C45.9303 99.6062 45.1962 98.3168 44.4763 98.4714L44.572 98.3742Z" fill="#201600"/>
<path d="M44.5332 99.461C45.7419 99.6412 46.8736 100.005 47.9409 100.604C48.5857 100.966 49.1628 99.9764 48.5188 99.6152C47.3696 98.9704 46.1413 98.5512 44.8379 98.357C44.1157 98.2495 43.8051 99.3527 44.5332 99.461Z" fill="#201600"/>
<path d="M47.7153 100.482C48.2874 100.9 48.8556 101.744 48.2511 102.386C47.7444 102.924 48.9768 103.205 49.4435 102.635C50.151 101.772 49.513 100.338 48.6137 99.6804C48.0164 99.2439 46.8511 99.5407 47.4406 99.9719L47.7153 100.482Z" fill="#201600"/>
<path d="M48.4084 103.542C49.3223 103.879 49.3927 104.956 49.3151 105.883C49.2536 106.62 50.3991 106.614 50.4602 105.883C50.563 104.655 50.2303 103.471 49.3778 102.563C48.8717 102.024 48.0635 102.835 48.5683 103.373L48.4084 103.542Z" fill="#201600"/>
<path d="M48.7413 103.691C49.4065 104 49.9886 103.013 49.319 102.702C48.1527 102.162 46.9442 101.585 45.6953 101.279C45.5861 101.252 45.4876 101.258 45.3997 101.283L45.4044 101.279C44.0934 101.507 42.7462 102.399 41.5064 102.858C41.0354 103.032 40.5693 102.893 40.1089 103.103C39.4373 103.407 40.0199 104.394 40.687 104.091C42.2362 103.388 43.9413 102.904 45.6166 102.606C46.6885 102.879 47.7359 103.225 48.7413 103.691Z" fill="#201600"/>
<path d="M49.7541 105.617C48.752 105.286 47.7407 104.821 46.7244 104.538C46.6771 104.525 46.6321 104.518 46.5888 104.516L46.589 104.515C45.3021 104.308 44.0339 105.379 42.9852 105.699C42.6216 105.81 42.2608 105.601 41.9035 105.731C41.2158 105.983 41.5126 107.089 42.2079 106.836C43.5941 106.33 45.0486 105.717 46.5353 105.839C47.5128 106.113 48.4856 106.403 49.4496 106.721C50.1528 106.954 50.4519 105.848 49.7541 105.617Z" fill="#201600"/>
<path d="M49.2218 106.572C49.7376 107.269 50.0495 108.047 50.1157 108.913C50.1714 109.645 51.3172 109.65 51.2606 108.913C51.1797 107.85 50.8482 106.855 50.2107 105.994C49.7762 105.409 48.7815 105.979 49.2218 106.572Z" fill="#201600"/>
<path d="M50.0625 110.837C50.6499 110.478 51.0173 109.874 51.2404 109.237C51.3436 108.942 51.1258 108.611 50.8406 108.533C50.524 108.446 49.9817 108.001 50.0272 108.31C50.1157 108.913 49.8045 109.652 49.4845 109.848C48.8556 110.233 49.4303 111.223 50.0625 110.837Z" fill="#201600"/>
<path d="M41.6926 99.9415C41.9813 99.3607 42.2529 98.7706 42.6075 98.2264C43.0117 97.6053 42.0199 97.0324 41.6185 97.6483C41.2643 98.1929 40.8277 99.1124 40.5392 99.693C40.2114 100.352 41.364 100.603 41.6926 99.9415Z" fill="#201600"/>
<path d="M42.4399 98.4966C42.6455 98.3742 43.8375 97.8506 44.7997 98.2239C45.4889 98.4914 45.5359 96.9862 44.8026 96.9408C43.9458 96.8881 42.932 97.1261 42.0377 97.3872C41.9609 97.4095 41.4888 98.1668 42.2273 98.1668L42.4399 98.4966Z" fill="#201600"/>
<path d="M44.5109 98.0316C45.4866 98.7092 46.597 98.9032 47.7533 98.6609C48.4759 98.5094 47.9545 96.3322 47.7993 97.0519C47.656 97.715 45.8102 97.5439 45.0889 97.043C44.4806 96.6205 43.9091 97.6135 44.5109 98.0316Z" fill="#201600"/>
<path d="M45.7256 99.0524H42.9869V97.5684H45.7256V99.0524Z" fill="#201600"/>
<path d="M20.0816 123.036C20.9867 122.848 21.8849 122.618 22.791 122.464C22.6594 122.332 22.4788 122.232 22.2424 122.184C16.6596 121.044 10.2863 121.891 5.3418 124.79C3.25298 126.015 1.44054 127.764 0.604301 130.074C-0.300065 132.571 0.565924 135.276 1.98895 137.385C2.80986 138.602 4.79493 137.458 3.96642 136.229C2.791 134.487 2.1331 132.559 2.86219 130.546C3.52194 128.724 5.33051 127.41 6.96534 126.501C10.5104 124.529 14.9528 123.71 19.0876 124.037C19.1574 123.573 19.4674 123.164 20.0816 123.036Z" fill="#201600"/>
<path d="M2.4331 132.166C3.28345 129.34 3.70731 126.436 4.1284 123.523C4.28456 122.441 4.4471 121.358 4.72382 120.3C4.89771 119.634 5.10073 119.046 5.60102 118.657C6.0946 118.273 6.00106 117.438 5.60102 117.038C5.11895 116.556 4.47396 116.655 3.98159 117.038C2.46875 118.214 2.25565 120.687 1.99185 122.426C1.52552 125.501 1.23374 128.094 0.335015 131.082C-0.0915705 132.5 2.00886 133.576 2.4331 132.166Z" fill="#201600"/>
<path d="M27.8856 120.728C28.6813 120.476 29.4585 120.198 30.2491 119.978C26.5093 117.03 21.4992 115.138 16.7845 114.223C11.8375 113.263 7.89027 113.9 3.98159 117.038C3.49397 117.429 3.57645 118.252 3.98159 118.657C4.45864 119.134 5.11468 119.047 5.60102 118.657C7.19334 117.108 11.4153 114.82 15.674 115.705C19.3978 116.479 24.2453 118.527 27.6096 120.845C27.6936 120.8 27.7851 120.76 27.8856 120.728Z" fill="#201600"/>
<path d="M17.7338 118.993C21.8969 119.316 24.1225 120.197 24.1225 120.197C18.8468 117.147 13.1585 116.613 8.76858 119.249C8.45279 119.439 13.3096 118.649 17.7338 118.993Z" fill="#201600"/>
<path d="M81.3249 70.6341C86.5598 72.094 91.6956 72.7864 97.0124 73.5369C99.6013 73.9022 103.059 74.865 105.451 75.9403C108.209 77.1801 111.7 82.3871 113.48 85.2415C114.256 86.4842 110.977 85.633 109.932 84.592C108.004 82.6706 106.069 78.9267 103.543 77.7915C101.307 76.7859 98.7623 76.3405 96.3472 76.0214C91.3614 75.3633 86.3152 75.1519 81.3249 74.5728C80.7053 74.5009 80.18 74.4361 80.18 73.7575C80.18 73.1879 80.7036 72.5404 81.3249 72.6126V70.6341Z" fill="#201600"/>
<path d="M83.9984 114.953L84.3047 114.172C90.8523 97.4799 96.6153 82.5906 100.532 72.2474L100.787 71.5723L101.367 71.6024C103.248 66.65 104.773 62.783 105.732 60.3867C106.163 58.4798 105.099 56.5794 104.07 54.7404C102.917 52.6818 101.829 50.7376 102.581 48.6592L109.301 30.0926C109.618 29.2156 110.355 28.6922 111.272 28.6922C111.682 28.6922 112 28.7952 112.088 28.8267L126.241 33.9494C127.239 34.3104 128.044 35.3992 127.572 36.7052L120.852 55.2718C120.1 57.3496 118.025 58.1459 115.827 58.9894C113.861 59.744 111.829 60.5244 110.944 62.2752C110.151 64.7181 108.852 68.6565 107.12 73.6843L107.585 74.0323L107.349 74.7146C103.741 85.1592 98.6442 100.274 92.9961 117.276L92.7187 118.11C91.7689 120.962 89.6397 121.27 88.768 121.27C88.5003 121.27 88.3146 121.242 88.2469 121.23L85.6277 120.296L85.4787 120.233L85.4394 120.214C84.4471 119.657 82.8683 117.841 83.9984 114.953Z" fill="#201600"/>
<path d="M84.9195 115.314C85.6013 113.571 94.8665 90.0022 101.457 72.5975L102.037 72.6277C104.047 67.3167 105.668 63.2093 106.679 60.6853C107.766 56.2166 102.274 52.4128 103.511 48.9957C104.566 46.0821 109.128 33.4767 110.231 30.4291C110.623 29.3486 111.751 29.7569 111.751 29.7569L119.118 32.4235L125.904 34.8794C125.904 34.8794 127.033 35.2878 126.641 36.3683C125.539 39.4163 121.174 52.5721 119.795 55.3467C117.69 59.5803 112.038 57.7541 110.025 61.9014C109.186 64.4877 107.802 68.6794 105.95 74.044L106.414 74.3917C100.338 91.9821 92.372 116.022 91.7802 117.797C90.8135 120.699 88.425 120.256 88.425 120.256L88.3839 120.241L87.5059 119.924L86.8428 119.684L85.9643 119.366L85.9233 119.351C85.9233 119.351 83.8048 118.163 84.9195 115.314Z" fill="white"/>
<path d="M85.0845 115.314C85.766 113.571 95.0314 90.0022 101.622 72.5975L102.201 72.6277C104.212 67.3167 105.833 63.2093 106.843 60.6853C107.931 56.2166 102.439 52.4128 103.676 48.9957C104.731 46.0821 109.293 33.4767 110.396 30.4291C110.788 29.3486 111.916 29.7569 111.916 29.7569L119.283 32.4235L126.069 34.8794C126.069 34.8794 127.197 35.2878 126.806 36.3683C125.703 39.4163 120.431 50.7761 118.852 53.4421C116.944 56.6651 112.203 57.7541 110.19 61.9014C109.351 64.4877 107.967 68.6794 106.114 74.044L106.579 74.3917C100.503 91.9821 92.5369 116.022 91.9452 117.797C90.9784 120.699 88.5899 120.256 88.5899 120.256L88.5489 120.241L87.6708 119.924L87.0077 119.684L86.1292 119.366L86.0882 119.351C86.0882 119.351 83.9697 118.163 85.0845 115.314Z" fill="white"/>
<path d="M84.9195 115.314C85.6013 113.571 94.8665 90.0022 101.457 72.5975L102.037 72.6277C104.047 67.3167 105.668 63.2093 106.679 60.6853C107.766 56.2166 102.274 52.4128 103.511 48.9957C104.566 46.0821 109.128 33.4767 110.231 30.4291C110.623 29.3486 111.751 29.7569 111.751 29.7569L119.118 32.4235L125.904 34.8794C125.904 34.8794 126.538 34.958 126.147 36.0387C125.044 39.0865 119.982 51.0064 118.602 53.7812C116.498 58.0145 112.038 57.2596 110.025 61.4066C109.186 63.9932 107.802 68.6794 105.95 74.044L106.414 74.3917C100.338 91.9821 92.372 116.022 91.7802 117.797C90.8135 120.699 88.425 120.256 88.425 120.256L88.3839 120.241L87.5059 119.924L86.8428 119.684L85.9643 119.366L85.9233 119.351C85.9233 119.351 83.8048 118.163 84.9195 115.314Z" fill="#E0D8C7"/>
<path d="M85.0845 115.314C85.766 113.571 95.0314 90.0022 101.622 72.5975L102.201 72.6277C104.212 67.3167 105.833 63.2093 106.843 60.6853C107.931 56.2166 102.439 52.4128 103.676 48.9957C104.731 46.0821 109.293 33.4767 110.396 30.4291C110.788 29.3486 111.916 29.7569 111.916 29.7569L119.283 32.4235L126.069 35.5388C126.069 35.5388 112.065 31.247 111.675 32.3277C110.571 35.3755 106.716 46.3852 105.662 49.2989C104.423 52.7203 110.267 56.1898 108.254 60.3367C107.415 62.9232 102.921 73.7203 102.921 73.7203L106.579 74.3917C100.503 91.9821 92.5369 116.022 91.9452 117.797C90.9784 120.699 88.5899 120.256 88.5899 120.256L88.5489 120.241L87.6708 119.924L87.0077 119.684L86.1292 119.366L86.0882 119.351C86.0882 119.351 83.9697 118.163 85.0845 115.314Z" fill="white"/>
<path d="M105.266 74.2537L105.404 73.8556C107.258 68.4866 108.642 64.2947 109.476 61.7233L109.506 61.6492C110.646 59.3004 113.101 58.3582 115.267 57.5269C117.2 56.7845 118.87 56.1436 119.379 54.7389L126.099 36.1723C126.264 35.7151 125.921 35.5048 125.708 35.422L111.56 30.3016C111.559 30.301 111.43 30.2582 111.272 30.2582C111.013 30.2582 110.868 30.3647 110.774 30.6254L104.054 49.1922C103.545 50.597 104.422 52.1625 105.436 53.9754C106.57 55.9995 107.854 58.294 107.239 60.8219L107.214 60.8998C106.208 63.4124 104.587 67.5219 102.576 72.832L102.427 73.2256L101.847 73.1957C97.9286 83.5369 92.2265 98.2664 85.7625 114.744L85.4564 115.524C84.6062 117.698 85.902 118.656 86.1728 118.827L88.5645 119.693C88.6052 119.698 88.6758 119.704 88.768 119.704C89.4287 119.704 90.6277 119.432 91.2328 117.615L91.5098 116.781C97.0907 99.9814 102.132 85.0277 105.731 74.6013L105.266 74.2537ZM88.3197 120.824L85.7668 119.908L85.6411 119.854C84.7571 119.358 83.3558 117.727 84.3821 115.104L84.6881 114.323C91.2328 97.6392 96.9963 82.7487 100.917 72.3932L101.066 71.9994L101.646 72.0294C103.58 66.9288 105.143 62.9678 106.127 60.5103C106.612 58.4373 105.502 56.4559 104.429 54.5389C103.325 52.5649 102.281 50.7002 102.968 48.7995L109.689 30.2326C109.948 29.5156 110.525 29.1043 111.272 29.1043C111.625 29.1043 111.896 29.1959 111.947 29.2143L126.1 34.3368C126.772 34.5799 127.615 35.3739 127.184 36.5648L120.464 55.1316C119.776 57.0321 117.786 57.7958 115.68 58.6042C113.63 59.3912 111.511 60.2046 110.561 62.1185C109.745 64.6334 108.411 68.6746 106.632 73.8341L107.097 74.1821L106.959 74.58C103.354 85.0178 98.256 100.134 92.605 117.145L92.3276 117.98C91.4626 120.577 89.5505 120.858 88.768 120.858C88.5154 120.858 88.3505 120.829 88.3197 120.824Z" fill="#201600"/>
<path d="M110.259 53.2043C110.079 53.7028 110.336 54.2528 110.835 54.4332C111.333 54.6136 111.883 54.3556 112.063 53.8574L118.391 36.3757C118.571 35.8777 118.313 35.3277 117.815 35.1473C117.317 34.9669 116.767 35.2247 116.586 35.7229L110.259 53.2043Z" fill="#201600"/>
<path d="M115.068 52.8995C114.888 53.3977 115.146 53.9477 115.644 54.1281C116.142 54.3085 116.692 54.0505 116.873 53.5525L122.078 39.1716C122.258 38.6733 122 38.1231 121.502 37.9429C121.004 37.7627 120.454 38.0203 120.273 38.5185L115.068 52.8995Z" fill="#201600"/>
<path d="M106.759 49.8919C106.578 50.3902 106.836 50.9404 107.334 51.1206C107.833 51.301 108.383 51.0434 108.563 50.5449L113.768 36.164C113.948 35.6658 113.691 35.1159 113.192 34.9355C112.694 34.7552 112.144 35.0127 111.964 35.511L106.759 49.8919Z" fill="#201600"/>
<path d="M84.9195 115.314C85.6013 113.571 94.8665 90.0022 101.457 72.5975L102.037 72.6277C102.037 72.6277 106.414 74.3917 105.95 74.044L106.414 74.3917C100.338 91.9821 92.372 116.022 91.7802 117.797C90.8135 120.699 88.425 120.256 88.425 120.256L88.3839 120.241L87.5059 119.924L86.8428 119.684L85.9643 119.366L85.9233 119.351C85.9233 119.351 83.8048 118.163 84.9195 115.314Z" fill="#201600"/>
<path d="M86.5851 115.362C85.8252 117.334 86.8576 117.743 86.8576 117.743L102.178 74.0924C102.178 74.0924 87.3451 113.39 86.5851 115.362Z" fill="#E0D8C7"/>
<path d="M111.176 82.552C115.724 87.595 119.731 93.5237 122.445 99.7619C123.028 101.102 121.056 102.269 120.468 100.918C117.83 94.857 113.977 89.0726 109.556 84.1711C108.57 83.0776 110.185 81.4527 111.176 82.552Z" fill="#201600"/>
<path d="M94.4719 123.168L97.38 126.636L112.414 147.576L116.129 149.144L122.761 150.861L129.186 148.627L132.422 141.424V133.524L129.791 125.898L123.585 123.25L115.511 123.869L101.966 118.536L99.7249 113.617L102.508 100.682L94.8762 93.1947L91.4126 93.9234L88.0663 95.4964L87.4201 96.5669L87.8667 98.1013L89.4198 98.3498L90.6911 97.3372L93.7782 98.1058L94.089 99.7324L93.1625 99.4915L89.5753 99.4416L86.7107 100.576L86.6964 102.397L85.774 103.767L85.8861 106.578L84.761 108.496L85.5629 110.253L88.0549 108.939L89.7996 110.106L90.6064 118.009L92.5055 119.249L94.4719 123.168Z" fill="#F2B89C"/>
<path d="M115.511 123.869L115.499 123.865L118.275 123.652L118.281 123.657L115.511 123.869Z" fill="#FF3E1E"/>
<path d="M127.942 134.251C127.823 134.251 127.683 134.228 127.519 134.18C123.609 132.035 119.033 130.552 114.944 128.775C111.224 127.159 107.406 125.819 103.66 124.274C103.352 124.14 103.045 124.003 102.74 123.863C102.508 123.645 99.3722 121.307 99.1369 121.091C97.1076 119.238 98.4285 118.582 96.6327 116.477C96.6161 116.452 96.5955 116.441 96.5716 116.441C96.4434 116.441 96.2161 116.759 95.9914 117.077C95.7666 117.395 95.5445 117.713 95.4265 117.713C95.4029 117.713 95.3837 117.7 95.3693 117.673C95.2071 117.188 95.1067 115.543 95.0093 115.04C94.8741 113.452 94.9418 111.856 95.0056 110.265C95.0424 109.351 95.4861 108.955 95.0492 108.202C95.0492 106.638 97.2033 104.407 97.5827 103.028C97.9517 101.688 96.8128 101.919 96.1103 100.719C95.8888 100.341 96.7676 100.638 96.4613 100.329C96.3092 99.873 94.8944 97.835 94.7032 97.3841C94.1897 96.2871 94.619 95.0347 95.9107 95.0347C95.9532 95.0347 95.9969 95.0359 96.0413 95.0388C96.2477 95.0516 96.3963 95.1562 96.503 95.156C96.5658 95.156 96.6143 95.1197 96.6512 95.0064L102.436 100.682L99.6533 113.617L101.894 118.536L115.439 123.869L115.499 123.865L115.511 123.869L118.281 123.657L118.29 123.664C120.284 125.273 124.253 127.35 126.311 128.857C126.729 129.208 129.72 134.251 127.942 134.251Z" fill="#F8D7C7"/>
<path d="M101.787 119.337C100.462 118.925 99.1268 116.836 98.6764 116.103C98.3495 115.57 98.7885 114.66 99.3179 114.35C99.8653 114.029 101.183 113.23 101.058 113.84C100.885 114.679 100.921 115.665 101.006 115.781C100.826 115.536 101.108 115.882 101.158 115.934C101.255 116.036 101.362 116.129 101.469 116.219C101.246 116.032 101.465 116.214 101.51 116.245C101.58 116.295 102.919 117.32 102.992 117.365C103.523 117.691 102.459 117.405 102.139 117.952C101.829 118.481 102.361 118.808 101.829 118.481L101.787 119.337Z" fill="#201600"/>
<path d="M98.5592 115.24C99.238 110.585 99.8294 105.893 101.303 101.406C101.762 100.01 103.974 100.608 103.512 102.015C102.038 106.502 101.447 111.193 100.767 115.849C100.677 116.468 99.9035 116.799 99.359 116.649C98.7018 116.468 98.4692 115.857 98.5592 115.24Z" fill="#201600"/>
<path d="M101.532 102.129C101.508 101.995 101.481 101.863 101.448 101.731C101.431 101.668 101.412 101.605 101.392 101.542C101.297 101.24 101.725 101.901 101.59 101.618C101.535 101.501 101.762 101.531 101.688 101.425C101.765 101.528 101.135 101.975 101.162 101.845C101.317 101.091 100.444 100.206 100.363 100.138C99.8834 99.7377 100.5 99.7115 100.912 99.2999C101.383 98.8291 102.17 98.5736 102.648 98.973C103.321 99.5348 103.728 100.612 103.575 101.676C103.575 101.676 103.089 103.077 102.94 102.929C102.529 102.521 101.641 102.744 101.532 102.129Z" fill="#201600"/>
<path d="M101.258 100.755C98.8696 99.2181 96.9284 97.1342 95.5873 94.6277C94.8907 93.3264 96.868 92.1695 97.565 93.4721C98.7229 95.6357 100.347 97.4475 102.413 98.7779C103.651 99.5742 102.504 101.557 101.258 100.755Z" fill="#201600"/>
<path d="M95.9992 95.353C95.1342 94.6837 92.8948 94.2738 91.2783 94.8112C89.8731 95.2787 89.2752 93.0664 90.6696 92.603C92.8795 91.8683 94.9286 91.9093 97.0083 92.9624C98.3258 93.6298 97.4267 95.7041 96.1125 95.0389L95.9992 95.353Z" fill="#201600"/>
<path d="M91.5521 94.6959C91.1808 94.8882 90.0867 95.2143 89.7218 95.3838C89.0434 95.6989 88.328 96.1774 87.994 96.5641C87.5858 97.0368 88.1953 98.7612 87.6494 98.5379C86.4904 98.0632 86.3156 96.1371 86.723 95.6655C87.4467 94.8281 89.4058 93.2321 90.3959 92.7182C90.9503 92.4311 91.6355 92.571 91.9629 93.1293C92.2661 93.647 92.1055 94.4085 91.5521 94.6959Z" fill="#201600"/>
<path d="M120.924 98.95C121.581 98.7692 122.095 99.1731 122.332 99.7498C124.698 105.494 126.986 111.257 129.041 117.109C128.156 116.694 127.246 116.401 126.3 116.214C124.386 110.877 122.286 105.61 120.124 100.358C119.886 99.7803 120.377 99.1003 120.924 98.95Z" fill="#201600"/>
<path d="M131.356 136.564C131.446 132.781 130.473 129.027 129.373 125.424C130.199 126.141 131.01 126.873 131.689 127.741C131.891 128.001 132.196 128.127 132.515 128.149C133.206 130.906 133.677 133.724 133.647 136.564C133.601 140.896 131.762 144.767 130.221 148.721C129.691 150.082 127.476 149.491 128.013 148.113C129.479 144.35 131.259 140.677 131.356 136.564Z" fill="#201600"/>
<path d="M130.05 149.028C128.666 150.803 125.443 151.933 122.807 152.228C122.185 152.297 121.912 151.733 121.912 151.161C121.912 150.484 122.122 149.999 122.742 149.929C124.741 149.706 127.302 149.022 128.335 147.298C129.092 146.034 130.788 147.259 129.692 148.254L130.05 149.028Z" fill="#201600"/>
<path d="M123.286 152.192C117.081 152.675 112.026 147.793 107.751 143.939C105.021 141.479 101.652 135.854 100.063 133.422C99.1196 131.977 98.011 130.063 97.1829 128.546C96.2385 126.816 95.4837 125.725 94.166 124.243C93.1879 123.144 94.8021 121.518 95.7852 122.624C98.2019 125.341 99.6242 128.794 101.629 131.805C103.179 134.134 104.642 136.517 106.283 138.785C109.372 143.055 117.557 150.348 123.286 149.901C124.759 149.786 124.749 152.077 123.286 152.192Z" fill="#201600"/>
<path d="M126.382 128.857C121.536 125.474 108.025 121.931 101.645 119.278C101.07 119.039 100.665 118.529 100.846 117.87C100.996 117.325 101.677 116.83 102.255 117.07C109.037 119.891 121.196 123.05 126.382 128.857Z" fill="#201600"/>
<path d="M94.0514 124.092C93.1352 123.17 92.9908 120.604 91.8609 120.009C90.8886 119.498 93.7359 118.417 94.193 119.425C94.7408 120.633 95.1136 121.892 96.1167 123.008C96.8585 123.834 94.9485 123.861 94.6397 122.799L94.0514 124.092Z" fill="#201600"/>
<path d="M93.2038 120.546C92.1724 120.164 91.1695 119.713 90.1689 119.259C89.7424 119.065 89.6426 118.456 89.8605 118.084C90.115 117.65 90.6095 117.582 91.0357 117.776C91.902 118.169 92.7678 118.559 93.6603 118.89C94.69 119.27 94.2448 120.931 93.2038 120.546Z" fill="#201600"/>
<path d="M89.8058 118.847C89.2054 116.211 88.9817 113.331 89.0576 110.628C89.102 109.029 90.8201 109.026 90.7753 110.628C90.7039 113.183 90.7241 117.132 92.0019 118.209C92.8469 118.923 90.1057 119.739 89.8601 118.66L89.8058 118.847Z" fill="#201600"/>
<path d="M89.0434 110.924C88.9431 110.292 88.6508 110.061 87.6822 109.483C86.7319 108.917 87.5955 107.267 88.5493 107.836C89.3897 108.336 90.2459 108.471 91.1736 108.791C92.2141 109.15 90.8929 110.761 90.7616 111.193L89.0434 110.924Z" fill="#201600"/>
<path d="M88.5492 109.976C87.78 109.347 86.8238 110.536 86.0632 110.874C85.6355 111.064 85.5717 110.812 85.3162 110.376C85.0993 110.006 85.1965 109.391 85.6242 109.201C86.3843 108.863 86.9375 108.306 87.6485 107.871C88.5959 107.291 89.6634 108.992 88.7206 109.569L88.5492 109.976Z" fill="#201600"/>
<path d="M91.0304 98.3742C92.4366 98.6763 93.9268 99.4534 95.3092 99.8478C95.8029 99.989 96.2948 99.8057 96.7858 99.9578C97.4884 100.175 97.1885 101.281 96.4814 101.062C94.6165 100.484 92.2011 99.516 90.4095 99.5797C89.6718 99.6062 90.406 98.3168 91.1263 98.4714L91.0304 98.3742Z" fill="#201600"/>
<path d="M91.0688 99.461C89.8601 99.6412 88.7286 100.005 87.6611 100.604C87.0165 100.966 86.4396 99.9764 87.0834 99.6152C88.2328 98.9704 89.4611 98.5512 90.7643 98.357C91.4863 98.2495 91.7971 99.3527 91.0688 99.461Z" fill="#201600"/>
<path d="M87.8869 100.482C87.3148 100.9 86.7464 101.744 87.3507 102.386C87.8578 102.924 86.6254 103.205 86.1587 102.635C85.4512 101.772 86.089 100.338 86.9887 99.6804C87.5858 99.2439 88.7511 99.5407 88.1619 99.9719L87.8869 100.482Z" fill="#201600"/>
<path d="M87.1938 103.542C86.2801 103.879 86.2095 104.956 86.2869 105.883C86.3486 106.62 85.2029 106.614 85.142 105.883C85.0392 104.655 85.3722 103.471 86.224 102.563C86.7307 102.024 87.5389 102.835 87.0339 103.373L87.1938 103.542Z" fill="#201600"/>
<path d="M86.8609 103.691C86.1957 104 85.6136 103.013 86.2828 102.702C87.45 102.162 88.658 101.585 89.9069 101.279C90.0161 101.252 90.1146 101.258 90.2027 101.283L90.198 101.279C91.509 101.507 92.8558 102.399 94.0958 102.858C94.567 103.032 95.0327 102.893 95.4933 103.103C96.1645 103.407 95.5821 104.394 94.9154 104.091C93.3662 103.388 91.6609 102.904 89.9856 102.606C88.914 102.879 87.8663 103.225 86.8609 103.691Z" fill="#201600"/>
<path d="M85.8479 105.617C86.85 105.286 87.8611 104.821 88.8778 104.538C88.9253 104.525 88.9705 104.518 89.0136 104.516V104.515C90.2999 104.308 91.5682 105.379 92.6167 105.699C92.9806 105.81 93.3416 105.601 93.6987 105.731C94.3864 105.983 94.0898 107.089 93.3942 106.836C92.0081 106.33 90.5536 105.717 89.0669 105.839C88.0892 106.113 87.1164 106.403 86.1525 106.721C85.4491 106.954 85.1505 105.848 85.8479 105.617Z" fill="#201600"/>
<path d="M86.3804 106.572C85.8648 107.269 85.5528 108.047 85.4867 108.913C85.4306 109.645 84.2855 109.65 84.3414 108.913C84.4229 107.85 84.7538 106.855 85.3915 105.994C85.826 105.409 86.8207 105.979 86.3804 106.572Z" fill="#201600"/>
<path d="M85.54 110.837C84.9525 110.478 84.5849 109.874 84.362 109.237C84.2588 108.942 84.4764 108.611 84.7618 108.533C85.0782 108.446 85.6205 108.001 85.5755 108.31C85.4867 108.913 85.798 109.652 86.1179 109.848C86.7468 110.233 86.1715 111.223 85.54 110.837Z" fill="#201600"/>
<path d="M93.9094 99.9415C93.6209 99.3607 93.3497 98.7706 92.9949 98.2264C92.5905 97.6053 93.5825 97.0324 93.9833 97.6483C94.3381 98.1929 94.7746 99.1124 95.0632 99.693C95.3905 100.352 94.238 100.603 93.9094 99.9415Z" fill="#201600"/>
<path d="M93.1621 98.4966C92.9565 98.3742 91.765 97.8506 90.8023 98.2239C90.1129 98.4914 90.0661 96.9862 90.7998 96.9408C91.6564 96.8881 92.6704 97.1261 93.5645 97.3872C93.6415 97.4095 94.1132 98.1668 93.3751 98.1668L93.1621 98.4966Z" fill="#201600"/>
<path d="M91.0913 98.0316C90.1158 98.7092 89.0052 98.9032 87.8489 98.6609C87.1265 98.5094 87.6479 96.3322 87.8031 97.0519C87.9462 97.715 89.7916 97.5439 90.5131 97.043C91.1216 96.6205 91.6931 97.6135 91.0913 98.0316Z" fill="#201600"/>
<path d="M89.8766 99.0524H92.6155L92.9453 97.7333L89.8766 97.5684V99.0524Z" fill="#201600"/>
<path d="M115.521 123.036C114.616 122.848 113.717 122.618 112.811 122.464C112.943 122.332 113.124 122.232 113.36 122.184C118.943 121.044 125.316 121.891 130.261 124.79C132.349 126.015 134.162 127.764 134.998 130.074C135.903 132.571 135.036 135.276 133.614 137.385C132.792 138.602 130.807 137.458 131.636 136.229C132.811 134.487 133.469 132.559 132.74 130.546C132.08 128.724 130.272 127.41 128.637 126.501C125.092 124.529 120.649 123.71 116.515 124.037C116.445 123.573 116.135 123.164 115.521 123.036Z" fill="#201600"/>
<path d="M133.169 132.165C132.319 129.34 131.895 126.436 131.474 123.522C131.318 122.441 131.155 121.358 130.879 120.299C130.705 119.634 130.501 119.046 130.002 118.657C129.508 118.273 129.601 117.438 130.002 117.038C130.484 116.555 131.129 116.655 131.621 117.038C133.134 118.214 133.347 120.686 133.611 122.426C134.077 125.501 134.368 128.094 135.267 131.082C135.694 132.5 133.593 133.576 133.169 132.165Z" fill="#201600"/>
<path d="M107.716 120.728C106.921 120.476 106.144 120.198 105.353 119.978C109.093 117.03 114.103 115.138 118.818 114.223C123.765 113.263 127.712 113.9 131.621 117.038C132.108 117.429 132.026 118.252 131.621 118.657C131.144 119.134 130.488 119.047 130.002 118.657C128.409 117.108 124.187 114.82 119.928 115.705C116.204 116.479 111.357 118.527 107.993 120.845C107.909 120.8 107.817 120.76 107.716 120.728Z" fill="#201600"/>
<path d="M117.868 118.993C113.705 119.316 111.48 120.197 111.48 120.197C116.756 117.147 122.444 116.613 126.834 119.249C127.15 119.439 122.293 118.649 117.868 118.993Z" fill="#201600"/>
<path d="M44.8505 88.5154C45.5685 83.7274 47.0335 77.9437 47.8651 73.1739C47.991 72.4519 46.7229 71.978 46.5962 72.7047C45.7646 77.4743 44.8505 88.5154 44.8505 88.5154Z" fill="#201600"/>
<path d="M40.6108 128.234C38.7223 134.236 35.1607 142.659 33.031 146.328C32.6595 146.968 33.3945 149.424 33.7827 148.798C37.1489 143.368 39.0321 136.447 40.6108 128.234Z" fill="#201600"/>
<path d="M34.0814 153.725C34.0021 151.469 35.3221 145.545 36.0195 144.512L32.4504 146.114C32.4669 146.973 33.3778 153.39 34.0814 153.725Z" fill="#201600"/>
<path d="M101.489 146.114L98.2741 144.905C98.7994 146.016 99.0731 149.395 98.7002 150.452C99.856 150.405 101.477 146.768 101.489 146.114Z" fill="#201600"/>
<path d="M89.2632 88.5154C88.5447 83.7274 87.0799 77.9437 86.2481 73.1739C86.1224 72.4519 87.3905 71.978 87.5173 72.7047C88.3488 77.4743 89.2632 88.5154 89.2632 88.5154Z" fill="#201600"/>
<path d="M100.172 147.721C100.451 147.1 101.316 146.73 101.082 146.328C98.953 142.659 95.391 134.236 93.5028 128.234C95.0188 136.121 96.8196 142.813 99.941 148.141C100.241 148.245 99.8758 147.607 100.172 147.721Z" fill="#201600"/>
<path d="M52.5279 94.9673C59.1884 96.7466 69.8532 97.715 81.7631 94.9908C68.7764 95.9513 59.5137 95.4463 52.5279 94.9673Z" fill="#201600"/>
<path d="M32.4599 119.335C33.9134 117.675 35.1699 115.831 36.1012 113.828C36.7196 112.498 34.7458 111.334 34.1237 112.672C33.2752 114.497 32.1664 116.202 30.8405 117.716C29.8721 118.822 31.4851 120.449 32.4599 119.335Z" fill="#201600"/>
<path d="M35.4488 93.3318C33.7607 89.3471 32.1937 85.5596 29.2314 82.0181C28.727 81.415 29.9811 84.4983 32.5355 89.484C32.8994 90.1942 35.4488 93.3318 35.4488 93.3318Z" fill="#201600"/>
<path d="M31.8901 90.7525C31.8901 90.7525 29.8946 87.8378 27.9332 86.3012C27.9332 86.3012 28.9646 88.1802 30.2834 89.6641C30.7753 90.2171 32.379 91.3023 31.8901 90.7525Z" fill="#201600"/>
<path d="M10.8889 148.26C12.8525 148.899 14.3048 148.457 16.1394 147.93C16.8478 147.726 14.2219 147.355 13.5108 147.56C11.8825 148.027 10.8889 148.26 10.8889 148.26Z" fill="#201600"/>
<path d="M100.37 93.3318C102.058 89.3471 103.625 85.5596 106.587 82.0181C107.092 81.415 105.838 84.4983 103.283 89.484C102.919 90.1942 100.37 93.3318 100.37 93.3318Z" fill="#201600"/>
<path d="M103.929 90.7525C103.929 90.7525 105.925 87.8378 107.885 86.3012C107.885 86.3012 106.854 88.1802 105.535 89.6641C105.044 90.2171 103.44 91.3023 103.929 90.7525Z" fill="#201600"/>
<path d="M124.93 148.26C122.966 148.899 121.514 148.457 119.68 147.93C118.971 147.726 121.597 147.355 122.308 147.56C123.936 148.027 124.93 148.26 124.93 148.26Z" fill="#201600"/>
<path d="M38.6007 108.199C37.7879 107.339 37.6057 105.718 38.1625 104.766C38.2789 104.567 38.1262 104.353 37.9153 104.336C36.8525 104.247 36.585 103.028 36.585 103.028C36.5528 103.786 36.8215 104.541 37.4925 104.81C37.017 105.797 36.9673 106.848 37.6238 107.808C38.0571 108.441 38.8783 109.091 39.674 109.14C39.674 109.14 38.9439 108.562 38.6007 108.199Z" fill="#201600"/>
<path d="M36.2667 101.331C36.2517 101.299 36.2482 101.295 36.2566 101.318C36.2492 101.299 36.243 101.28 36.2374 101.261C36.2168 101.194 36.2248 101.229 36.2232 101.16C36.2147 100.791 35.6422 100.79 35.6506 101.16C35.6581 101.491 35.8251 101.797 36.1221 101.956C36.4475 102.13 36.308 101.4 36.2667 101.331Z" fill="#201600"/>
<path d="M96.9398 108.199C97.7526 107.339 97.9346 105.718 97.378 104.766C97.2612 104.567 97.4143 104.353 97.625 104.336C98.6882 104.247 98.9555 103.028 98.9555 103.028C98.9877 103.786 98.7188 104.541 98.0475 104.81C98.5233 105.797 98.5732 106.848 97.9163 107.808C97.4837 108.441 96.662 109.091 95.8663 109.14C95.8663 109.14 96.5968 108.562 96.9398 108.199Z" fill="#201600"/>
<path d="M99.2739 101.331C99.2888 101.299 99.2921 101.295 99.2841 101.318C99.2913 101.299 99.2973 101.28 99.3028 101.261C99.3235 101.194 99.3158 101.229 99.3175 101.16C99.326 100.791 99.8983 100.79 99.8898 101.16C99.8822 101.491 99.7152 101.797 99.4182 101.956C99.0929 102.13 99.2325 101.4 99.2739 101.331Z" fill="#201600"/>
<path d="M37.2917 120.07C37.4713 120.117 37.4709 120.117 37.2917 120.07Z" fill="#201600"/>
<path d="M37.5423 113.706C37.4476 113.57 37.2513 113.655 37.2806 113.816C37.6346 115.759 37.992 117.707 38.4812 119.621C38.312 119.474 38.1417 119.327 37.9745 119.178C37.85 119.067 36.8492 117.911 36.7592 117.922C35.4998 118.071 36.4096 119.954 37.2917 120.07C36.2199 119.929 35.9526 118.31 36.6393 118.071C36.6393 118.071 37.4775 118.802 37.6116 118.93C38.0496 119.35 38.1958 119.728 38.6364 120.144C38.7398 120.242 38.9134 120.146 38.8756 120.005C38.3809 118.158 37.7704 115.938 37.4257 114.058C38.2484 115.23 39.3254 116.744 40.0154 117.993C39.2185 116.55 38.4866 115.061 37.5423 113.706Z" fill="#201600"/>
<path d="M40.0154 117.992C40.1051 118.155 40.1049 118.155 40.0154 117.992Z" fill="#201600"/>
<path d="M96.7313 115.334C97.2019 114.695 97.5805 113.995 98.0504 113.356C98.16 113.207 97.2882 114.121 97.0409 114.509C96.8624 114.789 96.6234 115.481 96.7313 115.334Z" fill="#201600"/>
<path d="M95.5175 118.788C95.3967 118.903 95.5503 119.088 95.6909 119.013C96.8399 118.399 98.1439 118.239 99.3183 117.694C99.4855 117.616 96.6958 118.152 95.5466 118.766C95.6042 118.841 95.6624 118.915 95.72 118.991C97.1668 117.612 98.0779 113.902 98.0504 114.015C98.0077 114.195 96.9334 117.439 95.5175 118.788Z" fill="#201600"/>
<path d="M81.0677 68.8825C81.3608 68.2152 81.7928 67.513 82.2215 66.7923C81.2793 65.3622 81.0919 63.5352 81.6712 61.8525C81.7501 61.1582 81.8582 60.4682 82.0642 59.7995C82.2318 59.2535 82.3843 58.7204 82.4661 58.1543C82.4017 58.6362 82.3366 59.1183 82.2718 59.6005C82.463 58.1111 82.722 56.7252 83.0908 55.2798C83.2968 54.4726 83.4871 53.6644 83.632 52.8454C83.7259 51.9259 83.7856 50.9953 83.7984 50.0787C83.8157 48.856 84.2349 47.7171 84.9309 46.8003C84.8337 46.5099 84.7158 46.214 84.6083 45.9262C84.3946 44.1638 83.9323 44.0227 84.5055 41.2124C84.5608 40.9311 84.6332 40.5829 84.6696 40.2322C84.0452 40.3008 83.4178 40.3668 82.7913 40.4403C81.0153 40.7041 81.2048 38.8824 81.4528 37.0608C81.7135 35.1479 82.0388 33.2348 80.2202 33.737C76.8658 34.6629 63.4722 36.254 60.2361 37.5499C57.622 38.7123 51.9661 43.238 49.6655 44.9399C48.1454 46.1772 47.7908 51.819 50.4418 54.3257C50.8393 54.5102 51.2418 54.6866 51.6249 54.9007C52.2315 55.2402 52.6596 55.698 53.0899 56.1595C53.2868 56.6757 53.4654 57.0914 53.4654 57.0914C53.6775 57.139 53.9298 57.4678 54.1913 57.9403C54.1364 59.625 53.5607 62.0873 53.1436 64.1364C54.7698 65.4303 54.7254 67.5822 54.7987 69.6884C55.4179 70.1055 56.5764 71.6529 57.1892 72.0789C58.8742 73.2512 58.7857 73.1449 59.9921 74.5934C59.9547 74.5439 59.8295 74.7067 59.704 74.8696C59.5787 75.0322 59.453 75.195 59.415 75.1459C59.5766 75.3496 61.0776 75.3377 61.2387 75.5414C61.1952 75.4875 61.3287 75.5622 61.4617 75.6371C61.5933 75.7112 61.7244 75.7853 61.6819 75.7341C62.428 76.7238 63.1011 76.3865 63.8026 77.3954C63.9628 77.4332 64.1242 77.4662 64.2864 77.4978C65.9783 77.5871 67.3603 78.4637 69.0446 78.2464C70.5341 77.9795 72.3057 76.5529 73.7158 76.0119C74.9808 75.3915 76.1895 74.6735 77.361 73.8838C78.8279 72.8948 80.1585 71.6797 81.7381 70.8667C81.786 70.8418 81.8367 70.8162 81.8861 70.7912C82.298 69.9522 80.8939 69.2779 81.0677 68.8825Z" fill="#F2B89C"/>
<path d="M73.5147 58.7025L79.9102 58.6226L79.876 55.8623L73.4805 55.9424L71.7672 57.8951L73.5147 58.7025Z" fill="#E0D8C7"/>
<path d="M84.3414 8.09559L84.3461 8.10632C84.308 7.83182 84.2696 7.55753 84.2326 7.28261L84.2322 7.2822C84.2687 7.5534 84.3051 7.82439 84.3414 8.09559Z" fill="#E0D8C7"/>
<path d="M82.1282 34.3003C82.1061 34.2091 82.0807 34.1199 82.0537 34.0316C81.3276 32.5189 80.4993 30.9309 80.6149 29.2269C80.7387 27.3991 81.2322 26.033 82.4363 24.6266C82.7986 24.2039 83.2502 23.8685 83.709 23.5438C83.8157 23.4437 83.9189 23.3408 84.0196 23.2353C84.0813 23.1346 84.1402 23.032 84.1967 22.9284C84.5127 21.9534 84.6983 20.9301 84.8485 19.9113C85.1779 17.1708 85.1868 14.4326 84.863 11.6925C84.714 10.6582 84.56 9.62501 84.4128 8.59015L84.407 8.5854L84.4141 8.63536L84.4048 8.58335L84.3495 8.53525C83.3856 7.89357 82.3497 7.38749 81.283 6.92888C81.7162 7.11196 82.1496 7.29462 82.5827 7.47748C79.156 6.0321 75.773 4.49012 72.355 3.02782C69.7234 1.94941 67.0284 1.03818 64.221 0.566978C62.5609 0.403307 60.8998 0.408469 59.2365 0.59443C59.1038 0.60929 58.9688 0.612184 58.833 0.609295C58.4012 1.23137 57.8369 1.7682 57.1461 2.15973C55.5471 3.06663 53.8208 3.78777 52.0796 4.37249C51.0045 4.73347 49.9033 5.01396 48.8383 5.39991C46.7879 6.37513 44.798 7.65664 42.9541 8.99139C42.8112 9.11729 42.6736 9.24794 42.5398 9.38271C42.1378 10.0896 41.8775 10.8429 41.443 11.5505C40.8847 12.4598 40.183 13.2384 39.3687 13.8431C39.287 13.9915 39.1962 14.1366 39.0934 14.2769C36.7931 17.4209 34.7569 20.7711 33.1712 24.3329C32.4106 26.2424 31.8005 28.2071 31.4521 30.2345C31.3879 30.8843 31.3576 31.5377 31.3862 32.1889C31.4525 32.4778 31.533 32.7629 31.6267 33.0444C31.8459 33.4693 32.0921 33.8774 32.3611 34.2733C32.8944 34.8885 33.4756 35.4559 34.0973 35.9824C34.9881 36.6107 35.9285 37.1584 36.9138 37.6253C37.77 37.9448 38.6455 38.1989 39.5427 38.372C39.8046 38.391 40.0672 38.4022 40.331 38.4047C42.3782 38.4234 44.1912 39.5863 45.1182 41.287C45.2812 41.4193 45.4253 41.5404 45.5264 41.6221C45.9683 41.9794 46.3638 42.4593 46.5919 42.9742C47.0726 44.0597 47.4348 44.754 47.3947 45.9884L47.3939 46.0105C49.5541 44.5909 52.2094 44.192 54.6619 44.7998C55.0569 44.7773 55.4555 44.7827 55.855 44.8002C55.9791 44.477 56.1153 44.1567 56.2736 43.8425C58.5574 39.3064 63.5027 37.0668 68.0778 35.5946C72.6681 34.118 77.6609 34.6289 82.3443 35.2049C82.381 35.2095 82.4173 35.2169 82.4541 35.2221C82.3168 34.9306 82.206 34.6235 82.1282 34.3003Z" fill="#E0D8C7"/>
<path d="M84.863 11.6925C84.714 10.6582 84.56 9.62501 84.4128 8.59015L84.407 8.5854L84.4141 8.63536L84.4048 8.58335L84.3495 8.53525C83.3856 7.89357 82.3497 7.38749 81.283 6.92888C81.7162 7.11196 82.1496 7.29462 82.5827 7.47748C79.156 6.0321 75.773 4.49012 72.355 3.02782C69.7234 1.94941 67.0284 1.03818 64.221 0.566978C62.5609 0.403307 60.8998 0.408469 59.2365 0.59443C59.1038 0.60929 58.9688 0.612184 58.833 0.609295C58.4012 1.23137 57.8369 1.7682 57.1461 2.15973C55.5471 3.06663 53.8208 3.78777 52.0796 4.37249C51.0045 4.73347 49.9033 5.01396 48.8383 5.39991C46.7879 6.37513 44.798 7.65664 42.9541 8.99139C42.8112 9.11729 42.6736 9.24794 42.5398 9.38271C42.1378 10.0896 41.8775 10.8429 41.443 11.5505C40.8847 12.4598 40.183 13.2384 39.3687 13.8431C39.287 13.9915 39.1962 14.1366 39.0934 14.2769C36.7931 17.4209 34.7569 20.7711 33.1712 24.3329C32.4106 26.2424 31.8005 28.2071 31.4521 30.2345C31.3879 30.8843 31.3576 31.5377 31.3862 32.1889C31.4525 32.4778 31.533 32.7629 31.6267 33.0444C31.8459 33.4693 32.0921 33.8774 32.3611 34.2733C32.8944 34.8885 33.4756 35.4559 34.0973 35.9824C34.9881 36.6107 35.9285 37.1584 36.9138 37.6253C37.77 37.9448 38.6455 38.1989 39.5427 38.372C39.8046 38.391 40.0672 38.4022 40.331 38.4047C42.3782 38.4234 44.1912 39.5863 45.1182 41.287C45.2812 41.4193 45.4253 41.5404 45.5264 41.6221C45.9683 41.9794 46.3638 42.4593 46.5919 42.9742C47.0726 44.0597 47.4348 44.754 47.3947 45.9884L47.3939 46.0105C48.9043 45.0179 50.6569 44.5261 52.4129 44.5267C51.8763 43.3294 51.6938 44.9837 51.2329 43.7548C51.1615 43.6099 51.3655 44.7362 51.2858 44.5959C50.2319 43.8595 48.9498 38.6344 48.604 37.3778C48.345 36.4136 48.345 35.4495 48.604 34.4852C48.7623 34.1063 48.9048 33.7754 49.0478 33.4706C47.4377 34.1494 41.4339 33.1996 39.6715 32.6341C36.2308 31.5305 35.6321 28.4851 37.8637 25.6493C39.4265 23.6633 44.3134 27.7192 43.1745 25.4613C41.7221 22.5818 40.0577 16.5384 43.1745 14.581C44.9301 13.4784 51.6313 9.01264 53.5436 8.21968C55.1869 7.53796 56.9081 6.96439 58.6771 6.72538C60.1178 6.53075 61.5991 6.36233 63.0602 6.44035C63.4986 6.29195 66.7585 9.20562 67.2144 9.1402C68.8429 8.90697 66.49 3.94586 68.1145 4.2765C69.1731 4.49219 71.2609 7.07377 71.9781 7.89955C72.5944 8.60893 72.937 9.24648 73.266 9.99322C73.2161 9.87516 73.1663 9.75711 73.1164 9.63905C73.8658 11.3092 73.5147 15.1304 73.8215 16.9716C74.2303 19.4261 75.7911 22.9117 77.4757 24.3907C78.2636 25.0823 74.3387 23.613 73.58 24.2728C73.5862 24.4295 73.5921 24.5861 73.6031 24.7426L73.6058 24.7579C73.7837 25.5935 73.7901 26.4354 73.639 27.2303C73.821 27.6243 73.9614 28.0193 74.0621 28.4141C74.8161 30.2958 75.1046 32.2925 74.4305 34.285C74.3907 34.4033 74.3492 34.5201 74.3065 34.6363C76.9994 34.5802 79.7203 34.8821 82.3443 35.2049C82.381 35.2095 82.4173 35.2169 82.4541 35.2221C82.3168 34.9306 82.206 34.6235 82.1282 34.3003C82.1061 34.2091 82.0807 34.1199 82.0537 34.0316C81.3276 32.5189 80.4993 30.9309 80.6149 29.2269C80.7387 27.3991 81.2322 26.033 82.4363 24.6266C82.7986 24.2039 83.2502 23.8685 83.709 23.5438C83.8157 23.4437 83.9189 23.3408 84.0196 23.2353C84.0813 23.1346 84.1402 23.032 84.1967 22.9284C84.5127 21.9534 84.6983 20.9301 84.8485 19.9113C85.1779 17.1708 85.1868 14.4326 84.863 11.6925Z" fill="white"/>
<path d="M84.5055 41.2124C83.9323 44.0227 84.3946 44.1638 84.6083 45.9269C84.7521 47.1124 83.2107 45.5818 81.865 45.1413C81.865 45.1413 82.019 43.7779 82.167 42.9517C82.2347 42.5727 80.5117 41.6826 80.5548 41.3057C80.5899 40.9918 83.4541 41.4539 83.4706 41.1486C83.4747 41.0714 83.5831 41.0271 83.6246 41.1045L84.5055 41.2124Z" fill="#201600"/>
<path d="M83.7891 43.0072C83.5036 42.5488 83.3571 41.9687 83.2118 41.4514C83.0425 40.8498 82.7866 40.2845 82.9616 39.6579C83.1352 39.0366 84.2188 38.4292 84.5418 39.0614C84.8372 39.6391 84.6281 40.5899 84.5055 41.2124C84.3878 41.8106 83.5899 43.472 83.3078 44.021C83.2553 44.1232 83.846 43.0987 83.7891 43.0072Z" fill="#201600"/>
<path d="M81.1362 35.7486L81.1371 35.7537C81.4522 37.249 81.7808 39.1799 83.2388 39.919C83.7323 40.1689 84.624 39.8878 84.6015 39.4298C84.5453 38.2858 83.2828 37.2301 82.9732 36.1038C82.3505 36.0581 81.7344 35.943 81.1362 35.7486Z" fill="#201600"/>
<path d="M81.7047 66.2155C82.5274 62.8066 84.6551 52.3501 82.6258 48.7951C81.9589 47.627 84.6392 46.0996 85.0316 47.3985C86.5433 52.4085 83.1428 61.1565 81.9666 65.9195C81.9381 66.0357 82.0384 65.3608 82.0384 65.3608L81.7047 66.2155Z" fill="#201600"/>
<path d="M84.3548 45.1106C84.5148 45.9009 85.2165 47.5194 85.2489 48.3223C85.2976 49.5167 81.3104 49.5786 82.0241 48.6639C82.8078 47.6614 83.059 45.7549 82.1015 45.2621C81.7919 45.1023 83.9637 45.0311 84.0339 45.3748L84.3548 45.1106Z" fill="#201600"/>
<path d="M79.8925 74.114C79.7183 74.3371 78.9234 74.4717 77.9028 75.1679C77.1855 75.657 74.627 76.9647 73.813 77.3214C72.8037 77.7643 72.4247 78.1053 72.2247 78.3759C71.781 78.1214 71.3092 77.9144 70.8218 77.76C71.0718 77.5521 71.35 77.3259 71.4588 77.2378C71.5676 74.6663 75.0505 71.0224 75.1977 70.8668C75.6524 70.3847 76.4984 70.7417 77.3529 71.0988C78.1818 71.4449 79.0188 71.7913 79.5143 71.3721C80.6654 70.3987 80.683 69.2285 81.3639 67.5432C82.4427 64.876 82.7659 61.2802 83.534 58.5426C83.5542 58.4714 84.3139 58.4681 84.2958 58.5426C83.5581 61.5766 82.4132 65.933 81.1172 68.8825C80.7222 69.7826 81.2857 72.3287 79.8925 74.114Z" fill="#201600"/>
<path d="M70.665 69.2117C71.0964 69.576 74.0537 69.1692 76.7969 68.7853C78.1236 68.5995 79.1367 67.1591 79.9715 65.6912C80.1944 65.2997 80.1034 65.5874 80.0524 65.8753C80.0052 66.1434 79.9926 66.4113 80.3009 66.1308C80.6661 65.7985 81.0064 65.7903 81.0491 66.2722C81.2479 68.5147 79.812 71.6083 77.7742 71.8164C75.5397 72.0442 74.8504 73.6042 74.0985 71.759C73.9909 71.4954 74.7845 71.3179 74.7845 71.3179C72.4206 69.9279 70.665 69.2117 70.665 69.2117Z" fill="#201600"/>
<path d="M82.54 57.9481C82.54 57.9481 81.5579 63.284 81.7348 63.9775C81.9014 64.6299 80.9814 65.6025 81.0491 66.2722C81.0834 66.6055 80.7814 66.679 80.5298 66.8588C80.2985 67.0243 80.1115 67.813 79.8425 67.7413C79.556 67.6652 78.4409 68.1077 78.6248 67.8551C78.6248 67.8551 79.6285 66.594 79.9715 65.6912C80.6931 63.7949 79.227 63.3697 78.0733 62.7773C77.9519 62.715 78.3606 62.179 78.9146 61.5454C79.2423 61.1697 78.5622 58.9526 78.5385 58.8552L82.54 57.9481Z" fill="#201600"/>
<path d="M74.6285 52.7133C74.6955 52.3443 73.3438 52.542 73.6518 52.3627C74.0658 52.121 79.7216 51.2459 80.2054 51.2366C80.7874 51.2252 78.2276 52.3662 77.812 52.6733C77.4621 52.9315 76.5672 52.8343 76.1443 52.9131C75.7847 52.9802 75.4276 53.0252 75.1038 52.8174C75.0728 52.7973 75.0607 52.7666 75.0671 52.7305L74.6285 52.7133Z" fill="#201600"/>
<path d="M78.2058 53.1813C78.1878 52.858 78.4958 52.6661 78.7368 52.5117C79.2 52.216 79.549 51.8327 79.9216 51.4341C80.3212 51.0061 81.0466 51.1082 81.3426 51.5992C81.6312 52.0783 81.393 52.8013 80.8194 52.9328C80.238 53.0663 79.6648 53.1555 79.0931 53.3278C78.9187 53.3796 78.2264 53.5476 78.2058 53.1813Z" fill="#201600"/>
<path d="M77.1348 43.9647C78.9158 46.1234 80.7701 48.7993 81.4817 51.5373C81.8029 52.773 78.1655 51.9214 79.3519 51.606C81.0318 51.16 79.5955 49.0562 78.8747 47.5553C78.3195 46.4006 77.3247 45.2431 77.1073 43.9808L77.1348 43.9647Z" fill="#201600"/>
<path d="M78.4219 41.594C79.4805 40.0545 81.3313 39.314 83.1538 39.3716C84.4877 39.4137 84.5216 41.4822 83.18 41.4481C81.6087 41.4087 80.1179 41.4477 78.5932 41.811C78.4764 41.8384 78.3426 41.7096 78.4219 41.594Z" fill="#201600"/>
<path d="M74.2553 42.1524C71.987 41.0785 69.0235 41.5689 66.7907 42.397C64.8852 43.1034 63.8827 43.7548 63.8827 43.7548C64.7768 41.1918 66.3969 40.6116 68.277 40.1718C74.8677 38.6313 74.2553 42.1524 74.3504 42.0541C74.4041 41.9994 74.3145 42.1806 74.2553 42.1524Z" fill="#201600"/>
<path d="M74.3694 50.268C73.6479 52.0236 74.8374 52.2293 74.8374 52.2293C75.8219 51.9406 74.0828 54.02 73.3886 53.2737C73.0572 52.917 72.7573 54.3321 72.5387 53.8978C72.3686 53.5589 69.795 55.0889 69.7895 54.6737C69.7665 53.0432 72.7533 50.9078 73.0305 50.6837C73.4006 50.385 73.7985 50.2009 74.2541 50.0754C74.3649 50.0449 74.452 50.1842 74.3694 50.268Z" fill="#201600"/>
<path d="M73.9263 52.7517C75.124 51.8737 76.8925 51.5538 78.3498 51.5369C78.7678 51.5326 79.4656 51.7569 79.9216 51.4341C80.0832 51.3196 79.4072 52.6399 79.3649 52.8361C79.2741 53.2626 78.8163 53.6328 78.3756 53.6091C76.9546 53.5335 75.363 53.5364 73.9855 53.1649C73.7837 53.1107 73.7732 52.8638 73.9263 52.7517Z" fill="#201600"/>
<path d="M76.4592 55.2863C73.4584 57.8741 68.1632 62.139 64.4765 54.1398C64.4765 54.1398 65.7506 54.7012 66.2041 55.271C67.5849 57.0068 69.3589 57.6039 71.5603 56.9447C73.3511 56.4089 74.1521 55.8985 75.8363 55.0964L76.4592 55.2863Z" fill="#201600"/>
<path d="M75.8093 53.2348C72.2107 54.8298 67.1837 58.0731 64.4765 54.1398C66.7096 55.3528 70.5977 54.6638 73.1564 53.0007C74.2823 52.2693 72.5034 53.2825 74.7362 52.8381C74.8175 52.822 75.1279 53.0412 75.07 53.1012L75.8093 53.2348Z" fill="#201600"/>
<path d="M78.4285 56.6555C78.4155 57.2045 78.7158 57.0788 78.2745 57.1258C77.5709 57.2012 74.639 57.3056 74.0351 56.8875C73.497 56.5149 74.6466 55.6782 75.4417 55.7372C76.0951 55.7857 76.7356 56.0212 77.3839 56.1312C77.6803 56.1814 78.4396 56.1888 78.4285 56.6555Z" fill="#201600"/>
<path d="M72.7044 57.8443C72.7044 57.8443 75.3304 58.3064 76.522 58.2959C77.6588 58.2858 79.8281 57.4158 79.8281 57.4158C80.0691 57.589 81.5005 58.3044 81.3841 58.6204C80.4731 61.0917 72.8448 59.7132 71.5781 58.203C71.4528 58.0536 72.8633 57.8183 73.1083 57.8391L72.7044 57.8443Z" fill="#201600"/>
<path d="M75.5123 61.5299C75.5123 61.5299 78.1748 61.1577 80.0667 61.0463C80.9604 60.9937 79.7253 60.6812 80.2658 60.5357C80.2658 60.5357 80.5162 65.7814 80.1631 64.7952C79.5193 63.0009 76.3032 63.399 75.5174 61.9336C75.5174 61.9336 75.2908 61.6927 75.5123 61.5299Z" fill="#201600"/>
<path d="M76.9335 56.5133C76.8772 56.4964 76.8204 56.489 76.7655 56.4667C76.7067 56.4432 76.4394 56.4248 76.6755 56.4427C76.5891 56.4458 76.6062 56.4399 76.7271 56.4244C76.6902 56.4318 76.6535 56.4423 76.6176 56.4545C76.4068 56.5187 76.2233 56.5121 76.0052 56.4846C75.4099 56.4116 72.3791 57.6206 72.8056 57.2691C75.4341 55.1059 76.1934 54.3076 78.0256 55.6021C78.4035 55.8692 77.6817 55.6935 77.6169 56.114C77.5713 56.4087 77.2037 56.594 76.9335 56.5133Z" fill="#201600"/>
<path d="M56.0026 62.5862C56.0026 62.5862 54.3721 57.2957 53.4654 57.0913C53.4654 57.0913 51.9558 53.5797 52.8831 54.2848C53.6608 54.8757 54.833 56.1213 55.2321 56.2078C55.6583 56.3004 56.0747 56.2387 56.4683 56.4726C56.6131 56.5591 56.6567 56.7648 56.5812 56.9194L56.0026 62.5862Z" fill="#201600"/>
<path d="M55.0208 46.1469C54.0732 45.6598 52.8296 44.9847 51.7223 44.9767C50.4843 44.968 49.7937 46.0435 49.3314 47.2617C48.9572 48.247 47.5427 47.454 47.8286 46.4363C48.2876 44.7998 49.5351 43.2089 51.4936 43.3765C52.9861 43.5038 55.0371 43.7623 55.5399 45.1707C55.5857 45.2978 56.0887 45.7556 55.9824 45.7005L55.0208 46.1469Z" fill="#201600"/>
<path d="M53.4654 57.0914C52.5828 56.3948 52.6513 55.4745 51.6249 54.9007C50.7409 54.4066 49.7506 54.116 48.9661 53.4506C47.6133 52.302 46.77 50.1122 47.8955 46.195C47.9758 45.9154 49.784 46.117 49.6561 46.3907C48.8119 48.196 49.1275 49.8602 49.4239 50.9772C49.7237 52.1041 50.8631 52.6554 51.7952 53.1724C53.1269 53.9119 54.8476 55.259 54.3805 56.9915C54.3382 57.148 54.1624 57.175 54.0472 57.084L53.4654 57.0914Z" fill="#201600"/>
<path d="M50.5661 51.0737C50.2342 50.4191 49.3204 49.3951 49.5947 48.6827C49.6647 48.5006 49.8476 47.1867 50.6909 46.5787C51.5312 45.9731 53.3652 47.0488 52.3611 46.9277C50.3687 46.6879 50.4686 49.8651 50.5939 51.1301C50.6011 51.1972 50.5939 51.1301 50.5661 51.0737Z" fill="#201600"/>
<path d="M69.0252 68.8525C69.0252 68.8525 62.6462 67.4154 60.762 65.9288C59.2635 64.7459 57.0569 58.538 57.4377 58.9202C57.4377 58.9202 59.8057 62.1565 61.3764 63.9164C62.1548 64.7872 64.6365 66.9133 69.0252 68.8525C69.0836 68.881 68.9853 68.9027 69.0252 68.8525Z" fill="#201600"/>
<path d="M55.4732 71.0038C55.4732 71.0038 53.2001 69.2808 52.7553 67.5248C52.3609 65.9682 54.6852 59.0779 54.1025 56.7392C53.8193 55.6014 56.0441 56.7151 56.0441 56.7151C56.4437 59.3435 55.4385 68.2247 55.4625 70.1293C55.4899 70.2577 55.4641 70.2657 55.4625 70.1293L55.4732 71.0038Z" fill="#201600"/>
<path d="M58.3607 43.531C59.6883 42.999 60.1422 40.9697 60.2361 39.2312C59.8844 39.516 59.5116 39.7648 59.1192 39.9656C57.969 40.554 57.2276 41.6646 55.9622 41.9391C55.1004 42.1259 54.6794 44.4656 53.9155 44.5246C54.6769 45.616 55.9962 47.4565 56.3892 48.8393C56.783 50.2226 58.6592 48.745 58.6592 48.745C58.4922 46.6922 58.0255 43.665 58.3607 43.531Z" fill="#201600"/>
<path d="M82.806 41.4653C81.7158 42.5164 78.4675 42.9348 78.3583 44.4584C78.2518 45.944 75.9911 43.6334 77.2858 42.3691C77.4605 42.1986 77.6444 41.2116 77.8534 41.0322C79.1024 39.9621 82.0427 38.5433 83.6025 39.1246C84.0834 39.3037 83.2291 41.057 82.806 41.4653Z" fill="#201600"/>
<path d="M80.9067 51.9505L80.8479 58.9864L80.7416 60.303L80.9185 62.7238L80.3593 67.1685L76.3486 70.0125L73.3985 70.3103L77.0518 71.824L75.7403 74.1115L77.4157 73.4524L79.1532 72.7577L81.2568 68.8026L83.2285 61.9476L84.0277 51.1216L82.6081 45.4678C82.6081 45.4678 81.1168 42.6656 80.1872 43.0012C79.258 43.3374 77.8438 45.0342 77.8438 45.0342L80.9067 51.9505Z" fill="#201600"/>
<path d="M76.7804 54.974C79.5903 55.9625 83.5492 59.246 85.8576 55.322L87.393 54.4535C86.8735 57.4402 84.6793 59.4788 82.483 59.135C80.4947 58.8233 77.5077 57.2475 76.4619 55.5251C76.3959 55.4153 76.1044 55.3296 76.2369 55.3759L76.7804 54.974Z" fill="#201600"/>
<path d="M86.8529 55.7996C85.2908 55.987 83.1757 55.8384 81.6751 55.3389C80.1986 54.8473 78.5166 53.6091 77.2283 53.6252C76.7325 53.6314 78.7154 51.8825 79.1781 51.9568C80.2337 52.127 81.0141 52.7524 81.8933 53.3351C83.0607 54.1084 85.5053 55.4046 87.393 54.4535C87.4814 54.4091 86.9416 55.7889 86.8529 55.7996Z" fill="#201600"/>
<path d="M70.653 44.028L71.0456 43.9626L71.6293 44.8999L72.781 45.1729C73.5816 44.8388 73.5377 44.8454 74.1102 44.3655C74.6825 43.8858 74.3504 42.0541 74.3504 42.0541L71.8183 41.173L66.743 41.6332L63.8827 43.7548C63.8827 43.7548 64.1405 44.3294 64.529 44.1244C65.2974 43.718 66.602 42.4192 67.6171 42.7026C68.7684 43.0235 70.653 44.028 70.653 44.028Z" fill="#201600"/>
<path d="M80.2295 57.6219L85.0609 57.5614L86.0289 55.5195L77.987 53.339L76.5486 52.9082C76.5486 52.9082 73.78 53.8568 69.7944 55.0617C67.5029 55.7542 65.5537 55.433 65.5537 55.433L68.7717 58.2761L72.0538 57.6233L75.9399 56.2832L80.2295 57.6219Z" fill="#201600"/>
<path d="M79.5286 35.0002C79.1434 35.0603 78.7614 35.1191 78.601 35.1473C78.4095 35.1814 78.2297 35.2084 78.0438 35.239C78.3257 35.955 78.3059 35.1139 78.3961 35.401C78.7234 36.4414 78.2031 34.3108 79.1306 35.0625C79.2894 35.1911 80.561 40.5856 80.7428 40.7109C81.1379 40.9856 82.0677 39.101 82.3137 39.8798C82.5837 40.7363 82.1484 38.4769 81.6206 35.8873C80.8943 35.7038 80.1897 35.4128 79.5286 35.0002Z" fill="#201600"/>
<path d="M54.2616 52.9682C52.8043 53.1358 51.7281 49.9652 51.7727 48.7648C51.7972 48.1047 53.0437 47.6224 53.7295 47.6137C53.7295 47.6137 53.5822 48.7258 53.5101 49.3844C53.449 49.9367 54.4162 51.2888 54.4497 51.8477L54.2616 52.9682Z" fill="#201600"/>
<path d="M81.6417 42.4661C82.3181 42.4306 82.9042 43.2347 82.7882 43.2644C82.7882 43.2644 82.1992 43.0186 81.8367 42.9043C81.388 42.7635 80.3331 42.7327 80.3331 42.7327L80.2231 42.781L81.6417 42.4661Z" fill="#F2B89C"/>
<path d="M72.536 76.5373L71.1073 77.8566C70.5913 77.6687 70.0539 77.541 69.5085 77.4807L71.464 73.1733L73.6111 71.5562L70.665 69.2117L76.0371 71.4036L74.9986 73.8787L74.8966 74.1221L72.536 76.5373Z" fill="#201600"/>
<path d="M66.3758 46.0047L66.2175 45.68C66.5564 44.3028 67.4962 43.2547 69.7197 42.8939L71.8184 41.173L72.5674 44.2854C72.5901 44.3096 72.6105 44.3346 72.6359 44.3583C72.6731 44.394 72.6501 44.4464 72.6093 44.4603L72.6435 44.6029L72.7775 44.8768C72.7775 44.8768 72.7432 44.8493 72.6943 44.813L72.781 45.1729C72.781 45.1729 68.7108 45.2241 66.3758 46.0047Z" fill="#201600"/>
<path d="M84.31 45.7803L84.4599 45.4515C84.0871 44.0834 84.0725 41.5201 81.8405 41.2147L78.7476 41.0863L78.0768 44.2165C78.0551 44.2413 78.0357 44.2664 78.0107 44.291C77.9744 44.3275 77.9987 44.3791 78.0394 44.3923L78.0091 44.5356L77.8821 44.813C77.8821 44.813 77.9156 44.7845 77.9637 44.7469L77.8858 45.1091C77.8858 45.1091 81.956 45.0582 84.31 45.7803Z" fill="#201600"/>
<path d="M81.2264 75.1265C80.5703 75.0148 80.0801 74.2683 79.7672 73.7358C79.3325 72.998 78.8799 72.2933 78.3998 71.5844C77.7625 70.6447 78.179 69.2901 79.1104 68.7283C80.0019 68.1906 79.5773 69.0532 80.0539 70.0833C80.0539 70.0833 82.8487 71.6723 82.8624 72.856C82.8733 73.7986 82.4508 75.3352 81.2264 75.1265Z" fill="#201600"/>
<path d="M53.9576 44.5614C55.9143 43.3131 57.5388 41.61 59.4385 40.2672C61.5799 38.7533 63.949 37.5446 66.4254 36.6957C71.7414 34.8739 77.5348 35.2891 82.76 37.1671C83.3594 37.3824 83.891 38.7611 84.1342 38.2668C84.4087 37.7083 84.3208 35.2396 83.6574 34.9632C78.2438 32.7071 71.9938 32.7808 66.46 34.5668C61.7153 36.098 55.9052 39.7041 53.8424 44.4489C53.8119 44.5201 53.8812 44.6101 53.9576 44.5614Z" fill="#201600"/>
<path d="M47.3607 41.5086C47.4313 37.9506 47.9654 35.8041 49.9524 33.2355C51.9244 30.6863 54.5295 28.7367 57.3062 27.1351C67.9106 21.0171 76.0935 23.5756 78.1878 24.8703C75.465 22.5306 70.0301 21.8103 66.5851 22.0603C63.1428 22.3094 59.8573 23.5335 56.8666 25.2072C51.5665 28.1722 44.6915 34.4086 45.1213 41.0374C45.1303 41.1767 45.6858 41.6021 45.7514 41.4504L47.3607 41.5086Z" fill="#201600"/>
<path d="M79.0064 25.1496C79.9917 27.3433 81.3284 32.419 81.7534 34.2749C82.0947 35.7663 81.5428 35.5219 82.8068 36.4608C83.0954 36.6752 84.3038 36.6047 84.2696 36.305C84.0359 34.2439 83.4819 32.5416 82.7554 30.8481C82.0062 29.1008 80.866 26.7914 79.0064 25.1496Z" fill="#201600"/>
<path d="M49.5013 45.5463C49.5013 45.5463 47.5555 42.4776 47.1607 40.0327C47.0835 39.5553 45.7363 40.0481 45.5417 40.4898C44.5611 42.717 47.313 46.7799 48.4961 47.3568C49.3919 47.7929 49.2497 46.0214 49.2792 45.8251L49.5013 45.5463Z" fill="#201600"/>
<path d="M46.119 39.4211C46.6736 39.3188 45.8267 39.028 46.119 39.4211Z" fill="#201600"/>
<path d="M45.6806 42.1214L46.2899 41.102C45.9417 40.657 45.6707 40.4133 46.3382 41.0221L46.8984 40.0845C46.4439 39.7631 46.2166 39.5534 46.119 39.4211C46.0249 39.4383 46.4241 36.2259 45.757 36.8796C44.0942 38.5089 35.8279 35.5469 34.236 34.3331C34.0224 34.17 33.3926 36.5322 33.4859 36.8057C33.8075 37.7419 32.5798 37.4705 33.4903 37.8216C34.8888 38.3613 38.7115 40.8566 45.7514 41.4504C47.2075 41.5732 46.7943 41.7555 46.3213 41.1416C46.2113 41.4391 45.746 42.1674 45.6806 42.1214Z" fill="#201600"/>
<path d="M46.3214 41.1416C46.3444 41.0799 46.3531 41.035 46.3384 41.0217L46.2899 41.1018L46.3214 41.1416Z" fill="#201600"/>
<path d="M80.8786 27.8046C83.4879 26.3318 84.9319 24.8454 85.7321 21.9306C86.2869 19.9111 87.0762 14.2635 85.2178 12.7323C84.9304 12.4959 85.0727 11.2146 85.0613 11.5992C85.0266 12.8105 83.8685 11.4605 84.0458 12.3894C84.5164 14.8565 84.4559 17.9759 84.2914 20.0803C84.1088 22.412 81.283 24.6323 79.4982 25.6864C79.3781 25.7572 80.5826 27.5454 80.6968 27.4814L80.8786 27.8046Z" fill="#201600"/>
<path d="M85.7926 15.8162C85.7837 15.1035 86.3014 16.6924 86.3732 15.969C86.4421 15.2711 86.1127 12.2196 85.9583 11.5397C85.6669 10.252 84.5542 7.98458 83.0316 8.15279C82.7063 8.18891 82.5063 8.39077 82.4801 8.71811C82.4242 9.41015 82.2314 9.64255 82.7075 10.1319C83.3139 10.7563 83.8186 11.5587 84.0458 12.3895C84.2043 12.9696 84.2898 13.8652 84.3816 14.4606C84.4797 15.0895 84.9986 15.305 85.1637 15.9091C85.2597 16.2606 85.7971 16.1766 85.7926 15.8162Z" fill="#201600"/>
<path d="M38.4362 14.4765C36.1373 18.1268 31.8405 24.9395 30.5447 29.1099C29.9992 30.8653 30.2087 32.8753 30.7918 34.6623C31.2954 36.2061 32.8998 38.1931 34.6562 37.9993C35.5247 37.9033 35.9423 36.6971 35.5743 35.9093C34.9594 34.5944 33.5561 34.2014 33.0954 32.6758C32.6058 31.0556 33.0484 29.1652 33.5268 27.608C34.5613 24.2375 36.7794 21.1623 38.4711 17.63C38.5621 17.4401 37.2921 17.5702 37.1889 17.7336L38.4362 14.4765Z" fill="#201600"/>
<path d="M35.8818 21.8184C36.8663 20.1581 38.5377 17.4533 39.2692 16.4474C40.4533 14.8179 41.7737 13.2782 43.179 11.8373C44.4114 10.5746 45.7834 9.51478 47.3107 8.63513C48.7607 7.80047 51.6986 6.92247 54.1275 5.10351C54.6008 4.74913 52.7869 2.56218 52.2282 2.87713C48.7401 4.84222 44.4117 7.3303 42.3675 9.296C40.945 10.6644 39.7662 12.3104 38.7274 13.982C37.8213 15.441 35.6277 20.0186 34.1914 22.4223C34.1235 22.5362 36.2471 19.974 36.3627 19.8849L35.8818 21.8184Z" fill="#201600"/>
<path d="M72.7863 2.31435C70.2336 1.25245 67.2594 0.672068 65.4957 0.355252C63.4753 -0.00862132 61.3876 -0.140099 59.3545 0.185591C57.1574 0.538319 55.1081 1.23594 53.1853 2.35542C51.9225 3.0906 49.7772 3.904 49.8878 5.62678C49.9171 6.08765 50.3037 5.56072 50.7599 5.68518C52.1425 6.06247 53.0315 5.8051 54.1275 5.10356C55.7719 4.05054 57.4736 3.24333 59.3603 2.72239C61.2672 2.1965 63.3044 2.15666 65.267 2.22147C67.0301 2.27905 69.4336 3.14406 71.3238 3.75767C71.5209 3.82185 70.8489 2.0805 70.6699 1.93726L72.7863 2.31435Z" fill="#201600"/>
<path d="M68.5818 1.95128C69.3558 3.04475 70.7191 3.46745 71.9071 4.01522C73.3971 4.70251 74.8991 5.37453 76.4023 6.0321C77.8995 6.68658 79.2822 7.50473 80.6275 8.42649C81.8271 9.24918 83.4875 10.7715 84.0479 11.5957C84.179 11.7878 85.9507 11.5152 85.9016 11.3152C84.9389 7.38358 80.5831 5.06968 78.7905 4.29405C77.1719 3.59314 75.4904 3.12916 73.7981 2.64847C72.2788 2.21773 70.4894 1.26543 68.9127 1.35707C68.6377 1.37337 68.4004 1.69493 68.5818 1.95128Z" fill="#201600"/>
<path d="M79.0033 23.3587C80.496 20.541 81.5005 19.709 82.0976 16.1698C82.1624 15.7832 81.863 11.522 81.6493 11.9343C80.1843 14.7692 80.0369 20.3575 79.0033 23.3587C78.8791 23.7188 78.8291 23.6877 79.0033 23.3587Z" fill="#201600"/>
<path d="M72.2078 18.1268C71.408 10.2374 68.6728 4.95867 68.6728 4.95867C67.8355 6.73635 68.6854 9.01226 69.1533 10.8223C69.8254 13.4182 72.2384 18.2534 72.2078 18.1268Z" fill="#201600"/>
<path d="M75.3255 18.7167C76.7608 16.2819 76.3979 13.606 75.9602 11.4752C75.9086 11.2219 75.4194 16.575 75.3255 18.7167C75.3199 18.849 75.3005 18.9821 75.3199 18.849L75.3255 18.7167Z" fill="#201600"/>
<path d="M52.7805 25.4112C51.7337 23.3793 50.4455 21.5343 48.9093 19.8438C47.6435 18.4498 45.3138 16.3146 43.2944 16.6023C42.7621 16.6787 44.0581 23.2123 46.0744 25.0055C46.4001 25.2959 44.8686 21.8487 44.6125 18.7016L44.6534 18.7152C45.9176 19.1435 47.0608 19.8518 48.1188 20.6549C49.885 21.9967 51.3816 23.7116 52.7805 25.4112C52.8348 25.4769 52.8158 25.4789 52.7805 25.4112Z" fill="#201600"/>
<path d="M46.3473 31.4987C44.5956 31.0609 42.7986 30.2471 41.1679 29.4769C39.7565 28.8094 36.9499 26.7075 36.978 27.1524C36.9949 27.4166 38.8397 30.3355 40.3188 30.9724C42.3161 31.8329 46.3473 31.4987 46.3473 31.4987C46.5111 31.5396 46.5006 31.4832 46.3473 31.4987Z" fill="#201600"/>
<path d="M64.403 7.90616C64.0555 7.60895 64.9824 11.4017 65.7574 12.8825C66.6037 14.5011 67.4606 16.1066 68.331 17.7117C68.4439 17.9196 66.9814 10.1138 64.403 7.90616Z" fill="#201600"/>
<path d="M55.5118 38.0113C57.5527 35.2926 60.2125 33.1476 63.2266 31.5976C66.1473 30.095 69.259 29.8422 72.4206 29.2348C65.1894 26.2998 59.1785 32.5629 55.5118 38.0113C55.4197 38.1477 55.4181 38.1363 55.5118 38.0113Z" fill="#201600"/>
<path d="M53.4071 22.4464C53.1537 20.1759 51.8736 16.5931 49.118 14.9361C49.118 14.9361 51.0042 18.1664 51.5908 19.1398C52.2406 20.2184 52.7793 21.3569 53.4071 22.4464C53.5 22.6072 53.4294 22.6456 53.4071 22.4464Z" fill="#201600"/>
<path d="M44.2901 33.6293C42.9914 33.5201 41.7023 33.5269 40.4098 33.3168C39.1679 33.1139 36.1501 32.8495 36.4195 33.0565C40.1155 35.8982 44.5188 33.6487 44.2901 33.6293Z" fill="#201600"/>
<path d="M83.0735 49.7332C83.2888 49.384 83.1905 47.1434 82.7071 46.4258C82.2275 45.7131 80.7777 45.7531 80.7891 46.4132C80.798 46.9513 81.4227 48.448 81.7224 48.8971C81.9746 49.2742 82.1189 49.6395 82.4399 49.9692C82.722 50.2591 82.9443 50.0532 83.0735 49.7332Z" fill="#F2B89C"/>
<path d="M75.7987 23.5956C75.6477 23.4082 75.3236 23.6163 75.4018 23.8334C76.393 26.5823 77.252 29.4054 77.9756 32.2489C76.7279 29.8665 75.1102 27.6244 72.9826 26.0009C75.1857 28.2017 77.0658 30.9193 78.5211 34.4866C78.634 34.763 79.0588 34.6602 78.9791 34.3539C78.1659 31.2401 77.3544 28.1249 76.3354 25.0717C77.7395 26.9704 78.9275 28.9901 79.8526 31.1814C80.8274 33.4922 81.2679 36.0422 82.3593 38.2894C82.4677 38.5128 82.8753 38.4065 82.839 38.153C82.0811 32.8287 79.1205 27.7022 75.7987 23.5956Z" fill="#201600"/>
<path d="M66.7168 79.9921C64.1535 79.0545 61.3108 77.6109 58.5207 78.741C57.4571 79.1717 56.873 80.1473 55.9616 80.7987C55.9112 80.7488 55.8608 80.6996 55.8111 80.6491C53.383 77.8367 51.1395 74.9173 48.0274 72.867L48.4755 72.6302L51.2375 67.0318L53.4519 66.9358L54.9227 70.0806C55.0561 70.3587 55.1355 70.5525 55.1803 70.6881C55.3033 70.7147 55.5318 70.8311 55.9327 71.1184C56.7777 71.7246 57.7616 73.2358 58.6534 73.7262C58.7698 73.9346 65.7032 78.6627 68.1762 80.4173C67.6879 80.2815 67.201 80.1409 66.7168 79.9921Z" fill="#FF2B15"/>
<path d="M51.428 75.7C51.1706 75.442 50.9089 75.1885 50.6418 74.9406C50.6424 74.9406 50.6431 74.9404 50.6437 74.9404C50.9103 75.1877 51.1719 75.4409 51.4288 75.6985C51.4286 75.6989 51.4282 75.6995 51.428 75.7Z" fill="#FFBA67"/>
<path d="M50.6418 74.9406C49.8474 74.2037 49.0053 73.5168 48.0868 72.9061C49.0055 73.5171 49.8488 74.2035 50.6437 74.9403C50.6431 74.9403 50.6424 74.9406 50.6418 74.9406ZM48.0686 72.8942C48.0657 72.8921 48.0626 72.8902 48.0596 72.8882C48.0626 72.8902 48.0655 72.8921 48.0686 72.8942Z" fill="#686152"/>
<path d="M51.4288 75.6985C51.1719 75.4409 50.9104 75.1877 50.6437 74.9404C49.8488 74.2036 49.0055 73.5171 48.0868 72.9062C48.0864 72.906 48.0862 72.9058 48.0858 72.9056C48.0821 72.9031 48.0786 72.9008 48.075 72.8983C48.0728 72.8969 48.0707 72.8957 48.0687 72.8942C48.0656 72.8921 48.0627 72.8903 48.0596 72.8882C48.0567 72.8864 48.0536 72.8843 48.0507 72.8822C48.0484 72.8808 48.0462 72.8793 48.0439 72.8777C48.0383 72.8742 48.0329 72.8705 48.0274 72.867L48.4755 72.6302L51.2375 67.0318L53.4519 66.9358L54.9227 70.0806C55.0412 70.3281 55.1157 70.506 55.1626 70.6385C54.3087 71.5351 53.5543 72.5365 52.8284 73.5231C52.3089 74.2288 51.8497 74.954 51.4288 75.6985Z" fill="#FF6F60"/>
<path d="M68.1762 80.7471C68.2516 80.6736 68.0819 80.801 68.1762 80.7471C68.2398 80.7106 67.8794 81.3492 67.944 81.3174C67.9521 81.286 67.3515 80.8307 67.3618 80.7987C67.557 80.2072 73.3147 78.2398 73.7985 78.1732C73.1996 77.8873 72.5114 76.4463 71.9453 76.1967C71.5814 76.0362 68.189 77.9847 67.8367 77.8351C64.7892 76.541 62.9927 75.4289 60.4074 73.7827C60.0037 73.5258 59.3675 73.6261 58.9977 73.8915C57.0408 75.2983 53.9423 77.5798 53.2315 79.9513C52.939 80.9261 54.1632 82.0032 55.0899 81.544C56.3622 80.9139 57.2179 79.6619 58.215 78.6693C58.8478 78.0392 59.474 77.4151 60.0881 76.775C63.0895 78.3077 65.4297 78.7876 68.1762 80.7471Z" fill="#201600"/>
<path d="M54.7665 65.8127C53.5844 68.1275 48.4608 70.287 49.602 73.0834C50.2812 74.7471 51.9574 76.1019 53.254 77.2742C54.0922 78.0321 55.6363 78.9473 55.691 80.1968C55.7302 81.0801 54.9467 81.871 54.0354 81.6717C52.5791 81.3532 51.0063 79.3064 49.9861 78.3039C48.5188 76.8629 46.8587 75.0734 46.5041 72.9688C46.1361 70.7842 47.7809 69.106 49.215 67.6697C50.4309 66.4526 52.0315 64.7318 53.7828 64.3682C54.5485 64.209 55.0829 65.194 54.7665 65.8127Z" fill="#201600"/>
<path d="M59.6187 76.1387C62.9327 77.3207 65.4984 77.1973 62.498 74.8855C59.4974 72.5737 54.5099 65.8553 54.5099 65.8553L53.415 67.5249C53.415 67.5249 56.305 74.9569 59.6187 76.1387Z" fill="#201600"/>
<path d="M56.9698 79.3677L68.1762 80.7471L61.0928 76.1967L57.5981 76.4658L56.9698 79.3677Z" fill="#201600"/>
<path d="M68.5773 79.8061C70.9723 78.9469 73.6276 77.6247 76.2347 78.6596C77.2279 79.054 77.7738 79.9483 78.6252 80.5446C78.6722 80.4989 78.7191 80.4542 78.7657 80.4077C81.0343 77.8313 83.13 75.1568 86.0374 73.2786L85.619 73.0619L83.0386 67.9334L81.2027 67.8457L79.8409 70.6341C79.7168 70.8888 79.8502 70.6325 78.9944 71.8547C78.1385 73.077 75.813 73.95 74.9802 74.3994C74.9802 74.3994 74.1036 74.9895 73.928 75.1864C72.8181 76.4293 69.2086 78.808 67.2144 80.1953C67.6704 80.0709 68.125 79.9423 68.5773 79.8061Z" fill="#FF2B15"/>
<path d="M83.1841 75.561C83.1839 75.5604 83.1837 75.56 83.1835 75.5594C83.4382 75.3171 83.6977 75.0799 83.9635 74.8488C83.9641 74.849 83.9647 74.849 83.9654 74.849C83.6993 75.0805 83.4392 75.3183 83.1841 75.561Z" fill="#FFBA67"/>
<path d="M83.9653 74.849C83.9647 74.849 83.9641 74.849 83.9635 74.8488C84.5914 74.3029 85.2531 73.7912 85.9631 73.327C85.2533 73.791 84.5926 74.3031 83.9653 74.849ZM85.9905 73.3091C85.9969 73.305 86.0033 73.3008 86.0095 73.2967C86.0033 73.3008 85.9967 73.305 85.9905 73.3091ZM86.0157 73.2928C86.0229 73.288 86.0302 73.2835 86.0374 73.2787C86.0302 73.2833 86.0229 73.288 86.0157 73.2928Z" fill="#686152"/>
<path d="M79.8291 70.6583C79.8329 70.6508 79.8366 70.6426 79.841 70.6338C79.8369 70.6426 79.8329 70.6508 79.8291 70.6583Z" fill="#686152"/>
<path d="M83.1835 75.5593C83.076 75.3032 80.3752 71.1388 79.8167 70.6843C79.8206 70.6762 79.8246 70.6678 79.8291 70.6583C79.8328 70.6509 79.8367 70.6428 79.8409 70.6341L81.2027 67.8457L83.0386 67.9335L85.619 73.062L86.0374 73.2787C86.0302 73.2834 86.0229 73.288 86.0157 73.2927C86.0137 73.2939 86.0118 73.2952 86.0095 73.2966C86.0033 73.3008 85.9969 73.3049 85.9905 73.309C85.9897 73.3096 85.9889 73.31 85.9881 73.3107C85.9804 73.3156 85.9728 73.3206 85.9651 73.3255C85.9645 73.3259 85.9639 73.3265 85.9631 73.327C85.2531 73.7911 84.5914 74.3028 83.9635 74.8487C83.6976 75.0799 83.4382 75.317 83.1835 75.5593Z" fill="#FF6F60"/>
<path d="M66.4375 81.2428C66.3669 81.1755 66.2895 81.1147 66.2016 81.0651C66.142 81.0315 66.0819 81.0007 66.0218 80.9716C66.0146 80.9429 66.0078 80.9138 65.9977 80.8845C65.8154 80.3429 62.4134 78.2008 61.9618 78.1397C62.5211 77.8778 63.164 76.5577 63.693 76.329C64.033 76.182 67.5921 77.9453 67.9205 77.8082C70.7678 76.6227 72.0567 75.6256 74.4718 74.1177C74.8491 73.8824 75.4433 73.9738 75.7893 74.2174C77.6169 75.5059 80.5117 77.5958 81.1757 79.7686C81.4489 80.6614 80.3053 81.6484 79.4394 81.2276C78.251 80.6505 77.4516 79.5033 76.5201 78.5942C75.929 78.0169 75.3436 77.4452 74.7701 76.859C71.9663 78.2629 69.0035 79.448 66.4375 81.2428Z" fill="#201600"/>
<path d="M79.7418 66.8165C80.846 68.9372 85.6326 70.9155 84.5664 73.477C83.9319 75.0014 82.3662 76.2419 81.1548 77.3162C80.3715 78.0105 78.929 78.8486 78.8778 79.9933C78.8413 80.8026 79.5736 81.5272 80.4246 81.3446C81.7851 81.0529 83.2545 79.1778 84.2077 78.2594C85.5786 76.9393 87.129 75.3001 87.4603 73.3722C87.8042 71.3708 86.2675 69.8335 84.928 68.5178C83.792 67.4028 82.6264 65.8264 80.9903 65.4933C80.2751 65.3473 79.4462 66.2497 79.7418 66.8165Z" fill="#201600"/>
<path d="M77.6834 79.2338L66.0375 80.9993L73.8316 76.329L77.0964 76.5756L77.6834 79.2338Z" fill="#201600"/>
<path d="M68.117 90.0794L67.5288 90.4092L64.9494 76.4967L69.1063 78.061L68.117 90.0794Z" fill="#201600"/>
<path d="M69.6646 90.1902C70.0398 87.6151 70.2856 85.0256 70.5253 82.4352C70.5591 82.0678 71.0109 84.3584 70.851 85.8075C70.7255 86.9437 69.6109 90.5564 69.6646 90.1902Z" fill="#201600"/>
<path d="M65.2278 75.6178L56.9847 62.1966C58.5861 69.9337 65.2121 75.863 65.2278 75.6178Z" fill="#000002"/>
<path d="M66.6078 51.9C64.4505 51.9 62.0018 48.9128 63.517 48.2402C65.0406 47.5642 69.9269 46.9228 72.0658 46.0792C72.0658 46.0792 72.3455 45.9795 72.6157 45.9795C72.8644 45.9795 73.1053 46.064 73.1133 46.388C73.8404 47.4833 68.6022 51.448 67.1502 51.8316C66.9733 51.8783 66.7915 51.9 66.6078 51.9Z" fill="#F8D7C7"/>
<path d="M77.382 50.7906C77.3267 50.7906 77.2784 50.7842 77.2396 50.7702C76.2188 50.4021 75.3191 42.1998 75.5018 42.1998C75.503 42.1998 75.5042 42.2 75.5053 42.2007C75.5053 42.2007 78.9352 48.7611 78.8553 50.0385C78.838 50.319 77.8543 50.7906 77.382 50.7906Z" fill="#F8D7C7"/>
<path d="M76.7075 66.8724C75.8456 66.8724 75.0586 66.7494 74.5042 66.6264C73.95 66.5034 73.6289 66.3804 73.6987 66.3804C73.7015 66.3804 73.705 66.3806 73.7094 66.381C71.9965 65.4613 76.5641 63.9827 77.5754 63.9827C77.6134 63.9827 77.6462 63.9848 77.6737 63.9891C78.4171 64.1053 78.9887 64.6058 79.0477 65.252C79.1193 66.0184 78.4078 66.7515 77.4815 66.8376C77.2198 66.8617 76.9604 66.8724 76.7075 66.8724Z" fill="#F8D7C7"/>
</g>
<defs>
<clipPath id="clip0_9_1640">
<rect width="135.134" height="165" fill="white" transform="translate(0.234314)"/>
</clipPath>
</defs>
</svg>
