<svg width="34" height="38" viewBox="0 0 34 38" fill="none" xmlns="http://www.w3.org/2000/svg">
<path d="M2 17.3334C2 15.4478 2 14.5049 2.58579 13.9192C3.17157 13.3334 4.11438 13.3334 6 13.3334H28.2222C30.1078 13.3334 31.0506 13.3334 31.6364 13.9192C32.2222 14.5049 32.2222 15.4478 32.2222 17.3334V30C32.2222 32.8285 32.2222 34.2427 31.3435 35.1214C30.4649 36 29.0506 36 26.2222 36H8C5.17157 36 3.75736 36 2.87868 35.1214C2 34.2427 2 32.8285 2 30V17.3334Z" stroke="#33363F" stroke-width="3"/>
<path d="M24.6667 11.4444V9.55556C24.6667 7.17368 24.6667 5.98274 24.2692 5.04634C23.7628 3.85349 22.8132 2.90381 21.6203 2.39748C20.6839 2 19.493 2 17.1111 2V2C14.7292 2 13.5383 2 12.6019 2.39748C11.409 2.90381 10.4594 3.85349 9.95302 5.04634C9.55554 5.98274 9.55554 7.17368 9.55554 9.55556V11.4444" stroke="#33363F" stroke-width="3" stroke-linecap="round"/>
<circle cx="17.1111" cy="24.6667" r="3.77778" fill="#33363F"/>
</svg>
